<svg xmlns="http://www.w3.org/2000/svg" xmlns:xlink="http://www.w3.org/1999/xlink" width="500" zoomAndPan="magnify" viewBox="0 0 375 374.999991" height="500" preserveAspectRatio="xMidYMid meet" version="1.0"><defs><g/><clipPath id="841643c36b"><path d="M 276 310 L 308.25 310 L 308.25 360 L 276 360 Z M 276 310 " clip-rule="nonzero"/></clipPath><clipPath id="0fe7bf85f9"><path d="M 37.5 280 L 69 280 L 69 330 L 37.5 330 Z M 37.5 280 " clip-rule="nonzero"/></clipPath></defs><path fill="#a1211d" d="M 177.566406 0 L 179.394531 0 L 179.394531 213.382812 L 177.566406 213.382812 Z M 177.566406 0 " fill-opacity="1" fill-rule="nonzero"/><path fill="#fffeb3" d="M 138.53125 224.875 C 144.992188 220.300781 152.136719 216.800781 159.757812 214.609375 C 147.269531 216.644531 135.640625 220.675781 125.371094 226.289062 C 129.753906 225.753906 134.140625 225.28125 138.53125 224.875 Z M 138.53125 224.875 " fill-opacity="1" fill-rule="evenodd"/><path fill="#a1211d" d="M 167.128906 214.074219 C 157.628906 215.71875 148.734375 219.386719 140.824219 224.675781 C 144.703125 224.339844 148.585938 224.054688 152.472656 223.828125 C 156.945312 219.386719 161.878906 216.058594 167.128906 214.074219 Z M 167.128906 214.074219 " fill-opacity="1" fill-rule="evenodd"/><path fill="#fffeb3" d="M 173.296875 213.550781 C 166.40625 214.75 159.941406 218.308594 154.199219 223.726562 C 157.84375 223.527344 161.496094 223.371094 165.148438 223.261719 C 167.621094 218.695312 170.367188 215.367188 173.296875 213.550781 Z M 173.296875 213.550781 " fill-opacity="1" fill-rule="evenodd"/><path fill="#a1211d" d="M 177.917969 213.125 C 173.777344 213.429688 169.871094 217.058594 166.433594 223.226562 C 170.261719 223.125 174.085938 223.074219 177.917969 223.074219 Z M 177.917969 213.125 " fill-opacity="1" fill-rule="evenodd"/><path fill="#a1211d" d="M 179.046875 213.125 L 179.046875 223.074219 C 182.875 223.085938 186.710938 223.148438 190.546875 223.261719 C 187.109375 217.074219 183.195312 213.429688 179.046875 213.125 Z M 179.046875 213.125 " fill-opacity="1" fill-rule="evenodd"/><path fill="#a1211d" d="M 183.664062 213.550781 C 186.605469 215.375 189.355469 218.714844 191.835938 223.300781 C 195.5 223.421875 199.171875 223.589844 202.839844 223.800781 C 197.078125 218.339844 190.585938 214.753906 183.664062 213.550781 Z M 183.664062 213.550781 " fill-opacity="1" fill-rule="evenodd"/><path fill="#fffeb3" d="M 189.832031 214.074219 C 195.113281 216.066406 200.078125 219.425781 204.566406 223.902344 C 208.480469 224.148438 212.398438 224.441406 216.324219 224.792969 C 208.363281 219.445312 199.40625 215.730469 189.832031 214.074219 Z M 189.832031 214.074219 " fill-opacity="1" fill-rule="evenodd"/><path fill="#a1211d" d="M 197.207031 214.609375 C 204.894531 216.824219 212.101562 220.363281 218.609375 225.007812 C 223.046875 225.425781 227.484375 225.917969 231.933594 226.472656 C 221.578125 220.765625 209.828125 216.664062 197.207031 214.609375 Z M 197.207031 214.609375 " fill-opacity="1" fill-rule="evenodd"/><path fill="#a1211d" d="M 234.507812 227.941406 C 229.792969 227.320312 225.085938 226.777344 220.382812 226.3125 C 224.171875 229.1875 227.707031 232.441406 230.945312 236.023438 C 232.777344 238.054688 234.515625 240.1875 236.148438 242.421875 C 242.835938 243.324219 249.535156 244.390625 256.246094 245.609375 C 253.464844 242.503906 250.417969 239.574219 247.136719 236.835938 C 243.242188 233.582031 239.015625 230.605469 234.507812 227.941406 Z M 234.507812 227.941406 " fill-opacity="1" fill-rule="evenodd"/><path fill="#a1211d" d="M 230.109375 236.78125 C 226.496094 232.78125 222.503906 229.195312 218.199219 226.101562 C 214.042969 225.710938 209.890625 225.378906 205.738281 225.109375 C 208.742188 228.289062 211.523438 231.980469 214.03125 236.109375 C 214.835938 237.425781 215.613281 238.789062 216.355469 240.195312 C 222.425781 240.738281 228.503906 241.410156 234.589844 242.210938 C 233.171875 240.328125 231.671875 238.511719 230.109375 236.78125 Z M 230.109375 236.78125 " fill-opacity="1" fill-rule="evenodd"/><path fill="#a1211d" d="M 213.070312 236.699219 C 210.363281 232.246094 207.34375 228.320312 204.070312 225.003906 C 200.1875 224.765625 196.308594 224.582031 192.4375 224.449219 C 194.144531 227.804688 195.714844 231.769531 197.117188 236.234375 C 197.394531 237.113281 197.664062 238.015625 197.929688 238.941406 C 203.613281 239.203125 209.308594 239.582031 215.011719 240.074219 C 214.382812 238.917969 213.734375 237.792969 213.070312 236.699219 Z M 213.070312 236.699219 " fill-opacity="1" fill-rule="evenodd"/><path fill="#a1211d" d="M 196.035156 236.570312 C 194.574219 231.90625 192.9375 227.8125 191.164062 224.410156 C 187.121094 224.28125 183.082031 224.21875 179.046875 224.203125 L 179.046875 238.472656 C 184.933594 238.488281 190.832031 238.625 196.738281 238.886719 C 196.507812 238.097656 196.277344 237.328125 196.035156 236.570312 Z M 196.035156 236.570312 " fill-opacity="1" fill-rule="evenodd"/><path fill="#fffeb3" d="M 177.917969 238.472656 L 177.917969 224.203125 C 173.878906 224.203125 169.847656 224.257812 165.820312 224.371094 C 164.039062 227.785156 162.394531 231.886719 160.925781 236.570312 C 160.691406 237.308594 160.46875 238.066406 160.242188 238.835938 C 166.125 238.589844 172.015625 238.46875 177.917969 238.472656 Z M 177.917969 238.472656 " fill-opacity="1" fill-rule="evenodd"/><path fill="#a1211d" d="M 159.84375 236.234375 C 161.257812 231.746094 162.832031 227.777344 164.546875 224.410156 C 160.683594 224.53125 156.828125 224.703125 152.972656 224.929688 C 149.667969 228.257812 146.625 232.210938 143.894531 236.699219 C 143.246094 237.757812 142.617188 238.851562 142.007812 239.96875 C 147.679688 239.492188 153.359375 239.132812 159.050781 238.882812 C 159.308594 237.984375 159.574219 237.097656 159.84375 236.234375 Z M 159.84375 236.234375 " fill-opacity="1" fill-rule="evenodd"/><path fill="#a1211d" d="M 142.929688 236.109375 C 145.460938 231.945312 148.269531 228.226562 151.300781 225.027344 C 147.175781 225.285156 143.054688 225.597656 138.941406 225.972656 C 134.570312 229.097656 130.519531 232.726562 126.851562 236.78125 C 125.335938 238.464844 123.878906 240.21875 122.5 242.046875 C 128.546875 241.265625 134.597656 240.613281 140.664062 240.085938 C 141.394531 238.71875 142.148438 237.390625 142.929688 236.109375 Z M 142.929688 236.109375 " fill-opacity="1" fill-rule="evenodd"/><path fill="#a1211d" d="M 126.019531 236.023438 C 129.308594 232.382812 132.898438 229.085938 136.753906 226.179688 C 132.09375 226.628906 127.4375 227.148438 122.785156 227.75 C 118.152344 230.460938 113.816406 233.503906 109.824219 236.835938 C 106.628906 239.503906 103.652344 242.359375 100.921875 245.378906 C 107.585938 244.179688 114.257812 243.136719 120.941406 242.25 C 122.535156 240.078125 124.230469 238 126.019531 236.023438 Z M 126.019531 236.023438 " fill-opacity="1" fill-rule="evenodd"/><path fill="#fffeb3" d="M 120.03125 243.511719 C 113.25 244.429688 106.476562 245.507812 99.71875 246.746094 C 93.621094 253.792969 88.855469 261.691406 85.714844 270.1875 C 93.394531 268.535156 101.085938 267.085938 108.800781 265.84375 C 111.488281 257.722656 115.300781 250.199219 120.03125 243.511719 Z M 120.03125 243.511719 " fill-opacity="1" fill-rule="evenodd"/><path fill="#a1211d" d="M 121.5625 243.304688 C 116.722656 249.964844 112.816406 257.492188 110.058594 265.640625 C 117.390625 264.484375 124.734375 263.507812 132.09375 262.722656 C 134.070312 254.886719 136.761719 247.664062 140.042969 241.273438 C 133.875 241.820312 127.714844 242.496094 121.5625 243.304688 Z M 121.5625 243.304688 " fill-opacity="1" fill-rule="evenodd"/><path fill="#a1211d" d="M 141.375 241.15625 C 138.039062 247.515625 135.300781 254.738281 133.289062 262.597656 C 140.351562 261.863281 147.429688 261.300781 154.519531 260.914062 C 155.585938 253.261719 157.011719 246.226562 158.726562 240.027344 C 152.9375 240.289062 147.148438 240.664062 141.375 241.15625 Z M 141.375 241.15625 " fill-opacity="1" fill-rule="evenodd"/><path fill="#a1211d" d="M 159.917969 239.976562 C 158.183594 246.15625 156.75 253.1875 155.671875 260.851562 C 163.070312 260.464844 170.484375 260.269531 177.917969 260.269531 L 177.917969 239.601562 C 171.90625 239.597656 165.910156 239.722656 159.917969 239.976562 Z M 159.917969 239.976562 " fill-opacity="1" fill-rule="evenodd"/><path fill="#a1211d" d="M 179.046875 239.601562 L 179.046875 260.269531 C 186.453125 260.289062 193.867188 260.496094 201.300781 260.898438 C 200.222656 253.238281 198.792969 246.207031 197.0625 240.027344 C 191.050781 239.761719 185.042969 239.617188 179.046875 239.601562 Z M 179.046875 239.601562 " fill-opacity="1" fill-rule="evenodd"/><path fill="#fffeb3" d="M 198.25 240.082031 C 199.964844 246.28125 201.386719 253.316406 202.449219 260.957031 C 209.519531 261.359375 216.601562 261.933594 223.695312 262.679688 C 221.691406 254.835938 218.964844 247.625 215.644531 241.265625 C 209.839844 240.753906 204.042969 240.359375 198.25 240.082031 Z M 198.25 240.082031 " fill-opacity="1" fill-rule="evenodd"/><path fill="#a1211d" d="M 216.980469 241.382812 C 220.242188 247.769531 222.925781 254.984375 224.890625 262.8125 C 232.230469 263.605469 239.582031 264.589844 246.941406 265.765625 C 244.207031 257.636719 240.328125 250.125 235.523438 243.472656 C 229.332031 242.640625 223.148438 241.945312 216.980469 241.382812 Z M 216.980469 241.382812 " fill-opacity="1" fill-rule="evenodd"/><path fill="#fffeb3" d="M 237.054688 243.679688 C 241.753906 250.359375 245.539062 257.867188 248.199219 265.964844 C 255.890625 267.21875 263.59375 268.671875 271.304688 270.339844 C 268.199219 261.882812 263.484375 254.007812 257.445312 246.976562 C 250.636719 245.714844 243.84375 244.617188 237.054688 243.679688 Z M 237.054688 243.679688 " fill-opacity="1" fill-rule="evenodd"/><path fill="#a1211d" d="M 271.746094 271.59375 C 264.015625 269.910156 256.296875 268.4375 248.589844 267.175781 C 251.167969 275.417969 252.59375 284.253906 252.648438 293.449219 L 275.519531 293.449219 C 275.460938 285.871094 274.148438 278.542969 271.746094 271.59375 Z M 271.746094 271.59375 " fill-opacity="1" fill-rule="evenodd"/><path fill="#fffeb3" d="M 251.515625 293.449219 C 251.457031 284.167969 249.992188 275.261719 247.339844 266.976562 C 239.941406 265.78125 232.554688 264.785156 225.179688 263.976562 C 227.375 273.113281 228.601562 283.054688 228.644531 293.449219 Z M 251.515625 293.449219 " fill-opacity="1" fill-rule="evenodd"/><path fill="#a1211d" d="M 227.511719 293.449219 C 227.46875 282.992188 226.222656 273.003906 223.984375 263.847656 C 216.847656 263.089844 209.71875 262.503906 202.605469 262.097656 C 203.890625 271.742188 204.617188 282.332031 204.640625 293.449219 Z M 227.511719 293.449219 " fill-opacity="1" fill-rule="evenodd"/><path fill="#a1211d" d="M 203.503906 293.449219 C 203.480469 282.300781 202.753906 271.683594 201.453125 262.035156 C 193.972656 261.628906 186.503906 261.417969 179.046875 261.398438 L 179.046875 293.449219 Z M 203.503906 293.449219 " fill-opacity="1" fill-rule="evenodd"/><path fill="#fffeb3" d="M 177.917969 293.449219 L 177.917969 261.398438 C 170.433594 261.398438 162.964844 261.597656 155.515625 261.992188 C 154.210938 271.652344 153.480469 282.28125 153.457031 293.449219 Z M 177.917969 293.449219 " fill-opacity="1" fill-rule="evenodd"/><path fill="#a1211d" d="M 152.324219 293.449219 C 152.347656 282.316406 153.074219 271.710938 154.367188 262.050781 C 147.230469 262.445312 140.105469 263.015625 133 263.765625 C 130.75 272.941406 129.496094 282.960938 129.453125 293.449219 Z M 152.324219 293.449219 " fill-opacity="1" fill-rule="evenodd"/><path fill="#fffeb3" d="M 128.320312 293.449219 C 128.363281 283.019531 129.59375 273.050781 131.804688 263.890625 C 124.410156 264.6875 117.027344 265.675781 109.664062 266.851562 C 106.988281 275.171875 105.503906 284.125 105.445312 293.449219 Z M 128.320312 293.449219 " fill-opacity="1" fill-rule="evenodd"/><path fill="#a1211d" d="M 104.3125 293.449219 C 104.371094 284.210938 105.8125 275.328125 108.414062 267.054688 C 100.679688 268.3125 92.960938 269.773438 85.269531 271.445312 C 82.835938 278.4375 81.503906 285.816406 81.445312 293.449219 Z M 104.3125 293.449219 " fill-opacity="1" fill-rule="evenodd"/><path fill="#a1211d" d="M 104.3125 294.582031 L 81.445312 294.582031 C 81.5 301.378906 82.558594 307.976562 84.507812 314.273438 C 92.222656 315.960938 99.964844 317.441406 107.734375 318.710938 C 105.558594 311.089844 104.367188 302.984375 104.3125 294.582031 Z M 104.3125 294.582031 " fill-opacity="1" fill-rule="evenodd"/><path fill="#fffeb3" d="M 105.445312 294.582031 C 105.5 303.066406 106.730469 311.238281 108.964844 318.910156 C 116.382812 320.105469 123.828125 321.105469 131.289062 321.910156 C 129.402344 313.371094 128.359375 304.175781 128.320312 294.582031 Z M 105.445312 294.582031 " fill-opacity="1" fill-rule="evenodd"/><path fill="#fffeb3" d="M 129.453125 294.582031 C 129.492188 304.230469 130.554688 313.476562 132.476562 322.039062 C 139.660156 322.796875 146.863281 323.378906 154.082031 323.777344 C 152.96875 314.71875 152.347656 304.878906 152.324219 294.582031 Z M 129.453125 294.582031 " fill-opacity="1" fill-rule="evenodd"/><path fill="#a1211d" d="M 153.457031 294.582031 C 153.480469 304.910156 154.105469 314.773438 155.230469 323.839844 C 162.773438 324.238281 170.339844 324.441406 177.917969 324.449219 L 177.917969 294.582031 Z M 153.457031 294.582031 " fill-opacity="1" fill-rule="evenodd"/><path fill="#fffeb3" d="M 179.046875 294.582031 L 179.046875 324.445312 C 186.597656 324.429688 194.164062 324.21875 201.738281 323.808594 C 202.859375 314.753906 203.484375 304.894531 203.503906 294.582031 Z M 179.046875 294.582031 " fill-opacity="1" fill-rule="evenodd"/><path fill="#a1211d" d="M 204.640625 294.582031 C 204.617188 304.863281 203.996094 314.695312 202.886719 323.746094 C 210.082031 323.335938 217.285156 322.75 224.503906 321.984375 C 226.414062 313.433594 227.472656 304.207031 227.511719 294.582031 Z M 204.640625 294.582031 " fill-opacity="1" fill-rule="evenodd"/><path fill="#a1211d" d="M 228.644531 294.582031 C 228.605469 304.148438 227.566406 313.332031 225.6875 321.855469 C 233.125 321.042969 240.566406 320.039062 248.015625 318.84375 C 250.242188 311.191406 251.464844 303.042969 251.515625 294.582031 Z M 228.644531 294.582031 " fill-opacity="1" fill-rule="evenodd"/><path fill="#a1211d" d="M 252.648438 294.582031 C 252.597656 302.960938 251.410156 311.039062 249.25 318.640625 C 256.988281 317.375 264.734375 315.902344 272.476562 314.21875 C 274.410156 307.933594 275.464844 301.355469 275.519531 294.582031 Z M 252.648438 294.582031 " fill-opacity="1" fill-rule="evenodd"/><path fill="#fffeb3" d="M 272.078125 315.457031 C 264.351562 317.128906 256.621094 318.59375 248.902344 319.84375 C 246.503906 327.835938 243.027344 335.285156 238.664062 341.976562 C 245.613281 340.988281 252.570312 339.839844 259.542969 338.511719 C 265.082031 331.511719 269.351562 323.75 272.078125 315.457031 Z M 272.078125 315.457031 " fill-opacity="1" fill-rule="evenodd"/><path fill="#a1211d" d="M 237.171875 342.183594 C 241.640625 335.515625 245.203125 328.066406 247.65625 320.046875 C 240.242188 321.226562 232.828125 322.21875 225.425781 323.019531 C 223.632812 330.777344 221.144531 337.972656 218.089844 344.398438 C 224.441406 343.804688 230.800781 343.066406 237.171875 342.183594 Z M 237.171875 342.183594 " fill-opacity="1" fill-rule="evenodd"/><path fill="#fffeb3" d="M 216.777344 344.519531 C 219.882812 338.117188 222.414062 330.921875 224.234375 323.144531 C 217.0625 323.90625 209.898438 324.484375 202.742188 324.886719 C 201.769531 332.484375 200.441406 339.511719 198.832031 345.773438 C 204.804688 345.480469 210.785156 345.0625 216.777344 344.519531 Z M 216.777344 344.519531 " fill-opacity="1" fill-rule="evenodd"/><path fill="#a1211d" d="M 197.648438 345.828125 C 199.273438 339.589844 200.609375 332.558594 201.59375 324.949219 C 194.066406 325.351562 186.550781 325.558594 179.046875 325.574219 L 179.046875 346.28125 C 185.238281 346.265625 191.4375 346.113281 197.648438 345.828125 Z M 197.648438 345.828125 " fill-opacity="1" fill-rule="evenodd"/><path fill="#a1211d" d="M 177.917969 346.285156 L 177.917969 325.578125 C 170.386719 325.570312 162.871094 325.371094 155.375 324.976562 C 156.359375 332.601562 157.699219 339.636719 159.328125 345.882812 C 165.515625 346.152344 171.710938 346.285156 177.917969 346.285156 Z M 177.917969 346.285156 " fill-opacity="1" fill-rule="evenodd"/><path fill="#fffeb3" d="M 158.144531 345.832031 C 156.53125 339.566406 155.203125 332.53125 154.226562 324.917969 C 147.046875 324.523438 139.886719 323.949219 132.742188 323.203125 C 134.570312 331 137.113281 338.214844 140.238281 344.628906 C 146.199219 345.152344 152.167969 345.554688 158.144531 345.832031 Z M 158.144531 345.832031 " fill-opacity="1" fill-rule="evenodd"/><path fill="#a1211d" d="M 138.929688 344.511719 C 135.851562 338.070312 133.351562 330.859375 131.554688 323.078125 C 124.121094 322.277344 116.710938 321.289062 109.328125 320.113281 C 111.804688 328.175781 115.398438 335.664062 119.90625 342.355469 C 126.234375 343.210938 132.574219 343.933594 138.929688 344.511719 Z M 138.929688 344.511719 " fill-opacity="1" fill-rule="evenodd"/><path fill="#fffeb3" d="M 118.414062 342.148438 C 114.007812 335.433594 110.5 327.949219 108.085938 319.914062 C 100.328125 318.65625 92.605469 317.191406 84.90625 315.519531 C 87.660156 323.882812 91.988281 331.703125 97.605469 338.746094 C 104.53125 340.046875 111.464844 341.179688 118.414062 342.148438 Z M 118.414062 342.148438 " fill-opacity="1" fill-rule="evenodd"/><path fill="#a1211d" d="M 119.253906 343.402344 C 112.394531 342.46875 105.542969 341.363281 98.707031 340.101562 C 102.015625 344.074219 105.738281 347.785156 109.824219 351.199219 C 112.519531 353.445312 115.371094 355.566406 118.371094 357.539062 C 123.460938 358.25 128.5625 358.867188 133.667969 359.394531 C 130.96875 357.128906 128.414062 354.65625 126.019531 352.011719 C 123.589844 349.320312 121.328125 346.445312 119.253906 343.402344 Z M 119.253906 343.402344 " fill-opacity="1" fill-rule="evenodd"/><path fill="#fffeb3" d="M 120.765625 343.609375 C 122.648438 346.300781 124.6875 348.847656 126.851562 351.253906 C 129.59375 354.285156 132.550781 357.078125 135.695312 359.601562 C 140.207031 360.042969 144.726562 360.421875 149.25 360.726562 C 146.996094 358.074219 144.878906 355.132812 142.929688 351.925781 C 141.726562 349.945312 140.582031 347.867188 139.503906 345.699219 C 133.25 345.136719 127.003906 344.4375 120.765625 343.609375 Z M 120.765625 343.609375 " fill-opacity="1" fill-rule="evenodd"/><path fill="#a1211d" d="M 143.894531 351.335938 C 146.027344 354.839844 148.347656 358.015625 150.835938 360.828125 C 155.050781 361.09375 159.265625 361.296875 163.492188 361.4375 C 162.183594 358.578125 160.960938 355.347656 159.84375 351.800781 C 159.359375 350.25 158.894531 348.640625 158.445312 346.972656 C 152.566406 346.707031 146.691406 346.320312 140.828125 345.8125 C 141.796875 347.730469 142.820312 349.574219 143.894531 351.335938 Z M 143.894531 351.335938 " fill-opacity="1" fill-rule="evenodd"/><path fill="#a1211d" d="M 160.925781 351.464844 C 162.09375 355.1875 163.371094 358.542969 164.742188 361.480469 C 169.128906 361.613281 173.519531 361.683594 177.917969 361.683594 L 177.917969 347.414062 C 171.8125 347.414062 165.71875 347.285156 159.632812 347.023438 C 160.046875 348.554688 160.476562 350.035156 160.925781 351.464844 Z M 160.925781 351.464844 " fill-opacity="1" fill-rule="evenodd"/><path fill="#a1211d" d="M 179.046875 347.410156 L 179.046875 361.679688 C 183.441406 361.667969 187.835938 361.589844 192.238281 361.4375 C 193.601562 358.511719 194.875 355.167969 196.035156 351.464844 C 196.492188 350.019531 196.929688 348.519531 197.34375 346.972656 C 191.238281 347.25 185.140625 347.394531 179.046875 347.410156 Z M 179.046875 347.410156 " fill-opacity="1" fill-rule="evenodd"/><path fill="#a1211d" d="M 197.117188 351.800781 C 196.007812 355.332031 194.796875 358.546875 193.488281 361.394531 C 197.722656 361.242188 201.960938 361.027344 206.203125 360.746094 C 208.660156 357.953125 210.960938 354.804688 213.070312 351.335938 C 214.164062 349.542969 215.203125 347.664062 216.191406 345.703125 C 210.296875 346.230469 204.410156 346.632812 198.53125 346.917969 C 198.082031 348.601562 197.609375 350.234375 197.117188 351.800781 Z M 197.117188 351.800781 " fill-opacity="1" fill-rule="evenodd"/><path fill="#a1211d" d="M 217.511719 345.585938 C 216.421875 347.796875 215.257812 349.914062 214.03125 351.925781 C 212.101562 355.097656 210.011719 358.015625 207.789062 360.636719 C 212.332031 360.316406 216.878906 359.929688 221.433594 359.464844 C 224.515625 356.980469 227.417969 354.234375 230.109375 351.253906 C 232.324219 348.800781 234.398438 346.191406 236.316406 343.441406 C 230.039062 344.296875 223.769531 345.007812 217.511719 345.585938 Z M 217.511719 345.585938 " fill-opacity="1" fill-rule="evenodd"/><path fill="#a1211d" d="M 237.824219 343.234375 C 235.71875 346.335938 233.421875 349.269531 230.945312 352.011719 C 228.601562 354.605469 226.101562 357.027344 223.460938 359.253906 C 228.601562 358.710938 233.746094 358.070312 238.898438 357.335938 C 241.785156 355.421875 244.535156 353.371094 247.136719 351.199219 C 251.304688 347.722656 255.089844 343.929688 258.449219 339.867188 C 251.5625 341.15625 244.691406 342.277344 237.824219 343.234375 Z M 237.824219 343.234375 " fill-opacity="1" fill-rule="evenodd"/><path fill="#a1211d" d="M 236.636719 358.792969 C 231.710938 359.464844 226.792969 360.054688 221.878906 360.558594 C 214.546875 366.417969 206.207031 370.832031 197.207031 373.425781 C 211.785156 371.046875 225.1875 365.953125 236.636719 358.792969 Z M 236.636719 358.792969 " fill-opacity="1" fill-rule="evenodd"/><path fill="#fffeb3" d="M 189.832031 373.957031 C 200.816406 372.058594 210.988281 367.453125 219.773438 360.769531 C 215.421875 361.191406 211.078125 361.546875 206.738281 361.839844 C 201.691406 367.472656 195.976562 371.640625 189.832031 373.957031 Z M 189.832031 373.957031 " fill-opacity="1" fill-rule="evenodd"/><path fill="#a1211d" d="M 183.664062 374.480469 C 191.511719 373.117188 198.808594 368.691406 205.109375 361.945312 C 201.054688 362.203125 197 362.402344 192.953125 362.542969 C 190.191406 368.265625 187.054688 372.382812 183.664062 374.480469 Z M 183.664062 374.480469 " fill-opacity="1" fill-rule="evenodd"/><path fill="#a1211d" d="M 179.046875 374.90625 C 183.660156 374.570312 187.988281 370.097656 191.6875 362.585938 C 187.46875 362.722656 183.257812 362.796875 179.046875 362.804688 Z M 179.046875 374.90625 " fill-opacity="1" fill-rule="evenodd"/><path fill="#a1211d" d="M 177.917969 374.90625 L 177.917969 362.808594 C 173.703125 362.808594 169.496094 362.75 165.292969 362.625 C 168.992188 370.113281 173.3125 374.570312 177.917969 374.90625 Z M 177.917969 374.90625 " fill-opacity="1" fill-rule="evenodd"/><path fill="#fffeb3" d="M 173.296875 374.480469 C 169.917969 372.386719 166.789062 368.28125 164.03125 362.585938 C 159.992188 362.453125 155.957031 362.269531 151.929688 362.023438 C 158.214844 368.726562 165.484375 373.125 173.296875 374.480469 Z M 173.296875 374.480469 " fill-opacity="1" fill-rule="evenodd"/><path fill="#a1211d" d="M 167.128906 373.957031 C 161.015625 371.648438 155.328125 367.511719 150.300781 361.925781 C 145.980469 361.644531 141.667969 361.300781 137.355469 360.894531 C 146.109375 367.511719 156.21875 372.070312 167.128906 373.957031 Z M 167.128906 373.957031 " fill-opacity="1" fill-rule="evenodd"/><path fill="#a1211d" d="M 159.757812 373.425781 C 150.820312 370.851562 142.542969 366.484375 135.253906 360.691406 C 130.375 360.207031 125.503906 359.636719 120.640625 358.988281 C 132.019531 366.042969 145.316406 371.070312 159.757812 373.425781 Z M 159.757812 373.425781 " fill-opacity="1" fill-rule="evenodd"/><path fill="#a1211d" d="M 53.105469 205.121094 C 63.046875 202.914062 67.855469 197.503906 68.894531 179.097656 C 71.25 193.988281 73.570312 201.9375 84.242188 205.566406 C 73.894531 209.746094 71.871094 209.753906 68.351562 228.628906 C 65.390625 213.738281 67.671875 212.6875 53.105469 205.121094 Z M 53.105469 205.121094 " fill-opacity="1" fill-rule="evenodd"/><path fill="#a1211d" d="M 218.882812 183.089844 C 228.828125 180.878906 233.636719 175.46875 234.671875 157.066406 C 237.027344 171.957031 239.347656 179.902344 250.019531 183.535156 C 239.671875 187.714844 237.652344 187.71875 234.128906 206.597656 C 231.167969 191.707031 233.449219 190.65625 218.882812 183.089844 Z M 218.882812 183.089844 " fill-opacity="1" fill-rule="evenodd"/><path fill="#a1211d" d="M 279.808594 268.339844 C 286.058594 266.949219 289.082031 263.550781 289.734375 251.980469 C 291.214844 261.339844 292.671875 266.339844 299.382812 268.617188 C 292.875 271.246094 291.605469 271.25 289.390625 283.117188 C 287.53125 273.757812 288.964844 273.097656 279.808594 268.339844 Z M 279.808594 268.339844 " fill-opacity="1" fill-rule="evenodd"/><g clip-path="url(#841643c36b)"><path fill="#a1211d" d="M 276.972656 336.128906 C 286.921875 333.917969 291.726562 328.507812 292.765625 310.105469 C 295.121094 324.996094 297.441406 332.941406 308.113281 336.574219 C 297.761719 340.753906 295.746094 340.757812 292.222656 359.636719 C 289.261719 344.746094 291.542969 343.695312 276.972656 336.128906 Z M 276.972656 336.128906 " fill-opacity="1" fill-rule="evenodd"/></g><g clip-path="url(#0fe7bf85f9)"><path fill="#a1211d" d="M 37.515625 306.371094 C 47.464844 304.160156 52.269531 298.75 53.308594 280.347656 C 55.664062 295.238281 57.980469 303.1875 68.65625 306.816406 C 58.304688 310.996094 56.289062 311 52.765625 329.878906 C 49.804688 314.988281 52.085938 313.9375 37.515625 306.371094 Z M 37.515625 306.371094 " fill-opacity="1" fill-rule="evenodd"/></g><g fill="#a1211d" fill-opacity="1"><g transform="translate(230.165922, 184.293621)"><g><path d="M 4 0 L 3.09375 0 L 3.09375 -5.828125 C 3.09375 -6.316406 3.109375 -6.78125 3.140625 -7.21875 C 3.066406 -7.132812 2.976562 -7.050781 2.875 -6.96875 C 2.78125 -6.882812 2.335938 -6.519531 1.546875 -5.875 L 1.046875 -6.515625 L 3.21875 -8.1875 L 4 -8.1875 Z M 4 0 "/></g></g></g></svg>