<svg xmlns="http://www.w3.org/2000/svg" xmlns:xlink="http://www.w3.org/1999/xlink" width="1920" zoomAndPan="magnify" viewBox="0 0 1440 809.999993" height="1080" preserveAspectRatio="xMidYMid meet" version="1.0"><defs><clipPath id="b9afd9ca58"><path d="M 650.339844 355 L 789.839844 355 L 789.839844 492.25 L 650.339844 492.25 Z M 650.339844 355 " clip-rule="nonzero"/></clipPath></defs><path fill="#52959e" d="M 763 376.699219 C 778.300781 388.292969 788.179688 406.660156 788.179688 427.335938 C 788.179688 462.402344 759.753906 490.832031 724.683594 490.832031 C 707.800781 490.832031 692.453125 484.242188 681.082031 473.492188 C 691.730469 481.5625 705.007812 486.355469 719.398438 486.355469 C 754.464844 486.355469 782.894531 457.925781 782.894531 422.855469 C 782.894531 404.675781 775.25 388.273438 763 376.699219 Z M 763 376.699219 " fill-opacity="1" fill-rule="nonzero"/><path fill="#a1211d" d="M 673.683594 466.925781 C 660.304688 455.414062 651.832031 438.359375 651.832031 419.324219 C 651.832031 384.660156 679.933594 356.550781 714.601562 356.550781 C 726.824219 356.550781 738.234375 360.046875 747.878906 366.089844 C 750.683594 367.847656 753.339844 369.820312 755.824219 371.984375 C 769.027344 383.492188 777.371094 400.433594 777.371094 419.324219 C 777.371094 453.988281 749.269531 482.09375 714.601562 482.09375 C 700.878906 482.09375 688.1875 477.691406 677.859375 470.222656 C 676.421875 469.183594 675.027344 468.082031 673.683594 466.925781 Z M 673.683594 466.925781 " fill-opacity="1" fill-rule="evenodd"/><path fill="#edebe9" d="M 747.878906 366.089844 C 753.4375 368.882812 758.523438 372.46875 763 376.699219 C 775.25 388.273438 782.894531 404.675781 782.894531 422.859375 C 782.894531 457.925781 754.46875 486.355469 719.398438 486.355469 C 705.007812 486.355469 691.730469 481.566406 681.082031 473.496094 C 678.449219 471.5 675.976562 469.304688 673.683594 466.925781 C 675.027344 468.082031 676.421875 469.183594 677.859375 470.222656 C 688.1875 477.691406 700.878906 482.09375 714.601562 482.09375 C 749.269531 482.09375 777.371094 453.988281 777.371094 419.324219 C 777.371094 400.433594 769.027344 383.492188 755.824219 371.984375 C 753.339844 369.820312 750.683594 367.847656 747.878906 366.089844 Z M 747.878906 366.089844 " fill-opacity="1" fill-rule="evenodd"/><path fill="#ffffff" d="M 730.953125 449.660156 C 726.625 451.984375 721.726562 453.410156 716.5 453.683594 C 697.546875 454.664062 681.363281 440.070312 680.378906 421.113281 C 679.398438 402.160156 693.992188 385.976562 712.945312 384.996094 C 731.898438 384.015625 748.085938 398.605469 749.066406 417.558594 C 749.390625 423.847656 748.003906 429.828125 745.3125 435.058594 L 748.707031 452.078125 Z M 730.953125 449.660156 " fill-opacity="1" fill-rule="evenodd"/><g clip-path="url(#b9afd9ca58)"><path fill="#b5447e" d="M 672.566406 467.902344 C 658.960938 456.121094 650.347656 438.71875 650.347656 419.324219 C 650.347656 383.863281 679.136719 355.070312 714.601562 355.070312 C 727.042969 355.070312 738.664062 358.617188 748.507812 364.75 C 754.183594 367.597656 759.382812 371.253906 763.957031 375.5625 C 779.578125 387.433594 789.664062 406.207031 789.664062 427.335938 C 789.664062 463.222656 760.570312 492.3125 724.683594 492.3125 C 707.4375 492.3125 691.757812 485.59375 680.125 474.628906 C 677.433594 472.585938 674.90625 470.335938 672.566406 467.902344 Z M 714.859375 358.035156 C 714.773438 358.035156 714.6875 358.035156 714.601562 358.035156 C 680.773438 358.035156 653.3125 385.496094 653.3125 419.324219 C 653.3125 425.738281 654.300781 431.925781 656.132812 437.738281 C 658.632812 445.671875 662.703125 452.910156 667.980469 459.089844 C 670.019531 461.476562 672.238281 463.707031 674.613281 465.757812 C 675.964844 466.917969 677.363281 468.023438 678.8125 469.070312 C 688.882812 476.332031 701.246094 480.609375 714.601562 480.609375 C 748.425781 480.609375 775.886719 453.148438 775.886719 419.324219 C 775.886719 400.925781 767.765625 384.414062 754.914062 373.175781 C 752.460938 371.03125 749.835938 369.078125 747.0625 367.339844 C 744.285156 365.953125 741.382812 364.765625 738.386719 363.804688 C 739.894531 364.128906 741.386719 364.503906 742.855469 364.929688 C 734.46875 360.5625 724.949219 358.078125 714.859375 358.035156 Z M 705.695312 486.390625 C 711.679688 488.3125 718.0625 489.351562 724.683594 489.351562 C 758.933594 489.351562 786.699219 461.585938 786.699219 427.335938 C 786.699219 417.113281 784.226562 407.46875 779.84375 398.964844 C 782.769531 406.363281 784.378906 414.421875 784.378906 422.859375 C 784.378906 458.746094 755.285156 487.835938 719.398438 487.835938 C 714.699219 487.835938 710.113281 487.335938 705.695312 486.390625 Z M 770.730469 388.050781 C 775.902344 397.308594 778.851562 407.972656 778.851562 419.324219 C 778.851562 454.785156 750.0625 483.574219 714.601562 483.574219 C 710.054688 483.574219 705.621094 483.101562 701.34375 482.203125 C 707.054688 483.9375 713.117188 484.871094 719.398438 484.871094 C 753.648438 484.871094 781.414062 457.109375 781.414062 422.859375 C 781.414062 409.957031 777.472656 397.972656 770.730469 388.050781 Z M 770.730469 388.050781 " fill-opacity="1" fill-rule="evenodd"/></g></svg>