<svg xmlns="http://www.w3.org/2000/svg" xmlns:xlink="http://www.w3.org/1999/xlink" width="1920" zoomAndPan="magnify" viewBox="0 0 1440 809.999993" height="1080" preserveAspectRatio="xMidYMid meet" version="1.0"><defs><clipPath id="eecc858e38"><path d="M 660.894531 298.1875 L 779.394531 298.1875 L 779.394531 428.6875 L 660.894531 428.6875 Z M 660.894531 298.1875 " clip-rule="nonzero"/></clipPath><clipPath id="5464323fac"><path d="M 660.894531 357 L 673 357 L 673 370 L 660.894531 370 Z M 660.894531 357 " clip-rule="nonzero"/></clipPath><clipPath id="33c7fd9aae"><path d="M 720 298.1875 L 779.394531 298.1875 L 779.394531 322 L 720 322 Z M 720 298.1875 " clip-rule="nonzero"/></clipPath><clipPath id="cf4c59d719"><path d="M 720 405 L 779.394531 405 L 779.394531 428.6875 L 720 428.6875 Z M 720 405 " clip-rule="nonzero"/></clipPath></defs><g clip-path="url(#eecc858e38)"><path fill="#fee3c0" d="M 731.878906 357.605469 L 731.878906 345.726562 L 743.757812 345.726562 L 743.757812 333.847656 L 755.636719 333.847656 L 755.636719 321.96875 L 767.515625 321.96875 L 767.515625 310.089844 L 779.394531 310.089844 L 779.394531 298.210938 L 720 298.210938 L 720 310.089844 L 708.121094 310.089844 L 708.121094 321.96875 L 696.242188 321.96875 L 696.242188 333.847656 L 684.359375 333.847656 L 684.359375 345.726562 L 672.480469 345.726562 L 672.480469 357.605469 L 660.601562 357.605469 L 660.601562 369.488281 L 672.480469 369.488281 L 672.480469 381.367188 L 684.359375 381.367188 L 684.359375 393.246094 L 696.242188 393.246094 L 696.242188 405.125 L 708.121094 405.125 L 708.121094 417.003906 L 720 417.003906 L 720 428.882812 L 779.394531 428.882812 L 779.394531 417.003906 L 767.515625 417.003906 L 767.515625 405.125 L 755.636719 405.125 L 755.636719 393.246094 L 743.757812 393.246094 L 743.757812 381.367188 L 731.878906 381.367188 L 731.878906 369.488281 L 720 369.488281 L 720 357.605469 Z M 731.878906 357.605469 " fill-opacity="1" fill-rule="nonzero"/></g><path fill="#fee3c0" d="M 684.359375 357.605469 L 684.359375 369.488281 L 672.480469 369.488281 L 672.480469 357.605469 Z M 684.359375 357.605469 " fill-opacity="1" fill-rule="nonzero"/><path fill="#fee3c0" d="M 696.242188 369.488281 L 696.242188 381.367188 L 684.359375 381.367188 L 684.359375 369.488281 Z M 696.242188 369.488281 " fill-opacity="1" fill-rule="nonzero"/><path fill="#fee3c0" d="M 755.636719 310.089844 L 755.636719 321.96875 L 743.757812 321.96875 L 743.757812 310.089844 Z M 755.636719 310.089844 " fill-opacity="1" fill-rule="nonzero"/><g clip-path="url(#5464323fac)"><path fill="#0e0c3e" d="M 672.480469 357.605469 L 672.480469 369.488281 L 660.601562 369.488281 L 660.601562 357.605469 Z M 672.480469 357.605469 " fill-opacity="1" fill-rule="nonzero"/></g><path fill="#0e0c3e" d="M 684.359375 369.488281 L 684.359375 381.367188 L 672.480469 381.367188 L 672.480469 369.488281 Z M 684.359375 369.488281 " fill-opacity="1" fill-rule="nonzero"/><path fill="#0e0c3e" d="M 684.359375 345.726562 L 684.359375 357.605469 L 672.480469 357.605469 L 672.480469 345.726562 Z M 684.359375 345.726562 " fill-opacity="1" fill-rule="nonzero"/><path fill="#0e0c3e" d="M 696.242188 381.367188 L 696.242188 393.246094 L 684.359375 393.246094 L 684.359375 381.367188 Z M 696.242188 381.367188 " fill-opacity="1" fill-rule="nonzero"/><path fill="#0e0c3e" d="M 696.242188 333.847656 L 696.242188 345.726562 L 684.359375 345.726562 L 684.359375 333.847656 Z M 696.242188 333.847656 " fill-opacity="1" fill-rule="nonzero"/><path fill="#0e0c3e" d="M 708.121094 393.246094 L 708.121094 405.125 L 696.238281 405.125 L 696.238281 393.246094 Z M 708.121094 393.246094 " fill-opacity="1" fill-rule="nonzero"/><path fill="#0e0c3e" d="M 708.121094 321.96875 L 708.121094 333.847656 L 696.238281 333.847656 L 696.238281 321.96875 Z M 708.121094 321.96875 " fill-opacity="1" fill-rule="nonzero"/><path fill="#0e0c3e" d="M 720 405.125 L 720 417.003906 L 708.121094 417.003906 L 708.121094 405.125 Z M 720 405.125 " fill-opacity="1" fill-rule="nonzero"/><path fill="#0e0c3e" d="M 720 357.605469 L 720 369.488281 L 708.121094 369.488281 L 708.121094 357.605469 Z M 720 357.605469 " fill-opacity="1" fill-rule="nonzero"/><path fill="#0e0c3e" d="M 720 310.089844 L 720 321.96875 L 708.121094 321.96875 L 708.121094 310.089844 Z M 720 310.089844 " fill-opacity="1" fill-rule="nonzero"/><path fill="#0e0c3e" d="M 731.878906 369.488281 L 731.878906 381.367188 L 720 381.367188 L 720 369.488281 Z M 731.878906 369.488281 " fill-opacity="1" fill-rule="nonzero"/><path fill="#0e0c3e" d="M 731.878906 345.726562 L 731.878906 357.605469 L 720 357.605469 L 720 345.726562 Z M 731.878906 345.726562 " fill-opacity="1" fill-rule="nonzero"/><path fill="#0e0c3e" d="M 743.757812 381.367188 L 743.757812 393.246094 L 731.878906 393.246094 L 731.878906 381.367188 Z M 743.757812 381.367188 " fill-opacity="1" fill-rule="nonzero"/><path fill="#0e0c3e" d="M 743.757812 333.847656 L 743.757812 345.726562 L 731.878906 345.726562 L 731.878906 333.847656 Z M 743.757812 333.847656 " fill-opacity="1" fill-rule="nonzero"/><g clip-path="url(#33c7fd9aae)"><path fill="#0e0c3e" d="M 743.757812 310.089844 L 755.636719 310.089844 L 755.636719 321.96875 L 767.515625 321.96875 L 767.515625 310.089844 L 779.394531 310.089844 L 779.394531 298.210938 L 720 298.210938 L 720 310.089844 Z M 743.757812 310.089844 " fill-opacity="1" fill-rule="nonzero"/></g><path fill="#0e0c3e" d="M 755.636719 393.246094 L 755.636719 405.125 L 743.757812 405.125 L 743.757812 393.246094 Z M 755.636719 393.246094 " fill-opacity="1" fill-rule="nonzero"/><path fill="#0e0c3e" d="M 755.636719 321.96875 L 755.636719 333.847656 L 743.757812 333.847656 L 743.757812 321.96875 Z M 755.636719 321.96875 " fill-opacity="1" fill-rule="nonzero"/><g clip-path="url(#cf4c59d719)"><path fill="#0e0c3e" d="M 779.394531 417.003906 L 767.515625 417.003906 L 767.515625 405.125 L 755.636719 405.125 L 755.636719 417.003906 L 720 417.003906 L 720 428.882812 L 779.394531 428.882812 Z M 779.394531 417.003906 " fill-opacity="1" fill-rule="nonzero"/></g></svg>