<svg xmlns="http://www.w3.org/2000/svg" xmlns:xlink="http://www.w3.org/1999/xlink" width="1920" zoomAndPan="magnify" viewBox="0 0 1440 809.999993" height="1080" preserveAspectRatio="xMidYMid meet" version="1.0"><defs><clipPath id="a811d1dce5"><path d="M 633 322.277344 L 816.660156 322.277344 L 816.660156 437.027344 L 633 437.027344 Z M 633 322.277344 " clip-rule="nonzero"/></clipPath><clipPath id="1da7e99923"><path d="M 765 322.277344 L 816.660156 322.277344 L 816.660156 374 L 765 374 Z M 765 322.277344 " clip-rule="nonzero"/></clipPath><clipPath id="68a96dfbf8"><path d="M 623.160156 400 L 627 400 L 627 419 L 623.160156 419 Z M 623.160156 400 " clip-rule="nonzero"/></clipPath></defs><g clip-path="url(#a811d1dce5)"><path fill="#000000" d="M 791.242188 322.320312 C 798.28125 322.320312 804.660156 325.125 809.28125 329.746094 C 813.902344 334.367188 816.707031 340.746094 816.707031 347.785156 C 816.707031 354.828125 813.902344 361.152344 809.28125 365.769531 C 808.511719 366.539062 807.6875 367.257812 806.863281 367.917969 L 797.953125 374.792969 C 796.632812 375.835938 795.148438 376.769531 793.609375 377.539062 L 793.609375 425.886719 C 793.609375 427.039062 793.113281 428.140625 792.34375 428.910156 C 792.234375 429.019531 792.066406 429.128906 791.957031 429.242188 L 783.046875 436.171875 C 782.332031 436.71875 781.398438 437.050781 780.40625 437.050781 L 637.351562 437.050781 C 636.199219 437.050781 635.152344 436.554688 634.328125 435.785156 C 633.558594 435.015625 633.117188 433.96875 633.117188 432.761719 L 633.117188 354.992188 C 633.117188 353.78125 633.558594 352.734375 634.328125 351.964844 C 634.492188 351.800781 634.601562 351.691406 634.769531 351.582031 L 643.566406 344.761719 L 643.621094 344.707031 L 643.675781 344.707031 C 644.390625 344.101562 645.273438 343.769531 646.261719 343.769531 L 759.34375 343.769531 C 760.605469 341.132812 762.3125 338.710938 764.347656 336.675781 C 765.117188 335.90625 765.941406 335.191406 766.765625 334.53125 L 775.675781 327.65625 C 779.964844 324.300781 785.410156 322.320312 791.242188 322.320312 Z M 791.242188 322.320312 " fill-opacity="1" fill-rule="evenodd"/></g><path fill="#d0c1aa" d="M 646.261719 345.253906 L 789.316406 345.253906 C 790.855469 345.253906 792.121094 346.519531 792.121094 348.0625 L 792.121094 425.886719 C 792.121094 427.425781 790.855469 428.691406 789.316406 428.691406 L 646.261719 428.691406 C 644.722656 428.691406 643.457031 427.425781 643.457031 425.886719 L 643.457031 348.0625 C 643.457031 346.519531 644.722656 345.253906 646.261719 345.253906 Z M 646.261719 345.253906 " fill-opacity="1" fill-rule="evenodd"/><path fill="#000000" d="M 789.316406 430.148438 L 646.261719 430.148438 C 643.914062 430.148438 642 428.234375 642 425.886719 L 642 348.0625 C 642 345.710938 643.914062 343.796875 646.261719 343.796875 L 789.316406 343.796875 C 791.667969 343.796875 793.578125 345.710938 793.578125 348.0625 L 793.578125 425.886719 C 793.578125 428.234375 791.667969 430.148438 789.316406 430.148438 Z M 646.261719 346.710938 C 645.53125 346.710938 644.914062 347.328125 644.914062 348.0625 L 644.914062 425.886719 C 644.914062 426.617188 645.53125 427.234375 646.261719 427.234375 L 789.316406 427.234375 C 790.046875 427.234375 790.664062 426.617188 790.664062 425.886719 L 790.664062 348.0625 C 790.664062 347.328125 790.046875 346.710938 789.316406 346.710938 Z M 646.261719 346.710938 " fill-opacity="1" fill-rule="nonzero"/><path fill="#000000" d="M 717.789062 403.480469 C 716.75 403.480469 715.714844 403.179688 714.90625 402.578125 L 643.195312 348.761719 C 642.945312 348.511719 642.632812 348.199219 642.375 347.765625 L 644.871094 346.265625 C 644.9375 346.371094 645.058594 346.5 645.183594 346.628906 L 716.65625 400.246094 C 717.253906 400.691406 718.402344 400.667969 719.023438 400.195312 L 790.367188 346.621094 C 790.535156 346.507812 790.621094 346.410156 790.707031 346.265625 L 793.207031 347.765625 C 792.894531 348.285156 792.515625 348.6875 792.050781 349 L 720.78125 402.519531 C 719.945312 403.160156 718.863281 403.480469 717.789062 403.480469 Z M 717.789062 403.480469 " fill-opacity="1" fill-rule="nonzero"/><path fill="#000000" d="M 790.789062 427.804688 C 790.6875 427.664062 790.570312 427.523438 790.433594 427.429688 L 738.171875 388.167969 L 739.921875 385.835938 L 792.117188 425.050781 C 792.546875 425.335938 792.871094 425.722656 793.121094 426.054688 Z M 644.789062 427.804688 L 642.457031 426.054688 C 642.660156 425.785156 642.925781 425.511719 643.195312 425.242188 L 643.351562 425.105469 L 695.710938 385.835938 L 697.460938 388.167969 L 645.183594 427.375 C 645.039062 427.519531 644.898438 427.660156 644.789062 427.804688 Z M 644.789062 427.804688 " fill-opacity="1" fill-rule="nonzero"/><path fill="#a1211d" d="M 791.242188 371.765625 C 804.496094 371.765625 815.277344 360.984375 815.277344 347.785156 C 815.277344 334.585938 804.496094 323.75 791.242188 323.75 C 777.988281 323.75 767.261719 334.53125 767.261719 347.785156 C 767.261719 361.039062 778.042969 371.765625 791.242188 371.765625 Z M 791.242188 371.765625 " fill-opacity="1" fill-rule="evenodd"/><g clip-path="url(#1da7e99923)"><path fill="#000000" d="M 791.242188 373.222656 C 777.214844 373.222656 765.804688 361.8125 765.804688 347.785156 C 765.804688 333.761719 777.214844 322.292969 791.242188 322.292969 C 805.269531 322.292969 816.734375 333.730469 816.734375 347.785156 C 816.734375 361.84375 805.300781 373.222656 791.242188 373.222656 Z M 791.242188 325.207031 C 778.824219 325.207031 768.71875 335.335938 768.71875 347.785156 C 768.71875 360.234375 778.824219 370.308594 791.242188 370.308594 C 803.660156 370.308594 813.820312 360.207031 813.820312 347.785156 C 813.820312 335.367188 803.691406 325.207031 791.242188 325.207031 Z M 791.242188 325.207031 " fill-opacity="1" fill-rule="nonzero"/></g><path fill="#ffffff" d="M 788.710938 357.082031 L 793.828125 357.082031 C 794.046875 357.082031 794.210938 357.300781 794.210938 357.519531 L 794.210938 362.03125 C 794.210938 362.25 794.046875 362.46875 793.828125 362.46875 L 788.710938 362.46875 C 788.492188 362.46875 788.328125 362.25 788.328125 362.03125 L 788.328125 357.519531 C 788.328125 357.300781 788.492188 357.082031 788.710938 357.082031 Z M 788.710938 357.082031 " fill-opacity="1" fill-rule="evenodd"/><path fill="#000000" d="M 793.828125 363.929688 L 788.710938 363.929688 C 787.695312 363.929688 786.871094 363.078125 786.871094 362.03125 L 786.871094 357.519531 C 786.871094 356.472656 787.695312 355.625 788.710938 355.625 L 793.828125 355.625 C 794.84375 355.625 795.667969 356.472656 795.667969 357.519531 L 795.667969 362.03125 C 795.667969 363.078125 794.84375 363.929688 793.828125 363.929688 Z M 789.785156 361.015625 L 792.753906 361.015625 L 792.753906 358.539062 L 789.785156 358.539062 Z M 789.785156 361.015625 " fill-opacity="1" fill-rule="nonzero"/><path fill="#ffffff" d="M 787.558594 331.78125 L 794.980469 331.78125 C 795.257812 331.78125 795.3125 332 795.3125 332.222656 L 794.433594 355.15625 C 794.433594 355.429688 794.210938 355.597656 793.9375 355.597656 L 788.601562 355.597656 C 788.328125 355.597656 788.105469 355.429688 788.105469 355.15625 L 787.226562 332.222656 C 787.226562 332 787.28125 331.78125 787.558594 331.78125 Z M 787.558594 331.78125 " fill-opacity="1" fill-rule="evenodd"/><path fill="#000000" d="M 793.9375 357.050781 L 788.601562 357.050781 C 787.507812 357.050781 786.648438 356.21875 786.648438 355.15625 L 785.769531 332.277344 C 785.769531 330.976562 786.667969 330.324219 787.558594 330.324219 L 794.980469 330.324219 C 795.871094 330.324219 796.769531 330.976562 796.769531 332.222656 L 795.886719 355.210938 C 795.890625 356.21875 795.03125 357.050781 793.9375 357.050781 Z M 792.976562 355.078125 C 792.976562 355.105469 792.976562 355.132812 792.976562 355.15625 Z M 789.5625 355.035156 L 789.5625 355.101562 C 789.5625 355.078125 789.5625 355.058594 789.5625 355.035156 Z M 789.527344 354.136719 L 793.015625 354.136719 L 793.816406 333.238281 L 788.722656 333.238281 Z M 789.527344 354.136719 " fill-opacity="1" fill-rule="nonzero"/><path fill="#ffffff" d="M 650.003906 398.851562 C 649.195312 398.851562 648.546875 398.199219 648.546875 397.394531 C 648.546875 396.589844 649.195312 395.910156 650.003906 395.910156 C 650.808594 395.910156 651.460938 396.535156 651.460938 397.339844 L 651.460938 397.394531 C 651.460938 398.199219 650.808594 398.851562 650.003906 398.851562 Z M 650.003906 395.167969 C 649.195312 395.167969 648.546875 394.515625 648.546875 393.710938 L 648.546875 361.976562 C 648.546875 361.171875 649.195312 360.519531 650.003906 360.519531 C 650.808594 360.519531 651.460938 361.171875 651.460938 361.976562 L 651.460938 393.710938 C 651.460938 394.515625 650.808594 395.167969 650.003906 395.167969 Z M 650.003906 395.167969 " fill-opacity="1" fill-rule="nonzero"/><path fill="#ffffff" d="M 771.660156 346.878906 C 770.855469 346.878906 770.203125 346.226562 770.203125 345.417969 C 770.203125 344.613281 770.855469 343.933594 771.660156 343.933594 C 772.464844 343.933594 773.117188 344.558594 773.117188 345.363281 L 773.117188 345.417969 C 773.117188 346.226562 772.464844 346.878906 771.660156 346.878906 Z M 772.707031 342.53125 C 772.53125 342.53125 772.347656 342.5 772.171875 342.433594 C 771.425781 342.136719 771.054688 341.289062 771.351562 340.539062 C 772.789062 336.890625 775.652344 332.921875 778.3125 330.894531 C 778.953125 330.410156 779.871094 330.53125 780.355469 331.171875 C 780.84375 331.8125 780.71875 332.726562 780.082031 333.214844 C 778.15625 334.683594 775.46875 338.035156 774.0625 341.609375 C 773.835938 342.183594 773.289062 342.53125 772.707031 342.53125 Z M 772.707031 342.53125 " fill-opacity="1" fill-rule="nonzero"/><g clip-path="url(#68a96dfbf8)"><path fill="#000000" d="M 624.757812 418.984375 C 623.953125 418.984375 623.300781 418.332031 623.300781 417.527344 L 623.300781 402.015625 C 623.300781 401.210938 623.953125 400.558594 624.757812 400.558594 C 625.5625 400.558594 626.214844 401.210938 626.214844 402.015625 L 626.214844 417.527344 C 626.214844 418.332031 625.5625 418.984375 624.757812 418.984375 Z M 624.757812 418.984375 " fill-opacity="1" fill-rule="nonzero"/></g><path fill="#000000" d="M 628.441406 427.453125 C 627.636719 427.453125 626.984375 426.800781 626.984375 425.996094 L 626.984375 425.722656 C 626.984375 424.914062 627.636719 424.265625 628.441406 424.265625 C 629.246094 424.265625 629.898438 424.914062 629.898438 425.722656 L 629.898438 425.996094 C 629.898438 426.800781 629.246094 427.453125 628.441406 427.453125 Z M 628.441406 423.328125 C 627.636719 423.328125 626.984375 422.675781 626.984375 421.871094 L 626.984375 410.429688 C 626.984375 409.625 627.636719 408.972656 628.441406 408.972656 C 629.246094 408.972656 629.898438 409.625 629.898438 410.429688 L 629.898438 421.871094 C 629.898438 422.675781 629.246094 423.328125 628.441406 423.328125 Z M 628.441406 423.328125 " fill-opacity="1" fill-rule="nonzero"/><path fill="#000000" d="M 797.621094 397.53125 C 796.816406 397.53125 796.164062 396.878906 796.164062 396.074219 C 796.164062 395.269531 796.816406 394.589844 797.621094 394.589844 C 798.425781 394.589844 799.078125 395.214844 799.078125 396.019531 L 799.078125 396.074219 C 799.078125 396.878906 798.425781 397.53125 797.621094 397.53125 Z M 797.621094 394.289062 C 796.816406 394.289062 796.164062 393.636719 796.164062 392.832031 L 796.164062 380.566406 C 796.164062 379.761719 796.816406 379.109375 797.621094 379.109375 C 798.425781 379.109375 799.078125 379.761719 799.078125 380.566406 L 799.078125 392.832031 C 799.078125 393.636719 798.425781 394.289062 797.621094 394.289062 Z M 797.621094 394.289062 " fill-opacity="1" fill-rule="nonzero"/><path fill="#000000" d="M 801.304688 406.003906 C 800.5 406.003906 799.847656 405.351562 799.847656 404.542969 L 799.847656 389.035156 C 799.847656 388.230469 800.5 387.578125 801.304688 387.578125 C 802.113281 387.578125 802.765625 388.230469 802.765625 389.035156 L 802.765625 404.542969 C 802.765625 405.351562 802.113281 406.003906 801.304688 406.003906 Z M 801.304688 406.003906 " fill-opacity="1" fill-rule="nonzero"/></svg>