<svg xmlns="http://www.w3.org/2000/svg" xmlns:xlink="http://www.w3.org/1999/xlink" width="1920" zoomAndPan="magnify" viewBox="0 0 1440 809.999993" height="1080" preserveAspectRatio="xMidYMid meet" version="1.0"><defs><clipPath id="6ebe97bd71"><path d="M 667 374 L 772 374 L 772 495.191406 L 667 495.191406 Z M 667 374 " clip-rule="nonzero"/></clipPath><clipPath id="f870e017b2"><path d="M 711 316 L 783.421875 316 L 783.421875 429 L 711 429 Z M 711 316 " clip-rule="nonzero"/></clipPath></defs><g clip-path="url(#6ebe97bd71)"><path fill="#000000" d="M 723.273438 495.421875 C 721.15625 495.421875 719.242188 494.664062 717.578125 493.167969 C 716.578125 492.269531 715.691406 491.109375 714.964844 489.761719 C 714.722656 489.941406 714.476562 490.113281 714.226562 490.273438 C 710.933594 492.410156 707.542969 492.835938 704.917969 491.441406 C 703.449219 490.660156 702.332031 489.398438 701.585938 487.6875 C 701.179688 486.753906 700.894531 485.683594 700.734375 484.527344 C 698.265625 484.789062 695.84375 483.957031 693.738281 482.089844 C 691.847656 480.414062 690.59375 478.25 690.007812 475.664062 C 689.773438 474.613281 689.65625 473.519531 689.65625 472.40625 C 687.152344 472.242188 683.351562 471.125 681.21875 466.253906 C 680.089844 463.679688 679.820312 461.191406 680.417969 458.859375 C 680.496094 458.554688 680.585938 458.257812 680.6875 457.976562 C 677.703125 456.085938 674.847656 452.558594 673.230469 447.175781 C 672.542969 444.878906 672.441406 443.113281 672.671875 441.757812 C 670.328125 439.375 668.761719 435.945312 668.132812 431.820312 C 667.757812 429.375 667.902344 427.265625 668.554688 425.550781 C 668.90625 424.632812 669.398438 423.832031 670.023438 423.164062 C 669.027344 421.347656 668.339844 419.074219 668.15625 416.335938 C 667.945312 413.175781 668.765625 411.222656 669.855469 410.011719 C 668.632812 408.007812 668.054688 405.625 668.167969 403.011719 C 668.28125 400.496094 669.1875 398.464844 670.78125 397.097656 C 670.054688 395.546875 669.765625 393.882812 669.960938 392.230469 C 670.195312 390.203125 671.230469 388.523438 672.929688 387.363281 C 672.648438 386.644531 672.464844 385.859375 672.390625 385.011719 C 672.070312 381.148438 673.84375 377.757812 677.132812 375.945312 C 679.660156 374.550781 682.457031 374.441406 684.089844 375.671875 C 684.40625 375.910156 684.46875 376.359375 684.230469 376.675781 C 683.992188 376.992188 683.542969 377.054688 683.226562 376.816406 C 682.074219 375.945312 679.804688 376.109375 677.824219 377.199219 C 676.488281 377.933594 673.425781 380.160156 673.820312 384.894531 C 673.871094 385.519531 674.003906 386.109375 674.195312 386.65625 C 674.359375 386.582031 674.523438 386.511719 674.695312 386.445312 C 678.21875 385.066406 683.242188 385.515625 685.445312 387.410156 C 686.324219 388.164062 686.6875 389.113281 686.46875 390.085938 C 686.023438 392.058594 683.898438 393.207031 681.054688 393.007812 C 678.191406 392.8125 675.195312 391.300781 673.574219 388.660156 C 672.515625 389.429688 671.589844 390.605469 671.382812 392.398438 C 671.21875 393.792969 671.460938 395.097656 671.96875 396.273438 C 672.246094 396.117188 672.539062 395.976562 672.847656 395.851562 C 674.53125 395.171875 676.585938 394.996094 678.625 395.363281 C 680.546875 395.703125 682.28125 396.496094 683.378906 397.539062 C 684.542969 398.644531 684.941406 399.964844 684.5 401.257812 C 683.792969 403.308594 681.625 404.191406 678.835938 403.554688 C 676.578125 403.042969 674.226562 401.621094 672.546875 399.746094 C 672.15625 399.308594 671.804688 398.851562 671.496094 398.378906 C 670.335938 399.484375 669.6875 401.074219 669.601562 403.074219 C 669.496094 405.4375 670.035156 407.441406 670.964844 409.0625 C 671.179688 408.921875 671.398438 408.796875 671.609375 408.695312 C 673.125 407.949219 675.09375 407.773438 677.160156 408.195312 C 678.96875 408.5625 680.714844 409.375 681.835938 410.363281 C 682.957031 411.355469 683.382812 412.453125 683.039062 413.457031 C 682.457031 415.132812 680.300781 415.875 677.539062 415.347656 C 675.140625 414.890625 672.796875 413.5625 671.117188 411.707031 C 670.976562 411.546875 670.839844 411.386719 670.707031 411.222656 C 669.816406 412.375 669.441406 414.054688 669.585938 416.238281 C 669.746094 418.621094 670.316406 420.605469 671.136719 422.203125 C 671.253906 422.125 671.375 422.046875 671.5 421.96875 C 674.59375 420.089844 678.9375 420.699219 681.1875 422.34375 C 682.460938 423.273438 683.023438 424.5 682.730469 425.707031 C 682.285156 427.5625 680.582031 428.691406 678.316406 428.691406 C 678.117188 428.691406 677.914062 428.683594 677.710938 428.667969 C 675.296875 428.460938 672.703125 427.066406 670.820312 424.433594 C 669.511719 426.050781 669.074219 428.488281 669.546875 431.601562 C 670.152344 435.550781 671.527344 438.308594 673.15625 440.183594 C 673.554688 439.332031 674.109375 438.730469 674.671875 438.308594 C 677.003906 436.542969 680.75 436.984375 683.023438 438.433594 C 684.570312 439.417969 685.296875 440.75 685.007812 442.089844 C 684.597656 444.003906 682.550781 445.238281 679.914062 445.160156 C 677.894531 445.101562 675.800781 444.300781 673.996094 442.925781 C 673.964844 444.023438 674.167969 445.308594 674.605469 446.765625 C 675.710938 450.449219 677.539062 453.496094 679.890625 455.574219 C 680.339844 455.972656 680.808594 456.332031 681.28125 456.644531 C 681.972656 455.363281 682.851562 454.417969 683.574219 453.78125 C 685.929688 451.714844 688.953125 450.90625 690.609375 451.902344 C 691.214844 452.269531 692.15625 453.1875 691.660156 455.253906 C 691.023438 457.929688 688.972656 459.574219 686.175781 459.65625 C 684.863281 459.695312 683.414062 459.375 681.957031 458.679688 C 681.359375 460.46875 681.269531 462.804688 682.53125 465.679688 C 684.355469 469.847656 687.578125 470.824219 689.722656 470.976562 C 689.792969 470.207031 689.914062 469.433594 690.09375 468.667969 C 690.996094 464.800781 693.167969 461.777344 695.496094 461.140625 C 696.457031 460.878906 697.910156 460.878906 699.347656 462.386719 C 700.617188 463.714844 700.929688 465.355469 700.230469 467.007812 C 699.015625 469.867188 695.082031 472.160156 691.082031 472.40625 C 691.074219 475.847656 692.332031 478.925781 694.6875 481.015625 C 696.804688 482.894531 698.886719 483.292969 700.609375 483.101562 C 700.597656 482.90625 700.59375 482.714844 700.59375 482.519531 C 700.574219 480.28125 700.984375 477.933594 701.753906 475.917969 C 702.558594 473.804688 703.683594 472.261719 704.925781 471.574219 C 706.015625 470.96875 707.160156 471.011719 708.234375 471.695312 C 709.542969 472.527344 710.175781 473.933594 710.007812 475.65625 C 709.695312 478.902344 706.675781 482.535156 703.128906 483.929688 C 702.800781 484.058594 702.472656 484.167969 702.140625 484.257812 C 702.414062 486.363281 703.246094 488.929688 705.589844 490.175781 C 707.742188 491.320312 710.605469 490.917969 713.445312 489.074219 C 713.75 488.875 714.046875 488.664062 714.335938 488.445312 C 714.28125 488.324219 714.230469 488.199219 714.183594 488.074219 C 713.390625 486.078125 712.957031 483.902344 712.96875 481.941406 C 712.980469 479.863281 713.503906 478.230469 714.4375 477.351562 C 714.972656 476.84375 716.15625 476.125 718.054688 477.007812 C 719.59375 477.722656 720.464844 478.949219 720.578125 480.558594 C 720.6875 482.089844 720.066406 483.9375 718.835938 485.765625 C 718.089844 486.871094 717.152344 487.925781 716.105469 488.84375 C 717.21875 491 719.453125 493.988281 723.273438 493.988281 C 726.644531 493.988281 729.28125 492.277344 731.042969 490.019531 C 728.304688 486.714844 726.9375 481.9375 728.148438 479.460938 C 728.71875 478.300781 729.785156 477.753906 731.152344 477.917969 C 733.734375 478.234375 735.210938 480.460938 735.011719 483.730469 C 734.886719 485.792969 734.109375 488 732.871094 489.90625 C 734.796875 491.835938 737.980469 493.683594 742.285156 491.621094 C 745.734375 489.972656 747.21875 487.476562 747.835938 485.375 C 744.257812 484.066406 741.121094 481.71875 740.253906 479.34375 C 739.707031 477.847656 740.082031 476.425781 741.304688 475.335938 C 742.660156 474.132812 744.207031 473.820312 745.660156 474.460938 C 747.972656 475.472656 749.628906 478.699219 749.6875 482.296875 C 749.699219 483.015625 749.644531 483.726562 749.53125 484.421875 C 750.742188 484.765625 751.949219 484.964844 753.074219 484.996094 C 755.25 485.054688 758.105469 484.511719 759.347656 481.597656 C 760.496094 478.910156 760.3125 476.464844 759.8125 474.640625 C 755.410156 475.359375 750.367188 473.953125 748.808594 471.515625 C 748.085938 470.382812 748.152344 469.128906 749 467.976562 C 750.558594 465.855469 753.171875 465.472656 755.816406 466.984375 C 757.914062 468.179688 759.757812 470.414062 760.761719 472.96875 C 762.898438 472.375 765.886719 470.835938 766.566406 466.820312 C 767.058594 463.902344 766.570312 461.558594 765.835938 459.816406 C 765.300781 460.183594 764.773438 460.449219 764.320312 460.644531 C 761.027344 462.050781 756.808594 461.585938 754.722656 459.589844 C 753.511719 458.433594 753.175781 456.917969 753.773438 455.324219 C 754.71875 452.804688 757.089844 451.722656 759.964844 452.496094 C 762.308594 453.128906 764.617188 454.933594 766.144531 457.324219 C 766.1875 457.394531 766.230469 457.460938 766.273438 457.535156 C 767.230469 456.449219 768 454.84375 768.003906 452.492188 C 768.007812 449.710938 767.261719 447.292969 766.136719 445.335938 C 764.667969 445.863281 762.96875 446.09375 761.242188 445.996094 C 759.132812 445.871094 757.261719 445.261719 756.101562 444.316406 C 754.976562 443.398438 754.546875 442.199219 754.890625 440.9375 C 755.410156 439.035156 757.046875 438.074219 759.265625 438.375 C 761.554688 438.679688 764.0625 440.25 765.976562 442.574219 C 766.214844 442.863281 766.457031 443.179688 766.703125 443.53125 C 768.148438 442.765625 769.789062 441.265625 769.640625 438.402344 C 769.1875 429.640625 752.03125 425.792969 751.859375 425.753906 C 751.472656 425.667969 751.226562 425.289062 751.3125 424.902344 C 751.394531 424.515625 751.777344 424.269531 752.164062 424.355469 C 752.347656 424.394531 756.761719 425.371094 761.308594 427.53125 C 764.007812 428.816406 766.183594 430.25 767.785156 431.800781 C 769.84375 433.796875 770.953125 435.996094 771.070312 438.328125 C 771.21875 441.132812 769.9375 443.402344 767.464844 444.746094 C 768.542969 446.65625 769.441406 449.230469 769.4375 452.492188 C 769.433594 455.574219 768.304688 457.582031 766.988281 458.875 C 767.898438 460.855469 768.5625 463.601562 767.976562 467.0625 C 767.355469 470.734375 764.96875 473.289062 761.210938 474.332031 C 761.769531 476.390625 761.953125 479.140625 760.667969 482.160156 C 759.449219 485.011719 756.742188 486.527344 753.039062 486.429688 C 751.785156 486.394531 750.484375 486.175781 749.207031 485.816406 C 748.960938 486.636719 748.628906 487.421875 748.203125 488.15625 C 747.035156 490.1875 745.25 491.789062 742.902344 492.914062 C 739.019531 494.773438 735.164062 494.121094 732.019531 491.078125 C 731.921875 491.199219 731.824219 491.320312 731.722656 491.433594 C 729.484375 494.003906 726.484375 495.421875 723.273438 495.421875 Z M 730.679688 479.324219 C 730.089844 479.324219 729.691406 479.570312 729.433594 480.09375 C 728.597656 481.800781 729.539062 485.773438 731.890625 488.789062 C 732.90625 487.105469 733.484375 485.257812 733.582031 483.644531 C 733.65625 482.453125 733.546875 479.65625 730.980469 479.34375 C 730.875 479.328125 730.773438 479.324219 730.679688 479.324219 Z M 716.351562 478.019531 C 715.8125 478.019531 715.539062 478.28125 715.421875 478.390625 C 714.183594 479.5625 713.917969 483.480469 715.484375 487.472656 C 717.777344 485.34375 719.289062 482.640625 719.148438 480.660156 C 719.074219 479.570312 718.515625 478.800781 717.453125 478.304688 C 717 478.09375 716.636719 478.019531 716.351562 478.019531 Z M 744.152344 475.566406 C 743.519531 475.566406 742.886719 475.847656 742.257812 476.40625 C 741.46875 477.105469 741.253906 477.90625 741.597656 478.851562 C 742.089844 480.195312 743.6875 481.714844 745.875 482.917969 C 746.605469 483.320312 747.367188 483.667969 748.144531 483.964844 C 748.242188 483.3125 748.261719 482.746094 748.253906 482.320312 C 748.207031 479.359375 746.84375 476.542969 745.085938 475.769531 C 744.777344 475.636719 744.464844 475.566406 744.152344 475.566406 Z M 706.480469 472.585938 C 706.195312 472.585938 705.910156 472.667969 705.617188 472.828125 C 703.632812 473.929688 701.988281 478.363281 702.023438 482.507812 C 702.027344 482.601562 702.027344 482.699219 702.03125 482.796875 C 702.230469 482.734375 702.421875 482.667969 702.605469 482.597656 C 706.003906 481.257812 708.355469 477.882812 708.582031 475.519531 C 708.699219 474.328125 708.320312 473.449219 707.464844 472.902344 C 707.132812 472.691406 706.808594 472.585938 706.480469 472.585938 Z M 752.664062 467.5 C 751.804688 467.5 750.894531 467.820312 750.152344 468.828125 C 749.65625 469.503906 749.613281 470.113281 750.015625 470.742188 C 751.113281 472.460938 755.308594 473.84375 759.335938 473.265625 C 758.429688 471.097656 756.867188 469.230469 755.109375 468.226562 C 754.59375 467.933594 753.664062 467.5 752.664062 467.5 Z M 696.441406 462.445312 C 696.253906 462.445312 696.066406 462.46875 695.875 462.523438 C 694.066406 463.015625 692.265625 465.679688 691.488281 468.996094 C 691.335938 469.660156 691.222656 470.316406 691.15625 470.964844 C 694.550781 470.699219 697.929688 468.769531 698.910156 466.449219 C 699.386719 465.324219 699.1875 464.292969 698.3125 463.378906 C 697.71875 462.757812 697.09375 462.445312 696.441406 462.445312 Z M 758.203125 453.6875 C 757.089844 453.6875 755.765625 454.097656 755.117188 455.828125 C 754.722656 456.882812 754.921875 457.796875 755.710938 458.554688 C 757.386719 460.15625 761 460.503906 763.757812 459.324219 C 764.183594 459.144531 764.683594 458.882812 765.191406 458.515625 C 765.105469 458.367188 765.019531 458.226562 764.933594 458.09375 C 763.597656 455.996094 761.601562 454.421875 759.59375 453.878906 C 759.253906 453.789062 758.753906 453.6875 758.203125 453.6875 Z M 682.527344 457.359375 C 683.746094 457.953125 684.988281 458.257812 686.132812 458.222656 C 688.277344 458.160156 689.785156 456.957031 690.269531 454.921875 C 690.484375 454.023438 690.347656 453.417969 689.871094 453.132812 C 688.898438 452.546875 686.519531 453.101562 684.519531 454.859375 C 683.960938 455.347656 683.160156 456.183594 682.527344 457.359375 Z M 758.480469 439.753906 C 757.570312 439.753906 756.609375 440.078125 756.273438 441.316406 C 756.078125 442.027344 756.320312 442.644531 757.003906 443.203125 C 758.605469 444.507812 762.308594 445.050781 765.332031 444.097656 C 763.5 441.582031 761.050781 440.058594 759.074219 439.792969 C 758.886719 439.769531 758.683594 439.753906 758.480469 439.753906 Z M 674.257812 441.292969 C 676.238281 443.03125 678.40625 443.683594 679.957031 443.730469 C 681.878906 443.785156 683.347656 443.007812 683.609375 441.789062 C 683.828125 440.769531 682.734375 439.945312 682.253906 439.640625 C 680.433594 438.480469 677.347656 438.078125 675.535156 439.449219 C 674.933594 439.90625 674.507812 440.523438 674.257812 441.292969 Z M 671.871094 423.4375 C 673.5 425.8125 675.746094 427.0625 677.832031 427.238281 C 679.652344 427.394531 681.027344 426.660156 681.339844 425.371094 C 681.535156 424.570312 680.90625 423.910156 680.34375 423.5 C 678.457031 422.121094 674.753906 421.671875 672.242188 423.195312 C 672.113281 423.273438 671.992188 423.355469 671.871094 423.4375 Z M 671.765625 410.25 C 673.355469 412.273438 675.609375 413.519531 677.808594 413.941406 C 679.765625 414.3125 681.359375 413.921875 681.683594 412.988281 C 681.886719 412.402344 681.195312 411.710938 680.886719 411.4375 C 679.152344 409.90625 675.027344 408.609375 672.242188 409.980469 C 672.078125 410.0625 671.917969 410.152344 671.765625 410.25 Z M 672.644531 397.535156 C 674.207031 399.960938 676.890625 401.644531 679.15625 402.160156 C 680.136719 402.382812 682.488281 402.695312 683.144531 400.792969 C 683.402344 400.042969 683.148438 399.296875 682.390625 398.578125 C 680.628906 396.90625 676.496094 395.921875 673.382812 397.179688 C 673.125 397.285156 672.878906 397.402344 672.644531 397.535156 Z M 674.820312 387.945312 C 676.191406 390.148438 678.726562 391.410156 681.152344 391.578125 C 682.746094 391.691406 684.730469 391.285156 685.070312 389.773438 C 685.109375 389.609375 685.222656 389.105469 684.511719 388.496094 C 682.867188 387.082031 678.542969 386.476562 675.214844 387.777344 C 675.085938 387.828125 674.953125 387.882812 674.820312 387.945312 Z M 674.820312 387.945312 " fill-opacity="1" fill-rule="nonzero"/></g><path fill="#a1211d" d="M 763.503906 428.199219 L 715.65625 428.199219 C 710.410156 428.199219 705.652344 426.082031 702.199219 422.652344 C 698.714844 419.195312 696.554688 414.398438 696.554688 409.097656 L 696.554688 316.445312 C 696.554688 309.894531 699.851562 304.117188 704.875 300.675781 C 707.945312 298.570312 711.65625 297.339844 715.65625 297.339844 L 763.503906 297.339844 C 768.777344 297.339844 773.554688 299.480469 777.011719 302.9375 C 780.46875 306.394531 782.605469 311.167969 782.605469 316.445312 L 782.605469 409.097656 C 782.605469 414.878906 779.84375 419.691406 775.785156 423.195312 C 772.4375 426.082031 768.273438 428.199219 763.503906 428.199219 Z M 763.503906 428.199219 " fill-opacity="1" fill-rule="nonzero"/><g clip-path="url(#f870e017b2)"><path fill="#000000" d="M 730.65625 428.382812 C 711.921875 428.382812 711.730469 428.335938 711.613281 428.308594 C 711.230469 428.21875 710.988281 427.835938 711.078125 427.449219 C 711.164062 427.089844 711.507812 426.855469 711.867188 426.902344 C 712.773438 426.957031 730.769531 426.964844 762.574219 426.925781 C 773.226562 426.910156 781.890625 418.234375 781.890625 407.582031 L 781.890625 317.398438 C 781.890625 317.003906 782.210938 316.683594 782.605469 316.683594 C 783.003906 316.683594 783.324219 317.003906 783.324219 317.398438 L 783.324219 407.582031 C 783.324219 413.128906 781.164062 418.339844 777.246094 422.265625 C 773.332031 426.1875 768.121094 428.351562 762.574219 428.355469 C 748.304688 428.375 738.039062 428.382812 730.65625 428.382812 Z M 711.9375 426.914062 C 711.9375 426.914062 711.941406 426.914062 711.941406 426.914062 C 711.941406 426.914062 711.9375 426.914062 711.9375 426.914062 Z M 711.9375 426.914062 Z M 711.9375 426.914062 " fill-opacity="1" fill-rule="nonzero"/></g><path fill="#000000" d="M 696.554688 408.859375 C 696.160156 408.859375 695.839844 408.539062 695.839844 408.140625 L 695.839844 317.75 C 695.839844 312.234375 697.976562 307.042969 701.859375 303.125 C 705.742188 299.207031 710.917969 297.027344 716.433594 296.976562 L 757.019531 296.625 C 757.023438 296.625 757.023438 296.625 757.027344 296.625 C 757.417969 296.625 757.738281 296.941406 757.742188 297.335938 C 757.746094 297.730469 757.425781 298.054688 757.03125 298.058594 L 716.445312 298.410156 C 705.871094 298.503906 697.273438 307.179688 697.273438 317.75 L 697.273438 408.140625 C 697.273438 408.539062 696.949219 408.859375 696.554688 408.859375 Z M 696.554688 408.859375 " fill-opacity="1" fill-rule="nonzero"/><path fill="#fee3c0" d="M 748.230469 406.929688 C 746.835938 408.394531 746.664062 420.023438 749.296875 421.234375 C 751.929688 422.445312 768.582031 422.941406 771.285156 419.527344 C 773.992188 416.109375 772.640625 407.074219 770.289062 405.367188 C 767.941406 403.65625 751.148438 403.871094 748.230469 406.929688 Z M 748.230469 406.929688 " fill-opacity="1" fill-rule="nonzero"/><path fill="#000000" d="M 758.273438 422.863281 C 754.132812 422.863281 750.277344 422.472656 749 421.886719 C 748.023438 421.4375 747.347656 420.15625 746.929688 417.972656 C 746.570312 416.09375 746.433594 413.582031 746.570312 411.253906 C 746.671875 409.496094 746.953125 407.234375 747.710938 406.4375 L 748.230469 406.929688 L 747.710938 406.4375 C 749.742188 404.308594 756.589844 403.777344 759.441406 403.644531 C 763.984375 403.4375 769.230469 403.710938 770.710938 404.785156 C 771.925781 405.667969 772.898438 408 773.3125 411.023438 C 773.832031 414.8125 773.285156 418.160156 771.847656 419.972656 C 770.171875 422.089844 764.636719 422.695312 760.289062 422.832031 C 759.617188 422.851562 758.941406 422.863281 758.273438 422.863281 Z M 748.75 407.425781 C 748.59375 407.589844 748.15625 408.605469 748 411.335938 C 747.871094 413.554688 747.996094 415.933594 748.335938 417.703125 C 748.785156 420.042969 749.414062 420.5 749.597656 420.582031 C 750.703125 421.09375 755.347656 421.550781 760.242188 421.398438 C 765.796875 421.226562 769.714844 420.359375 770.726562 419.082031 C 771.886719 417.613281 772.34375 414.527344 771.890625 411.21875 C 771.546875 408.691406 770.734375 406.574219 769.871094 405.945312 C 769.035156 405.335938 764.835938 404.832031 759.507812 405.078125 C 754.097656 405.324219 749.875 406.246094 748.75 407.425781 Z M 748.75 407.425781 " fill-opacity="1" fill-rule="nonzero"/><path fill="#fee3c0" d="M 751.976562 408.929688 C 751.023438 409.929688 750.90625 417.863281 752.703125 418.6875 C 754.5 419.511719 765.855469 419.851562 767.699219 417.523438 C 769.546875 415.191406 768.625 409.027344 767.023438 407.863281 C 765.417969 406.699219 753.964844 406.84375 751.976562 408.929688 Z M 751.976562 408.929688 " fill-opacity="1" fill-rule="nonzero"/><path fill="#000000" d="M 758.890625 420.023438 C 756.257812 420.023438 753.394531 419.792969 752.402344 419.339844 C 751.667969 419 751.164062 418.074219 750.863281 416.503906 C 750.613281 415.207031 750.523438 413.472656 750.613281 411.867188 C 750.71875 410.066406 751 408.914062 751.457031 408.4375 C 752.84375 406.980469 757.160156 406.574219 759.609375 406.460938 C 761.953125 406.355469 766.238281 406.40625 767.441406 407.285156 C 768.742188 408.230469 769.199219 410.894531 769.308594 411.691406 C 769.445312 412.683594 769.769531 416.0625 768.261719 417.96875 C 767.066406 419.480469 763.21875 419.910156 760.207031 420.003906 C 759.78125 420.015625 759.339844 420.023438 758.890625 420.023438 Z M 752.496094 409.421875 C 752.375 409.585938 752.097656 410.5 752.027344 412.296875 C 751.964844 413.914062 752.089844 415.550781 752.367188 416.679688 C 752.65625 417.867188 752.988281 418.03125 753.003906 418.035156 C 753.734375 418.371094 756.855469 418.675781 760.160156 418.570312 C 764.542969 418.433594 766.640625 417.710938 767.140625 417.078125 C 767.894531 416.121094 768.191406 414.085938 767.886719 411.886719 C 767.636719 410.058594 767.050781 408.769531 766.601562 408.441406 C 766.128906 408.101562 763.460938 407.71875 759.675781 407.894531 C 755.554688 408.082031 753.101562 408.796875 752.496094 409.421875 Z M 752.492188 409.425781 Z M 752.492188 409.425781 " fill-opacity="1" fill-rule="nonzero"/><path fill="#fee3c0" d="M 715.464844 330.929688 C 715.457031 352.292969 738.609375 362.035156 755.246094 348.902344 C 770.785156 336.640625 763.054688 312.214844 746.992188 308.238281 C 730.800781 304.226562 715.46875 314.566406 715.464844 330.929688 Z M 715.464844 330.929688 " fill-opacity="1" fill-rule="nonzero"/><path fill="#000000" d="M 738.726562 355.574219 C 734.996094 355.574219 731.347656 354.75 728.03125 353.140625 C 724.09375 351.230469 720.796875 348.28125 718.492188 344.609375 C 716.003906 340.640625 714.746094 336.035156 714.746094 330.929688 C 714.75 327.0625 715.574219 323.429688 717.203125 320.132812 C 718.753906 316.984375 720.964844 314.277344 723.773438 312.082031 C 726.832031 309.6875 730.535156 308.003906 734.488281 307.203125 C 738.621094 306.367188 742.886719 306.480469 747.164062 307.542969 C 751.265625 308.558594 755.019531 310.910156 758.015625 314.339844 C 760.878906 317.609375 762.890625 321.648438 763.832031 326.015625 C 764.75 330.265625 764.582031 334.582031 763.34375 338.5 C 761.976562 342.847656 759.398438 346.539062 755.6875 349.464844 C 751.492188 352.777344 746.636719 354.832031 741.644531 355.40625 C 740.671875 355.515625 739.695312 355.574219 738.726562 355.574219 Z M 715.464844 330.929688 L 716.179688 330.929688 C 716.175781 340.238281 720.839844 348.0625 728.65625 351.851562 C 736.945312 355.871094 746.964844 354.527344 754.800781 348.339844 C 761.425781 343.113281 764.28125 334.878906 762.429688 326.320312 C 760.558594 317.644531 754.429688 310.816406 746.820312 308.933594 C 738.761719 306.9375 730.683594 308.496094 724.65625 313.207031 C 719.191406 317.484375 716.183594 323.777344 716.179688 330.929688 Z M 715.464844 330.929688 " fill-opacity="1" fill-rule="nonzero"/><path fill="#fee3c0" d="M 741.839844 311.394531 C 741.839844 312.597656 740.863281 313.570312 739.660156 313.570312 C 738.457031 313.570312 737.484375 312.597656 737.484375 311.394531 C 737.484375 310.191406 738.457031 309.21875 739.660156 309.21875 C 740.863281 309.21875 741.839844 310.191406 741.839844 311.394531 Z M 741.839844 311.394531 " fill-opacity="1" fill-rule="nonzero"/><path fill="#000000" d="M 739.660156 314.289062 C 738.066406 314.289062 736.765625 312.988281 736.765625 311.394531 C 736.765625 309.800781 738.066406 308.5 739.660156 308.5 C 741.257812 308.5 742.554688 309.800781 742.554688 311.394531 C 742.554688 312.988281 741.257812 314.289062 739.660156 314.289062 Z M 739.660156 309.933594 C 738.855469 309.933594 738.199219 310.589844 738.199219 311.394531 C 738.199219 312.199219 738.855469 312.855469 739.660156 312.855469 C 740.464844 312.855469 741.121094 312.199219 741.121094 311.394531 C 741.121094 310.589844 740.464844 309.933594 739.660156 309.933594 Z M 739.660156 309.933594 " fill-opacity="1" fill-rule="nonzero"/><path fill="#fee3c0" d="M 752.675781 315.210938 C 752.675781 316.414062 751.703125 317.386719 750.5 317.386719 C 749.296875 317.386719 748.320312 316.414062 748.320312 315.210938 C 748.320312 314.007812 749.296875 313.035156 750.5 313.035156 C 751.703125 313.035156 752.675781 314.007812 752.675781 315.210938 Z M 752.675781 315.210938 " fill-opacity="1" fill-rule="nonzero"/><path fill="#000000" d="M 750.5 318.105469 C 748.902344 318.105469 747.605469 316.808594 747.605469 315.210938 C 747.605469 313.617188 748.902344 312.316406 750.5 312.316406 C 752.09375 312.316406 753.394531 313.617188 753.394531 315.210938 C 753.394531 316.808594 752.09375 318.105469 750.5 318.105469 Z M 750.5 313.75 C 749.695312 313.75 749.039062 314.40625 749.039062 315.210938 C 749.039062 316.015625 749.695312 316.671875 750.5 316.671875 C 751.304688 316.671875 751.960938 316.015625 751.960938 315.210938 C 751.960938 314.40625 751.304688 313.75 750.5 313.75 Z M 750.5 313.75 " fill-opacity="1" fill-rule="nonzero"/><path fill="#fee3c0" d="M 731 315.210938 C 731 316.414062 730.023438 317.386719 728.820312 317.386719 C 727.621094 317.386719 726.644531 316.414062 726.644531 315.210938 C 726.644531 314.007812 727.621094 313.035156 728.820312 313.035156 C 730.023438 313.035156 731 314.007812 731 315.210938 Z M 731 315.210938 " fill-opacity="1" fill-rule="nonzero"/><path fill="#000000" d="M 728.820312 318.105469 C 727.226562 318.105469 725.929688 316.808594 725.929688 315.210938 C 725.929688 313.617188 727.226562 312.316406 728.820312 312.316406 C 730.417969 312.316406 731.714844 313.617188 731.714844 315.210938 C 731.714844 316.808594 730.417969 318.105469 728.820312 318.105469 Z M 728.820312 313.75 C 728.015625 313.75 727.359375 314.40625 727.359375 315.210938 C 727.359375 316.015625 728.015625 316.671875 728.820312 316.671875 C 729.628906 316.671875 730.28125 316.015625 730.28125 315.210938 C 730.28125 314.40625 729.628906 313.75 728.820312 313.75 Z M 728.820312 313.75 " fill-opacity="1" fill-rule="nonzero"/><path fill="#fee3c0" d="M 723.535156 324.675781 C 723.535156 325.878906 722.558594 326.851562 721.355469 326.851562 C 720.15625 326.851562 719.179688 325.878906 719.179688 324.675781 C 719.179688 323.472656 720.15625 322.496094 721.355469 322.496094 C 722.558594 322.496094 723.535156 323.472656 723.535156 324.675781 Z M 723.535156 324.675781 " fill-opacity="1" fill-rule="nonzero"/><path fill="#000000" d="M 721.355469 327.570312 C 719.761719 327.570312 718.464844 326.269531 718.464844 324.675781 C 718.464844 323.078125 719.761719 321.78125 721.355469 321.78125 C 722.953125 321.78125 724.25 323.078125 724.25 324.675781 C 724.25 326.269531 722.953125 327.570312 721.355469 327.570312 Z M 721.355469 323.214844 C 720.550781 323.214844 719.894531 323.867188 719.894531 324.675781 C 719.894531 325.480469 720.550781 326.136719 721.355469 326.136719 C 722.164062 326.136719 722.816406 325.480469 722.816406 324.675781 C 722.816406 323.867188 722.164062 323.214844 721.355469 323.214844 Z M 721.355469 323.214844 " fill-opacity="1" fill-rule="nonzero"/><path fill="#fee3c0" d="M 723.535156 337.671875 C 723.535156 338.875 722.558594 339.851562 721.355469 339.851562 C 720.15625 339.851562 719.179688 338.875 719.179688 337.671875 C 719.179688 336.46875 720.15625 335.496094 721.355469 335.496094 C 722.558594 335.496094 723.535156 336.46875 723.535156 337.671875 Z M 723.535156 337.671875 " fill-opacity="1" fill-rule="nonzero"/><path fill="#000000" d="M 721.355469 340.566406 C 719.761719 340.566406 718.464844 339.269531 718.464844 337.671875 C 718.464844 336.078125 719.761719 334.777344 721.355469 334.777344 C 722.953125 334.777344 724.25 336.078125 724.25 337.671875 C 724.25 339.269531 722.953125 340.566406 721.355469 340.566406 Z M 721.355469 336.210938 C 720.550781 336.210938 719.894531 336.867188 719.894531 337.671875 C 719.894531 338.476562 720.550781 339.132812 721.355469 339.132812 C 722.164062 339.132812 722.816406 338.476562 722.816406 337.671875 C 722.816406 336.867188 722.164062 336.210938 721.355469 336.210938 Z M 721.355469 336.210938 " fill-opacity="1" fill-rule="nonzero"/><path fill="#fee3c0" d="M 731 346.710938 C 731 347.914062 730.023438 348.890625 728.820312 348.890625 C 727.621094 348.890625 726.644531 347.914062 726.644531 346.710938 C 726.644531 345.507812 727.621094 344.535156 728.820312 344.535156 C 730.023438 344.535156 731 345.507812 731 346.710938 Z M 731 346.710938 " fill-opacity="1" fill-rule="nonzero"/><path fill="#000000" d="M 728.820312 349.605469 C 727.226562 349.605469 725.929688 348.308594 725.929688 346.710938 C 725.929688 345.117188 727.226562 343.820312 728.820312 343.820312 C 730.417969 343.820312 731.714844 345.117188 731.714844 346.710938 C 731.714844 348.308594 730.417969 349.605469 728.820312 349.605469 Z M 728.820312 345.25 C 728.015625 345.25 727.359375 345.90625 727.359375 346.710938 C 727.359375 347.519531 728.015625 348.171875 728.820312 348.171875 C 729.628906 348.171875 730.28125 347.519531 730.28125 346.710938 C 730.28125 345.90625 729.628906 345.25 728.820312 345.25 Z M 728.820312 345.25 " fill-opacity="1" fill-rule="nonzero"/><path fill="#fee3c0" d="M 741.839844 349.816406 C 741.839844 351.019531 740.863281 351.996094 739.660156 351.996094 C 738.457031 351.996094 737.484375 351.019531 737.484375 349.816406 C 737.484375 348.613281 738.457031 347.640625 739.660156 347.640625 C 740.863281 347.640625 741.839844 348.613281 741.839844 349.816406 Z M 741.839844 349.816406 " fill-opacity="1" fill-rule="nonzero"/><path fill="#000000" d="M 739.660156 352.710938 C 738.066406 352.710938 736.765625 351.414062 736.765625 349.816406 C 736.765625 348.222656 738.066406 346.925781 739.660156 346.925781 C 741.257812 346.925781 742.554688 348.222656 742.554688 349.816406 C 742.554688 351.414062 741.257812 352.710938 739.660156 352.710938 Z M 739.660156 348.355469 C 738.855469 348.355469 738.199219 349.011719 738.199219 349.816406 C 738.199219 350.625 738.855469 351.277344 739.660156 351.277344 C 740.464844 351.277344 741.121094 350.625 741.121094 349.816406 C 741.121094 349.011719 740.464844 348.355469 739.660156 348.355469 Z M 739.660156 348.355469 " fill-opacity="1" fill-rule="nonzero"/><path fill="#a1211d" d="M 725.835938 331.007812 C 725.828125 343.171875 740.710938 349.082031 749.375 340.679688 C 757.667969 332.636719 752.9375 320.347656 743.792969 318.082031 C 734.570312 315.800781 725.835938 321.6875 725.835938 331.007812 Z M 725.835938 331.007812 " fill-opacity="1" fill-rule="nonzero"/><path fill="#000000" d="M 739.738281 345.332031 C 737.742188 345.332031 735.746094 344.925781 733.871094 344.132812 C 728.46875 341.84375 725.117188 336.816406 725.117188 331.007812 C 725.121094 326.578125 726.988281 322.679688 730.378906 320.027344 C 734.082031 317.128906 739.035156 316.167969 743.964844 317.386719 C 746.351562 317.980469 748.546875 319.246094 750.3125 321.050781 C 752.023438 322.800781 753.265625 324.972656 753.902344 327.339844 C 755.253906 332.351562 753.789062 337.402344 749.875 341.195312 C 747.6875 343.316406 744.980469 344.683594 742.042969 345.148438 C 741.277344 345.269531 740.507812 345.332031 739.738281 345.332031 Z M 725.835938 331.007812 L 726.550781 331.007812 C 726.546875 336.230469 729.566406 340.753906 734.429688 342.8125 C 736.171875 343.550781 737.972656 343.910156 739.746094 343.910156 C 743.097656 343.910156 746.339844 342.625 748.878906 340.164062 C 752.40625 336.746094 753.734375 332.207031 752.519531 327.714844 C 751.320312 323.265625 747.910156 319.839844 743.617188 318.777344 C 739.121094 317.664062 734.617188 318.53125 731.261719 321.15625 C 728.222656 323.53125 726.550781 327.03125 726.550781 331.007812 Z M 725.835938 331.007812 " fill-opacity="1" fill-rule="nonzero"/><path fill="#fee3c0" d="M 745.828125 340.691406 C 745.625 342.246094 756.726562 354.695312 758.394531 354.339844 C 760.0625 353.988281 763.4375 350.371094 762.777344 348.453125 C 762.28125 346.996094 749.566406 338.117188 748.554688 338.117188 C 747.546875 338.117188 745.980469 339.53125 745.828125 340.691406 Z M 745.828125 340.691406 " fill-opacity="1" fill-rule="nonzero"/><path fill="#000000" d="M 758.300781 355.070312 C 757.796875 355.070312 756.957031 354.714844 754.859375 352.777344 C 752.996094 351.058594 750.578125 348.472656 748.542969 346.027344 C 744.972656 341.730469 745.074219 340.9375 745.117188 340.601562 C 745.3125 339.105469 747.144531 337.402344 748.554688 337.402344 C 748.796875 337.402344 749.128906 337.402344 751.519531 338.925781 C 752.878906 339.789062 754.566406 340.9375 756.273438 342.15625 C 758.074219 343.441406 759.730469 344.6875 760.941406 345.667969 C 762.941406 347.292969 763.332031 347.855469 763.457031 348.222656 C 763.730469 349.019531 763.539062 350.03125 762.902344 351.152344 C 761.867188 352.980469 759.871094 354.761719 758.542969 355.042969 C 758.46875 355.058594 758.390625 355.070312 758.300781 355.070312 Z M 746.546875 340.738281 C 746.683594 341.320312 748.441406 343.882812 751.894531 347.695312 C 755.578125 351.765625 757.75 353.46875 758.308594 353.625 C 759.152344 353.394531 760.796875 351.964844 761.65625 350.445312 C 762.066406 349.722656 762.230469 349.089844 762.105469 348.703125 C 761.882812 348.292969 759.960938 346.550781 755.535156 343.386719 C 751.726562 340.667969 749.054688 339.027344 748.5 338.835938 C 747.859375 338.894531 746.691406 339.941406 746.546875 340.738281 Z M 745.828125 340.691406 L 746.539062 340.785156 Z M 745.828125 340.691406 " fill-opacity="1" fill-rule="nonzero"/><path fill="#a1211d" d="M 728.820312 266.222656 C 729.90625 270.566406 713.9375 299.871094 707.109375 300.957031 C 700.28125 302.042969 693.917969 295.527344 693.917969 295.527344 C 693.917969 295.527344 680.726562 313.074219 680.414062 335.496094 C 680.414062 335.496094 693.453125 334.792969 697.332031 341.933594 C 701.210938 349.070312 690.347656 378.09375 683.363281 379.492188 C 676.378906 380.886719 662.257812 371.265625 659.460938 361.796875 C 656.667969 352.332031 660.394531 327.496094 667.84375 305.769531 C 675.292969 284.042969 693.976562 259.46875 706.609375 257.792969 C 720.035156 256.011719 728.046875 263.121094 728.820312 266.222656 Z M 728.820312 266.222656 " fill-opacity="1" fill-rule="nonzero"/><path fill="#000000" d="M 704.25 298.582031 C 704.113281 298.582031 703.976562 298.542969 703.855469 298.464844 C 703.523438 298.246094 703.433594 297.804688 703.652344 297.472656 C 711.585938 285.4375 723.527344 267.238281 724.15625 266.054688 C 724.257812 265.785156 724.519531 265.589844 724.828125 265.589844 C 725.222656 265.589844 725.542969 265.910156 725.542969 266.308594 C 725.542969 266.59375 725.542969 266.640625 722.210938 271.773438 C 720.503906 274.40625 718.125 278.054688 715.136719 282.609375 C 710.050781 290.367188 704.898438 298.183594 704.847656 298.261719 C 704.710938 298.46875 704.480469 298.582031 704.25 298.582031 Z M 724.109375 266.308594 Z M 724.109375 266.304688 Z M 724.109375 266.304688 Z M 724.109375 266.304688 " fill-opacity="1" fill-rule="nonzero"/><path fill="#000000" d="M 679.742188 376.960938 C 679.648438 376.960938 679.550781 376.941406 679.460938 376.902344 C 679.097656 376.746094 678.929688 376.324219 679.082031 375.960938 L 693.765625 341.628906 C 693.921875 341.265625 694.339844 341.097656 694.707031 341.25 C 695.070312 341.40625 695.238281 341.828125 695.082031 342.191406 L 680.402344 376.527344 C 680.285156 376.796875 680.019531 376.960938 679.742188 376.960938 Z M 679.742188 376.960938 " fill-opacity="1" fill-rule="nonzero"/><path fill="#000000" d="M 684.085938 379.972656 C 683.777344 379.972656 683.492188 379.773438 683.398438 379.464844 C 683.285156 379.085938 683.5 378.683594 683.875 378.570312 C 686.003906 377.921875 690.058594 372.0625 693.308594 364.941406 C 697.0625 356.714844 698.773438 349.242188 697.882812 344.953125 C 695.949219 335.613281 680.601562 336.203125 680.449219 336.210938 C 680.050781 336.226562 679.71875 335.921875 679.699219 335.527344 C 679.679688 335.132812 679.988281 334.796875 680.382812 334.78125 C 680.550781 334.773438 684.558594 334.605469 688.894531 335.6875 C 694.78125 337.164062 698.375 340.265625 699.285156 344.664062 C 699.796875 347.128906 699.5625 350.402344 698.585938 354.390625 C 697.742188 357.832031 696.367188 361.6875 694.613281 365.535156 C 691.640625 372.046875 687.300781 379.027344 684.292969 379.941406 C 684.222656 379.960938 684.152344 379.972656 684.085938 379.972656 Z M 684.085938 379.972656 " fill-opacity="1" fill-rule="nonzero"/><path fill="#000000" d="M 677.433594 379.488281 C 677.347656 379.488281 677.257812 379.472656 677.167969 379.4375 C 677.019531 379.378906 673.433594 377.933594 669.363281 375.078125 C 665.574219 372.421875 660.664062 368 658.78125 362.011719 C 657.277344 357.25 657.636719 348.253906 659.839844 335.265625 C 661.472656 325.648438 663.566406 317.296875 663.589844 317.214844 C 663.683594 316.828125 664.074219 316.597656 664.457031 316.695312 C 664.839844 316.789062 665.074219 317.179688 664.976562 317.5625 C 664.894531 317.894531 656.714844 350.6875 660.144531 361.582031 C 661.910156 367.183594 666.578125 371.375 670.183594 373.90625 C 674.121094 376.667969 677.664062 378.09375 677.699219 378.109375 C 678.066406 378.253906 678.246094 378.671875 678.101562 379.039062 C 677.988281 379.320312 677.71875 379.488281 677.433594 379.488281 Z M 677.433594 379.488281 " fill-opacity="1" fill-rule="nonzero"/><path fill="#000000" d="M 680.722656 330.945312 C 680.699219 330.945312 680.671875 330.941406 680.644531 330.941406 C 680.253906 330.898438 679.96875 330.546875 680.011719 330.152344 C 680.015625 330.105469 680.664062 324.949219 682.730469 317.828125 C 684.550781 311.5625 687.867188 302.535156 693.339844 295.101562 C 693.457031 294.945312 693.632812 294.839844 693.828125 294.816406 C 694.023438 294.792969 694.21875 294.847656 694.371094 294.972656 C 694.394531 294.992188 696.859375 297 699.894531 298.535156 C 702.578125 299.894531 706.269531 301.167969 708.632812 299.507812 C 710.996094 297.847656 715.167969 292.65625 719.261719 286.277344 C 723.605469 279.507812 726.703125 273.246094 727.550781 269.523438 C 727.636719 269.136719 728.019531 268.894531 728.40625 268.984375 C 728.792969 269.070312 729.035156 269.457031 728.945312 269.839844 C 728.066406 273.71875 724.894531 280.152344 720.46875 287.050781 C 716.21875 293.671875 711.996094 298.894531 709.457031 300.679688 C 708.398438 301.425781 707.167969 301.726562 705.875 301.726562 C 701.285156 301.726562 695.859375 297.914062 694.0625 296.550781 C 688.972656 303.691406 685.851562 312.226562 684.113281 318.203125 C 682.09375 325.160156 681.441406 330.257812 681.433594 330.304688 C 681.394531 330.671875 681.085938 330.945312 680.722656 330.945312 Z M 680.722656 330.945312 " fill-opacity="1" fill-rule="nonzero"/><path fill="#000000" d="M 727.054688 264.210938 C 726.910156 264.210938 726.765625 264.167969 726.640625 264.078125 C 719.800781 259.214844 712.953125 257.4375 706.285156 258.804688 C 701.304688 259.824219 698.292969 262.3125 698.261719 262.335938 C 697.957031 262.589844 697.507812 262.550781 697.253906 262.25 C 697 261.945312 697.035156 261.496094 697.339844 261.238281 C 697.46875 261.128906 700.613281 258.519531 705.921875 257.414062 C 709.03125 256.769531 712.246094 256.773438 715.472656 257.4375 C 719.484375 258.257812 723.519531 260.101562 727.46875 262.910156 C 727.792969 263.140625 727.867188 263.585938 727.636719 263.910156 C 727.5 264.105469 727.277344 264.210938 727.054688 264.210938 Z M 727.054688 264.210938 " fill-opacity="1" fill-rule="nonzero"/></svg>