<svg xmlns="http://www.w3.org/2000/svg" xmlns:xlink="http://www.w3.org/1999/xlink" width="500" zoomAndPan="magnify" viewBox="0 0 375 374.999991" height="500" preserveAspectRatio="xMidYMid meet" version="1.0"><defs><g/><clipPath id="7169afe89f"><path d="M 138.554688 122.367188 L 236.804688 122.367188 L 236.804688 234.117188 L 138.554688 234.117188 Z M 138.554688 122.367188 " clip-rule="nonzero"/></clipPath><clipPath id="6098e36728"><path d="M 138.554688 122.367188 L 236.804688 122.367188 L 236.804688 234 L 138.554688 234 Z M 138.554688 122.367188 " clip-rule="nonzero"/></clipPath></defs><g fill="#000000" fill-opacity="1"><g transform="translate(180.133879, 183.849994)"><g><path d="M 4.078125 0.140625 C 3.234375 0.140625 2.5625 -0.0976562 2.0625 -0.578125 C 1.5625 -1.054688 1.3125 -1.773438 1.3125 -2.734375 L 1.3125 -7.875 L 2.734375 -7.875 L 2.734375 -3.015625 C 2.734375 -2.335938 2.890625 -1.835938 3.203125 -1.515625 C 3.523438 -1.191406 3.929688 -1.03125 4.421875 -1.03125 C 5.078125 -1.03125 5.601562 -1.257812 6 -1.71875 C 6.40625 -2.175781 6.609375 -2.890625 6.609375 -3.859375 L 6.609375 -7.875 L 8.03125 -7.875 L 8.03125 -3.015625 C 8.03125 -2.335938 8.1875 -1.835938 8.5 -1.515625 C 8.8125 -1.191406 9.21875 -1.03125 9.71875 -1.03125 C 10.34375 -1.03125 10.859375 -1.257812 11.265625 -1.71875 C 11.679688 -2.175781 11.890625 -2.890625 11.890625 -3.859375 L 11.890625 -7.875 L 13.3125 -7.875 L 13.3125 0 L 12.203125 0 L 12.015625 -1.28125 L 11.9375 -1.28125 C 11.738281 -0.90625 11.4375 -0.570312 11.03125 -0.28125 C 10.625 0 10.070312 0.140625 9.375 0.140625 C 8.789062 0.140625 8.28125 0.0195312 7.84375 -0.21875 C 7.40625 -0.46875 7.085938 -0.835938 6.890625 -1.328125 L 6.8125 -1.328125 C 6.601562 -0.898438 6.253906 -0.546875 5.765625 -0.265625 C 5.285156 0.00390625 4.722656 0.140625 4.078125 0.140625 Z M 4.078125 0.140625 "/></g></g></g><g clip-path="url(#7169afe89f)"><path fill="#000000" d="M 194.859375 125.085938 L 194.898438 125.085938 L 194.898438 125.140625 C 195.753906 125.140625 196.617188 125.140625 197.472656 125.140625 L 197.652344 125.140625 L 197.652344 125.324219 C 197.652344 126.175781 197.652344 127.027344 197.652344 127.871094 L 197.691406 127.871094 L 197.691406 127.925781 C 198.546875 127.925781 199.410156 127.925781 200.265625 127.925781 L 200.445312 127.925781 L 200.445312 128.109375 C 200.445312 128.976562 200.445312 129.84375 200.445312 130.710938 C 201.316406 130.710938 202.1875 130.710938 203.058594 130.710938 L 203.238281 130.710938 L 203.238281 130.890625 C 203.238281 131.824219 203.238281 132.746094 203.238281 133.675781 C 203.238281 134.605469 203.238281 135.527344 203.238281 136.460938 C 203.238281 137.390625 203.238281 138.3125 203.238281 139.242188 C 203.238281 140.175781 203.238281 141.097656 203.238281 142.027344 C 203.238281 142.957031 203.238281 143.878906 203.238281 144.8125 L 203.238281 144.992188 L 203.058594 144.992188 C 202.1875 144.992188 201.316406 144.992188 200.445312 144.992188 C 200.445312 145.859375 200.445312 146.726562 200.445312 147.59375 L 200.445312 147.777344 L 200.265625 147.777344 C 199.394531 147.777344 198.523438 147.777344 197.652344 147.777344 C 197.652344 148.582031 197.652344 149.394531 197.652344 150.199219 C 198.523438 150.199219 199.394531 150.199219 200.265625 150.199219 L 200.445312 150.199219 L 200.445312 150.378906 C 200.445312 151.246094 200.445312 152.113281 200.445312 152.980469 C 201.316406 152.980469 202.1875 152.980469 203.058594 152.980469 L 203.238281 152.980469 L 203.238281 153.164062 C 203.238281 154.03125 203.238281 154.898438 203.238281 155.765625 C 204.109375 155.765625 204.980469 155.765625 205.851562 155.765625 L 206.035156 155.765625 L 206.035156 155.945312 C 206.035156 156.8125 206.035156 157.683594 206.035156 158.550781 C 206.902344 158.550781 207.773438 158.550781 208.644531 158.550781 L 208.828125 158.550781 L 208.828125 158.730469 C 208.828125 159.597656 208.828125 160.464844 208.828125 161.332031 C 209.699219 161.332031 210.566406 161.332031 211.4375 161.332031 C 212.371094 161.332031 213.296875 161.332031 214.230469 161.332031 L 214.414062 161.332031 L 214.414062 161.515625 C 214.414062 162.382812 214.414062 163.25 214.414062 164.117188 C 215.285156 164.117188 216.15625 164.117188 217.023438 164.117188 L 217.207031 164.117188 L 217.207031 164.296875 C 217.207031 165.164062 217.207031 166.035156 217.207031 166.902344 C 218.078125 166.902344 218.949219 166.902344 219.816406 166.902344 C 220.753906 166.902344 221.679688 166.902344 222.613281 166.902344 L 222.792969 166.902344 L 222.792969 167.082031 C 222.792969 167.949219 222.792969 168.816406 222.792969 169.683594 C 223.664062 169.683594 224.535156 169.683594 225.40625 169.683594 C 226.339844 169.683594 227.265625 169.683594 228.199219 169.683594 L 228.378906 169.683594 L 228.378906 169.867188 C 228.378906 170.734375 228.378906 171.601562 228.378906 172.46875 C 229.25 172.46875 230.121094 172.46875 230.992188 172.46875 L 231.171875 172.46875 L 231.171875 172.648438 C 231.171875 173.515625 231.171875 174.386719 231.171875 175.253906 C 232.042969 175.253906 232.914062 175.253906 233.785156 175.253906 L 233.96875 175.253906 L 233.96875 175.433594 C 233.96875 176.300781 233.96875 177.167969 233.96875 178.035156 C 234.835938 178.035156 235.707031 178.035156 236.578125 178.035156 L 236.761719 178.035156 L 236.761719 178.21875 C 236.761719 186.585938 236.761719 194.945312 236.761719 203.3125 L 236.761719 203.492188 L 236.578125 203.492188 C 235.644531 203.492188 234.71875 203.492188 233.785156 203.492188 C 232.914062 203.492188 232.042969 203.492188 231.171875 203.492188 C 231.171875 204.359375 231.171875 205.230469 231.171875 206.097656 L 231.171875 206.277344 L 230.992188 206.277344 C 230.121094 206.277344 229.25 206.277344 228.378906 206.277344 C 228.378906 207.144531 228.378906 208.011719 228.378906 208.878906 C 228.378906 209.8125 228.378906 210.734375 228.378906 211.664062 L 228.378906 211.84375 L 228.199219 211.84375 C 227.265625 211.84375 226.339844 211.84375 225.40625 211.84375 C 224.535156 211.84375 223.664062 211.84375 222.792969 211.84375 C 222.792969 212.710938 222.792969 213.582031 222.792969 214.449219 L 222.792969 214.628906 L 222.613281 214.628906 C 221.679688 214.628906 220.753906 214.628906 219.816406 214.628906 C 218.949219 214.628906 218.078125 214.628906 217.207031 214.628906 C 217.207031 215.496094 217.207031 216.363281 217.207031 217.230469 L 217.207031 217.414062 L 217.023438 217.414062 C 216.15625 217.414062 215.285156 217.414062 214.414062 217.414062 C 214.414062 218.28125 214.414062 219.148438 214.414062 220.015625 L 214.414062 220.195312 L 214.230469 220.195312 C 213.296875 220.195312 212.371094 220.195312 211.4375 220.195312 C 210.566406 220.195312 209.699219 220.195312 208.828125 220.195312 C 208.828125 221.066406 208.828125 221.933594 208.828125 222.800781 L 208.828125 222.980469 L 208.644531 222.980469 C 207.773438 222.980469 206.902344 222.980469 206.035156 222.980469 C 206.035156 223.847656 206.035156 224.714844 206.035156 225.582031 L 206.035156 225.765625 L 205.851562 225.765625 C 204.917969 225.765625 203.992188 225.765625 203.058594 225.765625 C 202.1875 225.765625 201.316406 225.765625 200.445312 225.765625 C 200.445312 226.632812 200.445312 227.5 200.445312 228.367188 L 200.445312 228.546875 L 200.265625 228.546875 C 199.394531 228.546875 198.523438 228.546875 197.652344 228.546875 C 197.652344 229.417969 197.652344 230.285156 197.652344 231.152344 L 197.652344 231.332031 L 197.472656 231.332031 C 196.601562 231.332031 195.730469 231.332031 194.859375 231.332031 C 194.859375 232.199219 194.859375 233.066406 194.859375 233.933594 L 194.859375 234.117188 L 194.679688 234.117188 C 192.34375 234.117188 190.015625 234.117188 187.683594 234.117188 C 185.347656 234.117188 183.023438 234.117188 180.6875 234.117188 L 180.503906 234.117188 L 180.503906 233.933594 C 180.503906 233.066406 180.503906 232.199219 180.503906 231.332031 C 179.636719 231.332031 178.765625 231.332031 177.894531 231.332031 L 177.710938 231.332031 L 177.710938 231.152344 C 177.710938 230.285156 177.710938 229.417969 177.710938 228.546875 C 176.84375 228.546875 175.972656 228.546875 175.101562 228.546875 L 174.917969 228.546875 L 174.917969 228.367188 C 174.917969 227.5 174.917969 226.632812 174.917969 225.765625 C 174.046875 225.765625 173.179688 225.765625 172.308594 225.765625 C 171.375 225.765625 170.449219 225.765625 169.515625 225.765625 L 169.324219 225.765625 L 169.324219 225.582031 C 169.324219 224.714844 169.324219 223.847656 169.324219 222.980469 C 168.453125 222.980469 167.582031 222.980469 166.714844 222.980469 L 166.53125 222.980469 L 166.53125 222.800781 C 166.53125 221.933594 166.53125 221.066406 166.53125 220.195312 C 165.660156 220.195312 164.789062 220.195312 163.917969 220.195312 C 162.984375 220.195312 162.058594 220.195312 161.125 220.195312 L 160.945312 220.195312 L 160.945312 220.015625 C 160.945312 219.148438 160.945312 218.28125 160.945312 217.414062 C 160.074219 217.414062 159.203125 217.414062 158.332031 217.414062 L 158.152344 217.414062 L 158.152344 217.230469 C 158.152344 216.363281 158.152344 215.496094 158.152344 214.628906 C 157.28125 214.628906 156.410156 214.628906 155.539062 214.628906 C 154.605469 214.628906 153.679688 214.628906 152.746094 214.628906 L 152.5625 214.628906 L 152.5625 214.449219 C 152.5625 213.582031 152.5625 212.710938 152.5625 211.84375 C 151.695312 211.84375 150.824219 211.84375 149.953125 211.84375 C 149.019531 211.84375 148.09375 211.84375 147.160156 211.84375 L 146.976562 211.84375 L 146.976562 211.664062 C 146.976562 210.734375 146.976562 209.8125 146.976562 208.878906 C 146.976562 208.011719 146.976562 207.144531 146.976562 206.277344 C 146.105469 206.277344 145.238281 206.277344 144.367188 206.277344 L 144.183594 206.277344 L 144.183594 206.097656 C 144.183594 205.230469 144.183594 204.359375 144.183594 203.492188 C 143.3125 203.492188 142.445312 203.492188 141.574219 203.492188 C 140.640625 203.492188 139.714844 203.492188 138.78125 203.492188 L 138.597656 203.492188 L 138.597656 203.3125 C 138.597656 194.945312 138.597656 186.585938 138.597656 178.21875 L 138.597656 178.035156 L 138.78125 178.035156 C 139.648438 178.035156 140.519531 178.035156 141.390625 178.035156 C 141.390625 177.167969 141.390625 176.292969 141.445312 175.425781 L 141.453125 175.253906 L 141.628906 175.253906 C 142.484375 175.253906 143.328125 175.253906 144.183594 175.253906 L 144.238281 175.253906 C 144.238281 174.386719 144.238281 173.515625 144.238281 172.648438 L 144.238281 172.46875 L 144.421875 172.46875 C 145.277344 172.46875 146.125 172.46875 146.976562 172.46875 L 147.03125 172.46875 C 147.03125 171.601562 147.03125 170.734375 147.03125 169.867188 L 147.03125 169.683594 L 147.214844 169.683594 C 148.148438 169.683594 149.074219 169.683594 150.007812 169.683594 C 150.863281 169.683594 151.710938 169.683594 152.5625 169.683594 L 152.621094 169.683594 C 152.621094 168.816406 152.621094 167.949219 152.621094 167.082031 L 152.621094 166.902344 L 152.800781 166.902344 C 153.734375 166.902344 154.660156 166.902344 155.59375 166.902344 C 156.449219 166.902344 157.296875 166.902344 158.152344 166.902344 L 158.207031 166.902344 C 158.207031 166.035156 158.207031 165.164062 158.207031 164.296875 L 158.207031 164.117188 L 158.386719 164.117188 C 159.257812 164.117188 160.128906 164.117188 161 164.117188 C 161 163.25 161 162.382812 161 161.515625 L 161 161.332031 L 161.183594 161.332031 C 162.117188 161.332031 163.042969 161.332031 163.976562 161.332031 C 164.828125 161.332031 165.675781 161.332031 166.53125 161.332031 L 166.585938 161.332031 C 166.585938 160.464844 166.585938 159.597656 166.585938 158.730469 L 166.585938 158.550781 L 166.769531 158.550781 C 167.625 158.550781 168.46875 158.550781 169.324219 158.550781 L 169.378906 158.550781 C 169.378906 157.683594 169.378906 156.8125 169.378906 155.945312 L 169.378906 155.773438 L 169.5625 155.773438 C 170.417969 155.773438 171.261719 155.773438 172.117188 155.773438 L 172.171875 155.773438 C 172.171875 154.90625 172.171875 154.039062 172.171875 153.171875 L 172.171875 152.988281 L 172.355469 152.988281 C 173.210938 152.988281 174.054688 152.988281 174.910156 152.988281 L 174.964844 152.988281 C 174.964844 152.121094 174.964844 151.253906 174.964844 150.386719 L 174.964844 150.207031 L 175.148438 150.207031 C 176.003906 150.207031 176.851562 150.207031 177.703125 150.207031 L 177.75 150.207031 L 177.75 150.175781 L 177.769531 150.175781 C 177.769531 149.378906 177.769531 148.582031 177.769531 147.785156 C 176.898438 147.785156 176.027344 147.785156 175.15625 147.785156 L 174.972656 147.785156 L 174.972656 147.601562 C 174.972656 146.734375 174.972656 145.867188 174.972656 145 C 174.105469 145 173.234375 145 172.363281 145 L 172.171875 145 L 172.171875 144.820312 C 172.171875 143.886719 172.171875 142.964844 172.171875 142.035156 C 172.171875 141.105469 172.171875 140.183594 172.171875 139.25 C 172.171875 138.320312 172.171875 137.398438 172.171875 136.46875 C 172.171875 135.535156 172.171875 134.613281 172.171875 133.683594 C 172.171875 132.753906 172.171875 131.832031 172.171875 130.898438 L 172.171875 130.71875 L 172.355469 130.71875 C 173.210938 130.71875 174.0625 130.71875 174.917969 130.71875 L 174.917969 130.640625 L 174.964844 130.640625 C 174.964844 129.796875 174.964844 128.960938 174.964844 128.117188 L 174.964844 127.933594 L 175.148438 127.933594 C 176.003906 127.933594 176.859375 127.933594 177.710938 127.933594 L 177.710938 127.855469 L 177.761719 127.855469 C 177.761719 127.011719 177.761719 126.175781 177.761719 125.332031 L 177.761719 125.152344 L 177.941406 125.152344 C 178.796875 125.152344 179.652344 125.152344 180.503906 125.152344 L 180.503906 125.070312 L 180.554688 125.070312 C 180.554688 124.226562 180.554688 123.390625 180.554688 122.546875 L 180.554688 122.367188 L 180.734375 122.367188 C 181.667969 122.367188 182.59375 122.367188 183.527344 122.367188 C 184.460938 122.367188 185.386719 122.367188 186.320312 122.367188 L 189.082031 122.367188 C 190.015625 122.367188 190.941406 122.367188 191.875 122.367188 C 192.8125 122.367188 193.738281 122.367188 194.671875 122.367188 L 194.851562 122.367188 L 194.851562 122.546875 C 194.859375 123.382812 194.859375 124.234375 194.859375 125.085938 Z M 194.859375 125.085938 " fill-opacity="1" fill-rule="evenodd"/></g><path fill="#fdf6e3" d="M 144.367188 192.175781 C 144.367188 193.105469 144.367188 194.039062 144.367188 194.960938 C 145.300781 194.960938 146.234375 194.960938 147.160156 194.960938 C 147.160156 195.890625 147.160156 196.820312 147.160156 197.746094 C 148.09375 197.746094 149.027344 197.746094 149.953125 197.746094 C 150.886719 197.746094 151.820312 197.746094 152.746094 197.746094 C 152.746094 198.675781 152.746094 199.605469 152.746094 200.527344 C 153.679688 200.527344 154.613281 200.527344 155.539062 200.527344 C 155.539062 201.460938 155.539062 202.390625 155.539062 203.3125 C 156.472656 203.3125 157.40625 203.3125 158.332031 203.3125 C 158.332031 204.242188 158.332031 205.171875 158.332031 206.097656 C 159.265625 206.097656 160.199219 206.097656 161.125 206.097656 C 161.125 207.027344 161.125 207.957031 161.125 208.878906 C 162.058594 208.878906 162.992188 208.878906 163.917969 208.878906 C 164.851562 208.878906 165.789062 208.878906 166.714844 208.878906 C 166.714844 209.8125 166.714844 210.742188 166.714844 211.664062 C 167.648438 211.664062 168.582031 211.664062 169.507812 211.664062 C 170.441406 211.664062 171.375 211.664062 172.300781 211.664062 C 172.300781 212.59375 172.300781 213.523438 172.300781 214.449219 C 173.234375 214.449219 174.167969 214.449219 175.09375 214.449219 C 175.09375 215.378906 175.09375 216.308594 175.09375 217.230469 C 176.027344 217.230469 176.960938 217.230469 177.886719 217.230469 C 178.820312 217.230469 179.753906 217.230469 180.679688 217.230469 C 180.679688 218.164062 180.679688 219.09375 180.679688 220.015625 L 194.734375 220.015625 C 194.734375 219.085938 194.734375 218.15625 194.734375 217.230469 C 195.667969 217.230469 196.601562 217.230469 197.527344 217.230469 C 198.460938 217.230469 199.394531 217.230469 200.320312 217.230469 C 200.320312 216.300781 200.320312 215.371094 200.320312 214.449219 C 201.253906 214.449219 202.1875 214.449219 203.113281 214.449219 C 203.113281 213.515625 203.113281 212.585938 203.113281 211.664062 C 204.046875 211.664062 204.980469 211.664062 205.90625 211.664062 C 206.839844 211.664062 207.773438 211.664062 208.699219 211.664062 C 208.699219 210.734375 208.699219 209.804688 208.699219 208.878906 C 209.632812 208.878906 210.566406 208.878906 211.492188 208.878906 C 212.425781 208.878906 213.359375 208.878906 214.285156 208.878906 C 214.285156 207.949219 214.285156 207.019531 214.285156 206.097656 C 215.21875 206.097656 216.152344 206.097656 217.078125 206.097656 C 217.078125 205.164062 217.078125 204.234375 217.078125 203.3125 C 218.015625 203.3125 218.949219 203.3125 219.875 203.3125 C 219.875 202.382812 219.875 201.449219 219.875 200.527344 C 220.808594 200.527344 221.742188 200.527344 222.667969 200.527344 C 222.667969 199.597656 222.667969 198.667969 222.667969 197.746094 C 223.601562 197.746094 224.535156 197.746094 225.460938 197.746094 C 226.394531 197.746094 227.328125 197.746094 228.253906 197.746094 C 228.253906 196.8125 228.253906 195.882812 228.253906 194.960938 C 229.1875 194.960938 230.121094 194.960938 231.046875 194.960938 C 231.046875 194.03125 231.046875 193.097656 231.046875 192.175781 C 231.046875 191.246094 231.046875 190.316406 231.046875 189.394531 C 231.046875 188.460938 231.046875 187.53125 231.046875 186.609375 C 231.046875 185.679688 231.046875 184.746094 231.046875 183.824219 C 231.046875 182.894531 231.046875 181.964844 231.046875 181.042969 C 231.046875 180.109375 231.046875 179.179688 231.046875 178.257812 C 231.046875 177.328125 231.046875 176.394531 231.046875 175.472656 C 230.113281 175.472656 229.179688 175.472656 228.253906 175.472656 C 228.253906 174.542969 228.253906 173.613281 228.253906 172.691406 C 227.320312 172.691406 226.386719 172.691406 225.460938 172.691406 C 224.527344 172.691406 223.59375 172.691406 222.667969 172.691406 C 222.667969 171.757812 222.667969 170.828125 222.667969 169.90625 C 221.734375 169.90625 220.800781 169.90625 219.875 169.90625 C 218.941406 169.90625 218.007812 169.90625 217.078125 169.90625 C 217.078125 168.976562 217.078125 168.042969 217.078125 167.121094 C 216.144531 167.121094 215.210938 167.121094 214.285156 167.121094 C 213.351562 167.121094 212.417969 167.121094 211.492188 167.121094 C 211.492188 166.191406 211.492188 165.261719 211.492188 164.335938 C 210.558594 164.335938 209.625 164.335938 208.699219 164.335938 C 208.699219 163.40625 208.699219 162.476562 208.699219 161.554688 C 207.765625 161.554688 206.832031 161.554688 205.90625 161.554688 C 205.90625 160.625 205.90625 159.691406 205.90625 158.769531 C 204.972656 158.769531 204.039062 158.769531 203.113281 158.769531 C 203.113281 157.839844 203.113281 156.910156 203.113281 155.984375 C 202.179688 155.984375 201.246094 155.984375 200.320312 155.984375 C 200.320312 155.054688 200.320312 154.125 200.320312 153.203125 C 199.386719 153.203125 198.453125 153.203125 197.527344 153.203125 C 196.59375 153.203125 195.660156 153.203125 194.734375 153.203125 L 194.734375 169.929688 C 195.667969 169.929688 196.601562 169.929688 197.527344 169.929688 C 197.527344 170.859375 197.527344 171.789062 197.527344 172.714844 C 198.460938 172.714844 199.394531 172.714844 200.320312 172.714844 C 200.320312 173.644531 200.320312 174.574219 200.320312 175.496094 C 200.320312 176.425781 200.320312 177.359375 200.320312 178.28125 C 199.386719 178.28125 198.453125 178.28125 197.527344 178.28125 C 197.527344 179.210938 197.527344 180.140625 197.527344 181.066406 C 196.59375 181.066406 195.660156 181.066406 194.734375 181.066406 C 194.734375 181.996094 194.734375 182.925781 194.734375 183.847656 C 193.800781 183.847656 192.867188 183.847656 191.941406 183.847656 C 191.007812 183.847656 190.074219 183.847656 189.148438 183.847656 C 188.210938 183.847656 187.277344 183.847656 186.351562 183.847656 C 185.417969 183.847656 184.484375 183.847656 183.558594 183.847656 C 182.625 183.847656 181.691406 183.847656 180.765625 183.847656 C 180.765625 182.917969 180.765625 181.988281 180.765625 181.066406 C 179.832031 181.066406 178.898438 181.066406 177.972656 181.066406 C 177.972656 180.132812 177.972656 179.203125 177.972656 178.28125 C 177.039062 178.28125 176.105469 178.28125 175.179688 178.28125 C 175.179688 177.351562 175.179688 176.417969 175.179688 175.496094 C 175.179688 174.566406 175.179688 173.636719 175.179688 172.714844 C 176.113281 172.714844 177.046875 172.714844 177.972656 172.714844 C 177.972656 171.78125 177.972656 170.851562 177.972656 169.929688 C 178.90625 169.929688 179.839844 169.929688 180.765625 169.929688 C 180.765625 169 180.765625 168.066406 180.765625 167.144531 C 180.765625 166.214844 180.765625 165.285156 180.765625 164.363281 C 180.765625 163.429688 180.765625 162.5 180.765625 161.578125 C 180.765625 160.648438 180.765625 159.714844 180.765625 158.792969 C 180.765625 157.863281 180.765625 156.933594 180.765625 156.011719 C 180.765625 155.078125 180.765625 154.148438 180.765625 153.226562 C 179.832031 153.226562 178.898438 153.226562 177.972656 153.226562 C 177.039062 153.226562 176.105469 153.226562 175.179688 153.226562 C 175.179688 154.15625 175.179688 155.085938 175.179688 156.011719 C 174.246094 156.011719 173.3125 156.011719 172.386719 156.011719 C 172.386719 156.941406 172.386719 157.871094 172.386719 158.792969 C 171.453125 158.792969 170.519531 158.792969 169.59375 158.792969 C 169.59375 159.722656 169.59375 160.65625 169.59375 161.578125 C 168.660156 161.578125 167.726562 161.578125 166.800781 161.578125 C 166.800781 162.507812 166.800781 163.4375 166.800781 164.363281 C 165.867188 164.363281 164.933594 164.363281 164.007812 164.363281 C 164.007812 165.292969 164.007812 166.222656 164.007812 167.144531 C 163.074219 167.144531 162.140625 167.144531 161.214844 167.144531 C 160.28125 167.144531 159.34375 167.144531 158.417969 167.144531 C 158.417969 168.074219 158.417969 169.007812 158.417969 169.929688 C 157.484375 169.929688 156.550781 169.929688 155.625 169.929688 C 154.691406 169.929688 153.757812 169.929688 152.832031 169.929688 C 152.832031 170.859375 152.832031 171.789062 152.832031 172.714844 C 151.898438 172.714844 150.964844 172.714844 150.039062 172.714844 C 149.105469 172.714844 148.171875 172.714844 147.246094 172.714844 C 147.246094 173.644531 147.246094 174.574219 147.246094 175.496094 C 146.3125 175.496094 145.378906 175.496094 144.453125 175.496094 C 144.453125 176.425781 144.453125 177.359375 144.453125 178.28125 C 144.453125 179.210938 144.453125 180.140625 144.453125 181.066406 C 144.453125 181.996094 144.453125 182.925781 144.453125 183.847656 C 144.453125 184.78125 144.453125 185.710938 144.453125 186.632812 C 144.453125 187.5625 144.453125 188.492188 144.453125 189.417969 C 144.367188 190.324219 144.367188 191.246094 144.367188 192.175781 Z M 144.367188 192.175781 " fill-opacity="1" fill-rule="evenodd"/><g clip-path="url(#6098e36728)"><path fill="#000000" d="M 141.566406 178.234375 C 140.632812 178.234375 139.699219 178.234375 138.773438 178.234375 C 138.773438 186.59375 138.773438 194.960938 138.773438 203.328125 C 139.707031 203.328125 140.640625 203.328125 141.566406 203.328125 C 142.5 203.328125 143.433594 203.328125 144.359375 203.328125 C 144.359375 204.257812 144.359375 205.1875 144.359375 206.113281 C 145.292969 206.113281 146.226562 206.113281 147.152344 206.113281 C 147.152344 207.042969 147.152344 207.972656 147.152344 208.894531 C 147.152344 209.828125 147.152344 210.757812 147.152344 211.679688 C 148.085938 211.679688 149.019531 211.679688 149.945312 211.679688 C 150.878906 211.679688 151.8125 211.679688 152.738281 211.679688 C 152.738281 212.609375 152.738281 213.539062 152.738281 214.464844 C 153.671875 214.464844 154.605469 214.464844 155.53125 214.464844 C 156.464844 214.464844 157.398438 214.464844 158.324219 214.464844 C 158.324219 215.394531 158.324219 216.324219 158.324219 217.246094 C 159.257812 217.246094 160.191406 217.246094 161.117188 217.246094 C 161.117188 218.179688 161.117188 219.109375 161.117188 220.03125 C 162.050781 220.03125 162.984375 220.03125 163.910156 220.03125 C 164.84375 220.03125 165.78125 220.03125 166.707031 220.03125 C 166.707031 220.960938 166.707031 221.894531 166.707031 222.816406 C 167.640625 222.816406 168.574219 222.816406 169.5 222.816406 C 169.5 223.746094 169.5 224.675781 169.5 225.597656 C 170.433594 225.597656 171.367188 225.597656 172.292969 225.597656 C 173.226562 225.597656 174.160156 225.597656 175.085938 225.597656 C 175.085938 226.53125 175.085938 227.460938 175.085938 228.382812 C 176.019531 228.382812 176.953125 228.382812 177.878906 228.382812 C 177.878906 229.3125 177.878906 230.246094 177.878906 231.167969 C 178.8125 231.167969 179.746094 231.167969 180.671875 231.167969 C 180.671875 232.097656 180.671875 233.027344 180.671875 233.949219 C 183.007812 233.949219 185.332031 233.949219 187.667969 233.949219 C 190 233.949219 192.328125 233.949219 194.664062 233.949219 C 194.664062 233.019531 194.664062 232.089844 194.664062 231.167969 C 195.597656 231.167969 196.53125 231.167969 197.457031 231.167969 C 197.457031 230.238281 197.457031 229.304688 197.457031 228.382812 C 198.390625 228.382812 199.324219 228.382812 200.25 228.382812 C 200.25 227.453125 200.25 226.523438 200.25 225.597656 C 201.183594 225.597656 202.117188 225.597656 203.042969 225.597656 C 203.976562 225.597656 204.910156 225.597656 205.835938 225.597656 C 205.835938 224.667969 205.835938 223.738281 205.835938 222.816406 C 206.769531 222.816406 207.703125 222.816406 208.628906 222.816406 C 208.628906 221.882812 208.628906 220.953125 208.628906 220.03125 C 209.5625 220.03125 210.496094 220.03125 211.421875 220.03125 C 212.355469 220.03125 213.289062 220.03125 214.214844 220.03125 C 214.214844 219.101562 214.214844 218.171875 214.214844 217.246094 C 215.148438 217.246094 216.082031 217.246094 217.007812 217.246094 C 217.007812 216.316406 217.007812 215.386719 217.007812 214.464844 C 217.941406 214.464844 218.875 214.464844 219.800781 214.464844 C 220.734375 214.464844 221.671875 214.464844 222.597656 214.464844 C 222.597656 213.53125 222.597656 212.601562 222.597656 211.679688 C 223.53125 211.679688 224.464844 211.679688 225.390625 211.679688 C 226.324219 211.679688 227.257812 211.679688 228.183594 211.679688 C 228.183594 210.75 228.183594 209.820312 228.183594 208.894531 C 228.183594 207.964844 228.183594 207.035156 228.183594 206.113281 C 229.117188 206.113281 230.050781 206.113281 230.976562 206.113281 C 230.976562 205.179688 230.976562 204.25 230.976562 203.328125 C 231.910156 203.328125 232.84375 203.328125 233.769531 203.328125 C 234.703125 203.328125 235.636719 203.328125 236.5625 203.328125 C 236.5625 194.96875 236.5625 186.601562 236.5625 178.234375 C 235.628906 178.234375 234.695312 178.234375 233.769531 178.234375 C 233.769531 177.304688 233.769531 176.371094 233.769531 175.449219 C 232.835938 175.449219 231.902344 175.449219 230.976562 175.449219 C 230.976562 174.519531 230.976562 173.589844 230.976562 172.664062 C 230.042969 172.664062 229.109375 172.664062 228.183594 172.664062 C 228.183594 171.734375 228.183594 170.804688 228.183594 169.882812 C 227.25 169.882812 226.316406 169.882812 225.390625 169.882812 C 224.457031 169.882812 223.523438 169.882812 222.597656 169.882812 C 222.597656 168.953125 222.597656 168.019531 222.597656 167.097656 C 221.660156 167.097656 220.726562 167.097656 219.800781 167.097656 C 218.867188 167.097656 217.933594 167.097656 217.007812 167.097656 C 217.007812 166.167969 217.007812 165.238281 217.007812 164.3125 C 216.074219 164.3125 215.140625 164.3125 214.214844 164.3125 C 214.214844 163.382812 214.214844 162.453125 214.214844 161.53125 C 213.28125 161.53125 212.347656 161.53125 211.421875 161.53125 C 210.488281 161.53125 209.554688 161.53125 208.628906 161.53125 C 208.628906 160.601562 208.628906 159.667969 208.628906 158.746094 C 207.695312 158.746094 206.761719 158.746094 205.835938 158.746094 C 205.835938 157.816406 205.835938 156.886719 205.835938 155.960938 C 204.902344 155.960938 203.96875 155.960938 203.042969 155.960938 C 203.042969 155.03125 203.042969 154.101562 203.042969 153.179688 C 202.109375 153.179688 201.175781 153.179688 200.25 153.179688 C 200.25 152.246094 200.25 151.316406 200.25 150.394531 C 199.316406 150.394531 198.382812 150.394531 197.457031 150.394531 C 197.457031 149.464844 197.457031 148.535156 197.457031 147.609375 C 198.390625 147.609375 199.324219 147.609375 200.25 147.609375 C 200.25 146.679688 200.25 145.75 200.25 144.828125 C 201.183594 144.828125 202.117188 144.828125 203.042969 144.828125 C 203.042969 143.894531 203.042969 142.964844 203.042969 142.042969 C 203.042969 141.113281 203.042969 140.183594 203.042969 139.257812 C 203.042969 138.328125 203.042969 137.398438 203.042969 136.476562 C 203.042969 135.542969 203.042969 134.613281 203.042969 133.691406 C 203.042969 132.761719 203.042969 131.832031 203.042969 130.90625 C 202.109375 130.90625 201.175781 130.90625 200.25 130.90625 C 200.25 129.976562 200.25 129.046875 200.25 128.125 C 199.316406 128.125 198.382812 128.125 197.457031 128.125 C 197.457031 127.191406 197.457031 126.261719 197.457031 125.339844 C 196.523438 125.339844 195.589844 125.339844 194.664062 125.339844 C 194.664062 124.410156 194.664062 123.476562 194.664062 122.554688 C 193.730469 122.554688 192.792969 122.554688 191.867188 122.554688 C 190.933594 122.554688 190 122.554688 189.074219 122.554688 L 186.3125 122.554688 C 185.378906 122.554688 184.445312 122.554688 183.519531 122.554688 C 182.585938 122.554688 181.652344 122.554688 180.726562 122.554688 C 180.726562 123.488281 180.726562 124.417969 180.726562 125.339844 C 179.792969 125.339844 178.859375 125.339844 177.933594 125.339844 C 177.933594 126.269531 177.933594 127.199219 177.933594 128.125 C 177 128.125 176.066406 128.125 175.140625 128.125 C 175.140625 129.054688 175.140625 129.984375 175.140625 130.90625 C 174.207031 130.90625 173.273438 130.90625 172.347656 130.90625 C 172.347656 131.839844 172.347656 132.769531 172.347656 133.691406 C 172.347656 134.621094 172.347656 135.550781 172.347656 136.476562 C 172.347656 137.40625 172.347656 138.335938 172.347656 139.257812 C 172.347656 140.191406 172.347656 141.121094 172.347656 142.042969 C 172.347656 142.972656 172.347656 143.902344 172.347656 144.828125 C 173.28125 144.828125 174.214844 144.828125 175.140625 144.828125 C 175.140625 145.757812 175.140625 146.6875 175.140625 147.609375 C 176.074219 147.609375 177.007812 147.609375 177.933594 147.609375 C 177.933594 148.542969 177.933594 149.472656 177.933594 150.394531 C 177 150.394531 176.066406 150.394531 175.140625 150.394531 C 175.140625 151.324219 175.140625 152.257812 175.140625 153.179688 C 174.207031 153.179688 173.273438 153.179688 172.347656 153.179688 C 172.347656 154.109375 172.347656 155.039062 172.347656 155.960938 C 171.414062 155.960938 170.480469 155.960938 169.554688 155.960938 C 169.554688 156.894531 169.554688 157.824219 169.554688 158.746094 C 168.621094 158.746094 167.6875 158.746094 166.761719 158.746094 C 166.761719 159.675781 166.761719 160.609375 166.761719 161.53125 C 165.828125 161.53125 164.894531 161.53125 163.96875 161.53125 C 163.035156 161.53125 162.101562 161.53125 161.175781 161.53125 C 161.175781 162.460938 161.175781 163.390625 161.175781 164.3125 C 160.238281 164.3125 159.304688 164.3125 158.378906 164.3125 C 158.378906 165.246094 158.378906 166.175781 158.378906 167.097656 C 157.445312 167.097656 156.511719 167.097656 155.585938 167.097656 C 154.652344 167.097656 153.71875 167.097656 152.792969 167.097656 C 152.792969 168.027344 152.792969 168.960938 152.792969 169.882812 C 151.859375 169.882812 150.925781 169.882812 150 169.882812 C 149.066406 169.882812 148.132812 169.882812 147.207031 169.882812 C 147.207031 170.8125 147.207031 171.742188 147.207031 172.664062 C 146.273438 172.664062 145.339844 172.664062 144.414062 172.664062 C 144.414062 173.597656 144.414062 174.527344 144.414062 175.449219 C 143.480469 175.449219 142.546875 175.449219 141.621094 175.449219 C 141.566406 176.371094 141.566406 177.304688 141.566406 178.234375 Z M 191.925781 172.65625 C 191.925781 173.589844 191.925781 174.519531 191.925781 175.441406 C 191.925781 176.371094 191.925781 177.304688 191.925781 178.226562 C 190.992188 178.226562 190.058594 178.226562 189.132812 178.226562 C 188.199219 178.226562 187.261719 178.226562 186.335938 178.226562 C 185.402344 178.226562 184.46875 178.226562 183.542969 178.226562 C 183.542969 177.296875 183.542969 176.363281 183.542969 175.441406 C 183.542969 174.511719 183.542969 173.582031 183.542969 172.65625 C 183.542969 171.726562 183.542969 170.796875 183.542969 169.875 C 183.542969 168.945312 183.542969 168.011719 183.542969 167.089844 C 183.542969 166.160156 183.542969 165.230469 183.542969 164.304688 C 183.542969 163.375 183.542969 162.445312 183.542969 161.523438 C 183.542969 160.59375 183.542969 159.660156 183.542969 158.738281 C 183.542969 157.808594 183.542969 156.878906 183.542969 155.953125 C 183.542969 155.023438 183.542969 154.09375 183.542969 153.171875 L 191.933594 153.171875 Z M 175.140625 175.449219 C 175.140625 176.378906 175.140625 177.3125 175.140625 178.234375 C 176.074219 178.234375 177.007812 178.234375 177.933594 178.234375 C 178.867188 178.234375 179.800781 178.234375 180.726562 178.234375 C 180.726562 179.164062 180.726562 180.09375 180.726562 181.015625 C 181.660156 181.015625 182.59375 181.015625 183.519531 181.015625 C 184.453125 181.015625 185.386719 181.015625 186.3125 181.015625 C 187.246094 181.015625 188.179688 181.015625 189.105469 181.015625 C 190.042969 181.015625 190.976562 181.015625 191.902344 181.015625 C 192.835938 181.015625 193.769531 181.015625 194.695312 181.015625 C 194.695312 180.085938 194.695312 179.15625 194.695312 178.234375 C 195.628906 178.234375 196.5625 178.234375 197.488281 178.234375 C 198.421875 178.234375 199.355469 178.234375 200.28125 178.234375 C 200.28125 177.304688 200.28125 176.371094 200.28125 175.449219 C 200.28125 174.519531 200.28125 173.589844 200.28125 172.664062 C 199.347656 172.664062 198.414062 172.664062 197.488281 172.664062 C 197.488281 171.734375 197.488281 170.804688 197.488281 169.882812 C 196.554688 169.882812 195.621094 169.882812 194.695312 169.882812 L 194.695312 150.300781 L 180.6875 150.300781 C 180.6875 149.371094 180.6875 148.4375 180.6875 147.515625 C 179.753906 147.515625 178.820312 147.515625 177.894531 147.515625 C 177.894531 146.585938 177.894531 145.65625 177.894531 144.730469 C 176.960938 144.730469 176.027344 144.730469 175.101562 144.730469 C 175.101562 143.800781 175.101562 142.871094 175.101562 141.949219 C 175.101562 141.019531 175.101562 140.085938 175.101562 139.164062 C 175.101562 138.234375 175.101562 137.304688 175.101562 136.378906 C 175.101562 135.449219 175.101562 134.519531 175.101562 133.597656 C 175.101562 132.667969 175.101562 131.734375 175.101562 130.8125 C 176.035156 130.8125 176.96875 130.8125 177.894531 130.8125 C 177.894531 129.882812 177.894531 128.953125 177.894531 128.027344 C 178.828125 128.027344 179.761719 128.027344 180.6875 128.027344 C 180.6875 127.097656 180.6875 126.167969 180.6875 125.246094 C 181.621094 125.246094 182.554688 125.246094 183.480469 125.246094 C 184.414062 125.246094 185.347656 125.246094 186.273438 125.246094 L 189.074219 125.246094 C 190.007812 125.246094 190.941406 125.246094 191.867188 125.246094 C 192.804688 125.246094 193.738281 125.246094 194.664062 125.246094 C 194.664062 126.175781 194.664062 127.105469 194.664062 128.027344 C 195.597656 128.027344 196.53125 128.027344 197.457031 128.027344 C 197.457031 128.960938 197.457031 129.890625 197.457031 130.8125 C 198.390625 130.8125 199.324219 130.8125 200.25 130.8125 C 200.25 131.742188 200.25 132.675781 200.25 133.597656 C 200.25 134.527344 200.25 135.457031 200.25 136.378906 C 200.25 137.3125 200.25 138.242188 200.25 139.164062 C 200.25 140.09375 200.25 141.027344 200.25 141.949219 C 200.25 142.878906 200.25 143.808594 200.25 144.730469 C 199.316406 144.730469 198.382812 144.730469 197.457031 144.730469 C 197.457031 145.664062 197.457031 146.59375 197.457031 147.515625 C 196.523438 147.515625 195.589844 147.515625 194.664062 147.515625 C 194.664062 148.445312 194.664062 149.378906 194.664062 150.300781 C 195.597656 150.300781 196.53125 150.300781 197.457031 150.300781 C 197.457031 151.230469 197.457031 152.160156 197.457031 153.082031 C 198.390625 153.082031 199.324219 153.082031 200.25 153.082031 C 200.25 154.015625 200.25 154.945312 200.25 155.867188 C 201.183594 155.867188 202.117188 155.867188 203.042969 155.867188 C 203.042969 156.796875 203.042969 157.730469 203.042969 158.652344 C 203.976562 158.652344 204.910156 158.652344 205.835938 158.652344 C 205.835938 159.582031 205.835938 160.511719 205.835938 161.4375 C 206.769531 161.4375 207.703125 161.4375 208.628906 161.4375 C 208.628906 162.367188 208.628906 163.296875 208.628906 164.21875 C 209.5625 164.21875 210.496094 164.21875 211.421875 164.21875 C 211.421875 165.148438 211.421875 166.082031 211.421875 167.003906 C 212.355469 167.003906 213.289062 167.003906 214.214844 167.003906 C 215.148438 167.003906 216.082031 167.003906 217.007812 167.003906 C 217.007812 167.933594 217.007812 168.863281 217.007812 169.789062 C 217.941406 169.789062 218.875 169.789062 219.800781 169.789062 C 220.734375 169.789062 221.671875 169.789062 222.597656 169.789062 C 222.597656 170.71875 222.597656 171.648438 222.597656 172.570312 C 223.53125 172.570312 224.464844 172.570312 225.390625 172.570312 C 226.324219 172.570312 227.257812 172.570312 228.183594 172.570312 C 228.183594 173.5 228.183594 174.433594 228.183594 175.355469 C 229.117188 175.355469 230.050781 175.355469 230.976562 175.355469 C 230.976562 176.285156 230.976562 177.214844 230.976562 178.140625 C 231.910156 178.140625 232.84375 178.140625 233.769531 178.140625 L 233.769531 200.449219 C 232.835938 200.449219 231.902344 200.449219 230.976562 200.449219 C 230.042969 200.449219 229.109375 200.449219 228.183594 200.449219 C 228.183594 201.378906 228.183594 202.3125 228.183594 203.234375 C 227.25 203.234375 226.316406 203.234375 225.390625 203.234375 C 225.390625 204.164062 225.390625 205.09375 225.390625 206.015625 C 225.390625 206.949219 225.390625 207.878906 225.390625 208.800781 C 224.457031 208.800781 223.523438 208.800781 222.597656 208.800781 C 221.660156 208.800781 220.726562 208.800781 219.800781 208.800781 C 219.800781 209.730469 219.800781 210.664062 219.800781 211.585938 C 218.867188 211.585938 217.933594 211.585938 217.007812 211.585938 C 216.074219 211.585938 215.140625 211.585938 214.214844 211.585938 C 214.214844 212.515625 214.214844 213.445312 214.214844 214.367188 C 213.28125 214.367188 212.347656 214.367188 211.421875 214.367188 C 211.421875 215.300781 211.421875 216.230469 211.421875 217.152344 C 210.488281 217.152344 209.554688 217.152344 208.628906 217.152344 C 207.695312 217.152344 206.761719 217.152344 205.835938 217.152344 C 205.835938 218.082031 205.835938 219.015625 205.835938 219.9375 C 204.902344 219.9375 203.96875 219.9375 203.042969 219.9375 C 203.042969 220.867188 203.042969 221.796875 203.042969 222.722656 C 202.109375 222.722656 201.175781 222.722656 200.25 222.722656 C 199.316406 222.722656 198.382812 222.722656 197.457031 222.722656 C 197.457031 223.652344 197.457031 224.582031 197.457031 225.503906 C 197.457031 226.433594 197.457031 227.367188 197.457031 228.289062 C 196.523438 228.289062 195.589844 228.289062 194.664062 228.289062 C 194.664062 229.21875 194.664062 230.148438 194.664062 231.074219 C 192.328125 231.074219 190 231.074219 187.667969 231.074219 C 185.332031 231.074219 183.007812 231.074219 180.671875 231.074219 C 180.671875 230.140625 180.671875 229.210938 180.671875 228.289062 C 179.738281 228.289062 178.804688 228.289062 177.878906 228.289062 C 177.878906 227.359375 177.878906 226.425781 177.878906 225.503906 C 177.878906 224.574219 177.878906 223.644531 177.878906 222.722656 C 176.945312 222.722656 176.011719 222.722656 175.085938 222.722656 C 174.152344 222.722656 173.21875 222.722656 172.292969 222.722656 C 172.292969 221.789062 172.292969 220.859375 172.292969 219.9375 C 171.359375 219.9375 170.425781 219.9375 169.5 219.9375 C 169.5 219.007812 169.5 218.074219 169.5 217.152344 C 168.566406 217.152344 167.632812 217.152344 166.707031 217.152344 C 165.769531 217.152344 164.835938 217.152344 163.910156 217.152344 C 163.910156 216.222656 163.910156 215.292969 163.910156 214.367188 C 162.976562 214.367188 162.042969 214.367188 161.117188 214.367188 C 161.117188 213.4375 161.117188 212.507812 161.117188 211.585938 C 160.183594 211.585938 159.25 211.585938 158.324219 211.585938 C 157.390625 211.585938 156.457031 211.585938 155.53125 211.585938 C 155.53125 210.65625 155.53125 209.722656 155.53125 208.800781 C 154.597656 208.800781 153.664062 208.800781 152.738281 208.800781 C 151.804688 208.800781 150.871094 208.800781 149.945312 208.800781 C 149.945312 207.871094 149.945312 206.941406 149.945312 206.015625 C 149.945312 205.085938 149.945312 204.15625 149.945312 203.234375 C 149.011719 203.234375 148.078125 203.234375 147.152344 203.234375 C 147.152344 202.304688 147.152344 201.371094 147.152344 200.449219 C 146.21875 200.449219 145.285156 200.449219 144.359375 200.449219 C 143.425781 200.449219 142.492188 200.449219 141.566406 200.449219 L 141.566406 178.21875 C 142.5 178.21875 143.433594 178.21875 144.359375 178.21875 C 144.359375 177.289062 144.359375 176.355469 144.359375 175.433594 C 145.292969 175.433594 146.226562 175.433594 147.152344 175.433594 C 147.152344 174.503906 147.152344 173.574219 147.152344 172.648438 C 148.085938 172.648438 149.019531 172.648438 149.945312 172.648438 C 150.878906 172.648438 151.8125 172.648438 152.738281 172.648438 C 152.738281 171.71875 152.738281 170.789062 152.738281 169.867188 C 153.671875 169.867188 154.605469 169.867188 155.53125 169.867188 C 156.464844 169.867188 157.398438 169.867188 158.324219 169.867188 C 158.324219 168.9375 158.324219 168.003906 158.324219 167.082031 C 159.257812 167.082031 160.191406 167.082031 161.117188 167.082031 C 162.050781 167.082031 162.984375 167.082031 163.910156 167.082031 C 163.910156 166.152344 163.910156 165.222656 163.910156 164.296875 C 164.84375 164.296875 165.78125 164.296875 166.707031 164.296875 C 166.707031 163.367188 166.707031 162.4375 166.707031 161.515625 C 167.640625 161.515625 168.574219 161.515625 169.5 161.515625 C 169.5 160.582031 169.5 159.652344 169.5 158.730469 C 170.433594 158.730469 171.367188 158.730469 172.292969 158.730469 C 172.292969 157.800781 172.292969 156.871094 172.292969 155.945312 C 173.226562 155.945312 174.160156 155.945312 175.085938 155.945312 C 175.085938 155.015625 175.085938 154.085938 175.085938 153.164062 C 176.019531 153.164062 176.953125 153.164062 177.878906 153.164062 C 177.878906 152.230469 177.878906 151.300781 177.878906 150.378906 C 178.8125 150.378906 179.746094 150.378906 180.671875 150.378906 C 180.671875 151.308594 180.671875 152.238281 180.671875 153.164062 C 180.671875 154.09375 180.671875 155.023438 180.671875 155.945312 C 180.671875 156.878906 180.671875 157.808594 180.671875 158.730469 C 180.671875 159.660156 180.671875 160.59375 180.671875 161.515625 C 180.671875 162.445312 180.671875 163.375 180.671875 164.296875 C 180.671875 165.230469 180.671875 166.160156 180.671875 167.082031 C 180.671875 168.011719 180.671875 168.945312 180.671875 169.867188 C 179.738281 169.867188 178.804688 169.867188 177.878906 169.867188 C 177.878906 170.796875 177.878906 171.726562 177.878906 172.648438 C 176.945312 172.648438 176.011719 172.648438 175.085938 172.648438 C 175.140625 173.589844 175.140625 174.519531 175.140625 175.449219 Z M 175.140625 175.449219 " fill-opacity="1" fill-rule="evenodd"/></g><path fill="#50597a" d="M 144.367188 197.753906 C 143.433594 197.753906 142.5 197.753906 141.574219 197.753906 C 141.574219 198.683594 141.574219 199.613281 141.574219 200.535156 C 142.507812 200.535156 143.441406 200.535156 144.367188 200.535156 C 145.300781 200.535156 146.234375 200.535156 147.160156 200.535156 C 147.160156 201.46875 147.160156 202.398438 147.160156 203.320312 C 148.09375 203.320312 149.027344 203.320312 149.953125 203.320312 C 149.953125 204.25 149.953125 205.179688 149.953125 206.105469 C 149.953125 207.035156 149.953125 207.964844 149.953125 208.886719 C 150.886719 208.886719 151.820312 208.886719 152.746094 208.886719 C 153.679688 208.886719 154.613281 208.886719 155.539062 208.886719 C 155.539062 209.820312 155.539062 210.75 155.539062 211.671875 C 156.472656 211.671875 157.40625 211.671875 158.332031 211.671875 C 159.265625 211.671875 160.199219 211.671875 161.125 211.671875 C 161.125 212.601562 161.125 213.53125 161.125 214.457031 C 162.058594 214.457031 162.992188 214.457031 163.917969 214.457031 C 163.917969 215.386719 163.917969 216.316406 163.917969 217.238281 C 164.851562 217.238281 165.789062 217.238281 166.714844 217.238281 C 167.648438 217.238281 168.582031 217.238281 169.507812 217.238281 C 169.507812 218.171875 169.507812 219.101562 169.507812 220.023438 C 170.441406 220.023438 171.375 220.023438 172.300781 220.023438 C 172.300781 220.953125 172.300781 221.886719 172.300781 222.808594 C 173.234375 222.808594 174.167969 222.808594 175.09375 222.808594 C 176.027344 222.808594 176.960938 222.808594 177.886719 222.808594 C 177.886719 223.738281 177.886719 224.667969 177.886719 225.589844 C 177.886719 226.523438 177.886719 227.453125 177.886719 228.375 C 178.820312 228.375 179.753906 228.375 180.679688 228.375 C 180.679688 229.304688 180.679688 230.238281 180.679688 231.160156 C 183.015625 231.160156 185.339844 231.160156 187.675781 231.160156 C 190.007812 231.160156 192.335938 231.160156 194.671875 231.160156 C 194.671875 230.230469 194.671875 229.296875 194.671875 228.375 C 195.605469 228.375 196.539062 228.375 197.464844 228.375 C 197.464844 227.445312 197.464844 226.515625 197.464844 225.589844 C 197.464844 224.660156 197.464844 223.730469 197.464844 222.808594 C 198.398438 222.808594 199.332031 222.808594 200.257812 222.808594 C 201.191406 222.808594 202.125 222.808594 203.050781 222.808594 C 203.050781 221.875 203.050781 220.945312 203.050781 220.023438 C 203.984375 220.023438 204.917969 220.023438 205.84375 220.023438 C 205.84375 219.09375 205.84375 218.164062 205.84375 217.238281 C 206.777344 217.238281 207.710938 217.238281 208.636719 217.238281 C 209.570312 217.238281 210.503906 217.238281 211.429688 217.238281 C 211.429688 216.308594 211.429688 215.378906 211.429688 214.457031 C 212.363281 214.457031 213.296875 214.457031 214.222656 214.457031 C 214.222656 213.523438 214.222656 212.59375 214.222656 211.671875 C 215.15625 211.671875 216.089844 211.671875 217.015625 211.671875 C 217.949219 211.671875 218.882812 211.671875 219.808594 211.671875 C 219.808594 210.742188 219.808594 209.8125 219.808594 208.886719 C 220.746094 208.886719 221.679688 208.886719 222.605469 208.886719 C 223.539062 208.886719 224.472656 208.886719 225.398438 208.886719 C 225.398438 207.957031 225.398438 207.027344 225.398438 206.105469 C 225.398438 205.171875 225.398438 204.242188 225.398438 203.320312 C 226.332031 203.320312 227.265625 203.320312 228.191406 203.320312 C 228.191406 202.390625 228.191406 201.460938 228.191406 200.535156 C 229.125 200.535156 230.058594 200.535156 230.984375 200.535156 C 231.917969 200.535156 232.851562 200.535156 233.777344 200.535156 C 233.777344 199.605469 233.777344 198.675781 233.777344 197.753906 C 232.84375 197.753906 231.910156 197.753906 230.984375 197.753906 C 230.050781 197.753906 229.117188 197.753906 228.191406 197.753906 C 228.191406 198.683594 228.191406 199.613281 228.191406 200.535156 C 227.257812 200.535156 226.324219 200.535156 225.398438 200.535156 C 224.464844 200.535156 223.53125 200.535156 222.605469 200.535156 C 222.605469 201.46875 222.605469 202.398438 222.605469 203.320312 C 222.605469 204.25 222.605469 205.179688 222.605469 206.105469 C 221.671875 206.105469 220.734375 206.105469 219.808594 206.105469 C 218.875 206.105469 217.941406 206.105469 217.015625 206.105469 C 217.015625 207.035156 217.015625 207.964844 217.015625 208.886719 C 216.082031 208.886719 215.148438 208.886719 214.222656 208.886719 C 214.222656 209.820312 214.222656 210.75 214.222656 211.671875 C 213.289062 211.671875 212.355469 211.671875 211.429688 211.671875 C 210.496094 211.671875 209.5625 211.671875 208.636719 211.671875 C 208.636719 212.601562 208.636719 213.53125 208.636719 214.457031 C 207.703125 214.457031 206.769531 214.457031 205.84375 214.457031 C 204.910156 214.457031 203.976562 214.457031 203.050781 214.457031 C 203.050781 215.386719 203.050781 216.316406 203.050781 217.238281 C 202.117188 217.238281 201.183594 217.238281 200.257812 217.238281 C 200.257812 218.171875 200.257812 219.101562 200.257812 220.023438 C 199.324219 220.023438 198.390625 220.023438 197.464844 220.023438 C 196.53125 220.023438 195.597656 220.023438 194.671875 220.023438 C 194.671875 220.953125 194.671875 221.886719 194.671875 222.808594 C 194.671875 223.738281 194.671875 224.667969 194.671875 225.589844 C 193.738281 225.589844 192.804688 225.589844 191.875 225.589844 C 191.875 226.523438 191.875 227.453125 191.875 228.375 L 183.511719 228.375 C 183.511719 227.445312 183.511719 226.515625 183.511719 225.589844 C 182.578125 225.589844 181.644531 225.589844 180.71875 225.589844 C 180.71875 224.660156 180.71875 223.730469 180.71875 222.808594 C 180.71875 221.875 180.71875 220.945312 180.71875 220.023438 C 179.785156 220.023438 178.851562 220.023438 177.925781 220.023438 C 176.992188 220.023438 176.058594 220.023438 175.132812 220.023438 C 175.132812 219.09375 175.132812 218.164062 175.132812 217.238281 C 174.199219 217.238281 173.265625 217.238281 172.339844 217.238281 C 172.339844 216.308594 172.339844 215.378906 172.339844 214.457031 C 171.40625 214.457031 170.472656 214.457031 169.546875 214.457031 C 168.613281 214.457031 167.679688 214.457031 166.753906 214.457031 C 166.753906 213.523438 166.753906 212.59375 166.753906 211.671875 C 165.820312 211.671875 164.886719 211.671875 163.960938 211.671875 C 163.027344 211.671875 162.09375 211.671875 161.164062 211.671875 C 161.164062 210.742188 161.164062 209.8125 161.164062 208.886719 C 160.230469 208.886719 159.296875 208.886719 158.371094 208.886719 C 158.371094 207.957031 158.371094 207.027344 158.371094 206.105469 C 157.4375 206.105469 156.503906 206.105469 155.578125 206.105469 C 154.644531 206.105469 153.710938 206.105469 152.785156 206.105469 C 152.785156 205.171875 152.785156 204.242188 152.785156 203.320312 C 152.785156 202.390625 152.785156 201.460938 152.785156 200.535156 C 151.851562 200.535156 150.917969 200.535156 149.992188 200.535156 C 149.058594 200.535156 148.125 200.535156 147.199219 200.535156 C 147.199219 199.605469 147.199219 198.675781 147.199219 197.753906 C 146.234375 197.753906 145.300781 197.753906 144.367188 197.753906 Z M 144.367188 197.753906 " fill-opacity="1" fill-rule="evenodd"/><path fill="#9eadce" d="M 144.367188 194.96875 C 144.367188 194.039062 144.367188 193.105469 144.367188 192.183594 C 144.367188 191.253906 144.367188 190.324219 144.367188 189.402344 C 144.367188 188.46875 144.367188 187.539062 144.367188 186.617188 C 144.367188 185.6875 144.367188 184.753906 144.367188 183.832031 C 144.367188 182.902344 144.367188 181.972656 144.367188 181.050781 C 144.367188 180.117188 144.367188 179.1875 144.367188 178.265625 C 143.433594 178.265625 142.5 178.265625 141.574219 178.265625 C 141.574219 179.195312 141.574219 180.125 141.574219 181.050781 C 141.574219 181.980469 141.574219 182.910156 141.574219 183.832031 C 141.574219 184.761719 141.574219 185.695312 141.574219 186.617188 C 141.574219 187.546875 141.574219 188.476562 141.574219 189.402344 C 141.574219 190.332031 141.574219 191.261719 141.574219 192.183594 C 141.574219 193.113281 141.574219 194.046875 141.574219 194.96875 C 141.574219 195.898438 141.574219 196.828125 141.574219 197.753906 C 142.507812 197.753906 143.441406 197.753906 144.367188 197.753906 C 145.300781 197.753906 146.234375 197.753906 147.160156 197.753906 C 147.160156 198.683594 147.160156 199.613281 147.160156 200.535156 C 148.09375 200.535156 149.027344 200.535156 149.953125 200.535156 C 150.886719 200.535156 151.820312 200.535156 152.746094 200.535156 C 152.746094 201.46875 152.746094 202.398438 152.746094 203.320312 C 152.746094 204.25 152.746094 205.179688 152.746094 206.105469 C 153.679688 206.105469 154.613281 206.105469 155.539062 206.105469 C 156.472656 206.105469 157.40625 206.105469 158.332031 206.105469 C 158.332031 207.035156 158.332031 207.964844 158.332031 208.886719 C 159.265625 208.886719 160.199219 208.886719 161.125 208.886719 C 161.125 209.820312 161.125 210.75 161.125 211.671875 C 162.058594 211.671875 162.992188 211.671875 163.917969 211.671875 C 164.851562 211.671875 165.789062 211.671875 166.714844 211.671875 C 166.714844 212.601562 166.714844 213.53125 166.714844 214.457031 C 167.648438 214.457031 168.582031 214.457031 169.507812 214.457031 C 170.441406 214.457031 171.375 214.457031 172.300781 214.457031 C 172.300781 215.386719 172.300781 216.316406 172.300781 217.238281 C 173.234375 217.238281 174.167969 217.238281 175.09375 217.238281 C 175.09375 218.171875 175.09375 219.101562 175.09375 220.023438 C 176.027344 220.023438 176.960938 220.023438 177.886719 220.023438 C 178.820312 220.023438 179.753906 220.023438 180.679688 220.023438 C 180.679688 219.09375 180.679688 218.164062 180.679688 217.238281 C 179.746094 217.238281 178.8125 217.238281 177.886719 217.238281 C 176.953125 217.238281 176.019531 217.238281 175.09375 217.238281 C 175.09375 216.308594 175.09375 215.378906 175.09375 214.457031 C 174.160156 214.457031 173.226562 214.457031 172.300781 214.457031 C 172.300781 213.523438 172.300781 212.59375 172.300781 211.671875 C 171.367188 211.671875 170.433594 211.671875 169.507812 211.671875 C 168.574219 211.671875 167.640625 211.671875 166.714844 211.671875 C 166.714844 210.742188 166.714844 209.8125 166.714844 208.886719 C 165.78125 208.886719 164.84375 208.886719 163.917969 208.886719 C 162.984375 208.886719 162.050781 208.886719 161.125 208.886719 C 161.125 207.957031 161.125 207.027344 161.125 206.105469 C 160.191406 206.105469 159.257812 206.105469 158.332031 206.105469 C 158.332031 205.171875 158.332031 204.242188 158.332031 203.320312 C 157.398438 203.320312 156.464844 203.320312 155.539062 203.320312 C 155.539062 202.390625 155.539062 201.460938 155.539062 200.535156 C 154.605469 200.535156 153.671875 200.535156 152.746094 200.535156 C 152.746094 199.605469 152.746094 198.675781 152.746094 197.753906 C 151.8125 197.753906 150.878906 197.753906 149.953125 197.753906 C 149.019531 197.753906 148.085938 197.753906 147.160156 197.753906 C 147.160156 196.820312 147.160156 195.890625 147.160156 194.96875 C 146.234375 194.96875 145.300781 194.96875 144.367188 194.96875 Z M 183.527344 181.027344 C 182.59375 181.027344 181.660156 181.027344 180.734375 181.027344 C 180.734375 180.09375 180.734375 179.164062 180.734375 178.242188 C 179.800781 178.242188 178.867188 178.242188 177.941406 178.242188 C 177.941406 179.171875 177.941406 180.101562 177.941406 181.027344 C 178.875 181.027344 179.808594 181.027344 180.734375 181.027344 C 180.734375 181.957031 180.734375 182.886719 180.734375 183.808594 C 181.667969 183.808594 182.601562 183.808594 183.527344 183.808594 C 184.460938 183.808594 185.394531 183.808594 186.320312 183.808594 C 187.253906 183.808594 188.1875 183.808594 189.113281 183.808594 C 190.050781 183.808594 190.984375 183.808594 191.910156 183.808594 C 192.84375 183.808594 193.777344 183.808594 194.703125 183.808594 C 194.703125 182.878906 194.703125 181.949219 194.703125 181.027344 C 195.636719 181.027344 196.570312 181.027344 197.496094 181.027344 C 197.496094 180.09375 197.496094 179.164062 197.496094 178.242188 C 196.5625 178.242188 195.628906 178.242188 194.703125 178.242188 C 194.703125 179.171875 194.703125 180.101562 194.703125 181.027344 C 193.769531 181.027344 192.835938 181.027344 191.910156 181.027344 C 190.976562 181.027344 190.042969 181.027344 189.113281 181.027344 C 188.179688 181.027344 187.246094 181.027344 186.320312 181.027344 C 185.394531 181.027344 184.460938 181.027344 183.527344 181.027344 Z M 194.71875 152.445312 L 194.71875 152.492188 C 194.71875 152.507812 194.71875 152.515625 194.71875 152.539062 C 194.71875 152.554688 194.71875 152.5625 194.71875 152.585938 C 194.71875 152.601562 194.71875 152.609375 194.71875 152.632812 C 194.71875 152.648438 194.71875 152.65625 194.71875 152.683594 C 194.71875 152.699219 194.71875 152.707031 194.71875 152.730469 C 194.71875 152.746094 194.71875 152.753906 194.71875 152.777344 C 194.71875 152.792969 194.71875 152.800781 194.71875 152.824219 C 194.71875 152.839844 194.71875 152.847656 194.71875 152.871094 C 194.71875 152.886719 194.71875 152.894531 194.71875 152.917969 C 194.71875 152.941406 194.71875 152.941406 194.71875 152.964844 C 194.71875 152.980469 194.71875 152.988281 194.71875 153.011719 C 194.71875 153.027344 194.71875 153.035156 194.71875 153.058594 C 194.71875 153.074219 194.71875 153.082031 194.71875 153.109375 C 194.71875 153.125 194.71875 153.132812 194.71875 153.15625 C 194.71875 153.171875 194.71875 153.179688 194.71875 153.203125 C 195.652344 153.203125 196.585938 153.203125 197.511719 153.203125 C 197.511719 152.273438 197.511719 151.339844 197.511719 150.417969 C 196.578125 150.417969 195.644531 150.417969 194.71875 150.417969 C 194.71875 150.433594 194.71875 150.441406 194.71875 150.464844 C 194.71875 150.480469 194.71875 150.488281 194.71875 150.511719 C 194.71875 150.527344 194.71875 150.535156 194.71875 150.558594 C 194.71875 150.574219 194.71875 150.582031 194.71875 150.609375 C 194.71875 150.625 194.71875 150.632812 194.71875 150.65625 C 194.71875 150.671875 194.71875 150.679688 194.71875 150.703125 C 194.71875 150.71875 194.71875 150.726562 194.71875 150.75 C 194.71875 150.765625 194.71875 150.773438 194.71875 150.796875 C 194.71875 150.8125 194.71875 150.820312 194.71875 150.84375 C 194.71875 150.859375 194.71875 150.867188 194.71875 150.890625 C 194.71875 150.90625 194.71875 150.914062 194.71875 150.9375 C 194.71875 150.953125 194.71875 150.960938 194.71875 150.984375 C 194.71875 151 194.71875 151.011719 194.71875 151.035156 C 194.71875 151.050781 194.71875 151.058594 194.71875 151.082031 C 194.71875 151.097656 194.71875 151.105469 194.71875 151.128906 C 194.71875 151.144531 194.71875 151.152344 194.71875 151.175781 C 194.71875 151.191406 194.71875 151.199219 194.71875 151.222656 C 194.71875 151.238281 194.71875 151.246094 194.71875 151.269531 C 194.71875 151.285156 194.71875 151.292969 194.71875 151.316406 C 194.71875 151.332031 194.71875 151.339844 194.71875 151.363281 C 194.71875 151.378906 194.71875 151.386719 194.71875 151.410156 C 194.71875 151.429688 194.71875 151.4375 194.71875 151.460938 C 194.71875 151.476562 194.71875 151.484375 194.71875 151.507812 C 194.71875 151.523438 194.71875 151.53125 194.71875 151.554688 C 194.71875 151.570312 194.71875 151.578125 194.71875 151.601562 C 194.71875 151.617188 194.71875 151.625 194.71875 151.648438 C 194.71875 151.664062 194.71875 151.671875 194.71875 151.695312 C 194.71875 151.71875 194.71875 151.71875 194.71875 151.742188 C 194.71875 151.757812 194.71875 151.765625 194.71875 151.789062 C 194.71875 151.804688 194.71875 151.8125 194.71875 151.835938 C 194.71875 151.855469 194.71875 151.863281 194.71875 151.886719 C 194.71875 151.902344 194.71875 151.910156 194.71875 151.933594 C 194.71875 151.949219 194.71875 151.957031 194.71875 151.980469 C 194.71875 151.996094 194.71875 152.003906 194.71875 152.027344 C 194.71875 152.042969 194.71875 152.050781 194.71875 152.074219 C 194.71875 152.089844 194.71875 152.097656 194.71875 152.121094 C 194.71875 152.136719 194.71875 152.144531 194.71875 152.167969 C 194.71875 152.183594 194.71875 152.191406 194.71875 152.214844 C 194.71875 152.230469 194.71875 152.238281 194.71875 152.265625 C 194.71875 152.28125 194.71875 152.289062 194.71875 152.3125 C 194.71875 152.328125 194.71875 152.335938 194.71875 152.359375 C 194.71875 152.375 194.71875 152.382812 194.71875 152.40625 C 194.71875 152.421875 194.71875 152.429688 194.71875 152.453125 C 194.71875 152.46875 194.71875 152.476562 194.71875 152.5 C 194.71875 152.414062 194.71875 152.421875 194.71875 152.445312 C 194.71875 152.453125 194.71875 152.46875 194.71875 152.484375 C 194.71875 152.5 194.71875 152.507812 194.71875 152.53125 C 194.71875 152.421875 194.71875 152.429688 194.71875 152.445312 Z M 177.933594 153.148438 C 178.867188 153.148438 179.800781 153.148438 180.726562 153.148438 C 180.726562 152.214844 180.726562 151.285156 180.726562 150.363281 C 179.792969 150.363281 178.859375 150.363281 177.933594 150.363281 C 177.933594 151.285156 177.933594 152.214844 177.933594 153.148438 Z M 231.085938 194.96875 C 231.085938 194.039062 231.085938 193.105469 231.085938 192.183594 C 231.085938 191.253906 231.085938 190.324219 231.085938 189.402344 C 231.085938 188.46875 231.085938 187.539062 231.085938 186.617188 C 231.085938 185.6875 231.085938 184.753906 231.085938 183.832031 C 231.085938 182.902344 231.085938 181.972656 231.085938 181.050781 C 231.085938 180.117188 231.085938 179.1875 231.085938 178.265625 C 232.019531 178.265625 232.953125 178.265625 233.878906 178.265625 C 233.878906 179.195312 233.878906 180.125 233.878906 181.050781 C 233.878906 181.980469 233.878906 182.910156 233.878906 183.832031 C 233.878906 184.761719 233.878906 185.695312 233.878906 186.617188 C 233.878906 187.546875 233.878906 188.476562 233.878906 189.402344 C 233.878906 190.332031 233.878906 191.261719 233.878906 192.183594 C 233.878906 193.113281 233.878906 194.046875 233.878906 194.96875 C 233.878906 195.898438 233.878906 196.828125 233.878906 197.753906 C 232.945312 197.753906 232.011719 197.753906 231.085938 197.753906 C 230.152344 197.753906 229.21875 197.753906 228.292969 197.753906 C 228.292969 198.683594 228.292969 199.613281 228.292969 200.535156 C 227.359375 200.535156 226.425781 200.535156 225.5 200.535156 C 224.566406 200.535156 223.632812 200.535156 222.707031 200.535156 C 222.707031 201.46875 222.707031 202.398438 222.707031 203.320312 C 222.707031 204.25 222.707031 205.179688 222.707031 206.105469 C 221.773438 206.105469 220.839844 206.105469 219.914062 206.105469 C 218.980469 206.105469 218.046875 206.105469 217.121094 206.105469 C 217.121094 207.035156 217.121094 207.964844 217.121094 208.886719 C 216.1875 208.886719 215.253906 208.886719 214.328125 208.886719 C 214.328125 209.820312 214.328125 210.75 214.328125 211.671875 C 213.394531 211.671875 212.460938 211.671875 211.53125 211.671875 C 210.597656 211.671875 209.664062 211.671875 208.738281 211.671875 C 208.738281 212.601562 208.738281 213.53125 208.738281 214.457031 C 207.804688 214.457031 206.871094 214.457031 205.945312 214.457031 C 205.011719 214.457031 204.078125 214.457031 203.152344 214.457031 C 203.152344 215.386719 203.152344 216.316406 203.152344 217.238281 C 202.21875 217.238281 201.285156 217.238281 200.359375 217.238281 C 200.359375 218.171875 200.359375 219.101562 200.359375 220.023438 C 199.425781 220.023438 198.492188 220.023438 197.566406 220.023438 C 196.632812 220.023438 195.699219 220.023438 194.773438 220.023438 C 194.773438 219.09375 194.773438 218.164062 194.773438 217.238281 C 195.707031 217.238281 196.640625 217.238281 197.566406 217.238281 C 198.5 217.238281 199.433594 217.238281 200.359375 217.238281 C 200.359375 216.308594 200.359375 215.378906 200.359375 214.457031 C 201.292969 214.457031 202.226562 214.457031 203.152344 214.457031 C 203.152344 213.523438 203.152344 212.59375 203.152344 211.671875 C 204.085938 211.671875 205.019531 211.671875 205.945312 211.671875 C 206.878906 211.671875 207.8125 211.671875 208.738281 211.671875 C 208.738281 210.742188 208.738281 209.8125 208.738281 208.886719 C 209.671875 208.886719 210.605469 208.886719 211.53125 208.886719 C 212.46875 208.886719 213.402344 208.886719 214.328125 208.886719 C 214.328125 207.957031 214.328125 207.027344 214.328125 206.105469 C 215.261719 206.105469 216.195312 206.105469 217.121094 206.105469 C 217.121094 205.171875 217.121094 204.242188 217.121094 203.320312 C 218.054688 203.320312 218.988281 203.320312 219.914062 203.320312 C 219.914062 202.390625 219.914062 201.460938 219.914062 200.535156 C 220.847656 200.535156 221.78125 200.535156 222.707031 200.535156 C 222.707031 199.605469 222.707031 198.675781 222.707031 197.753906 C 223.640625 197.753906 224.574219 197.753906 225.5 197.753906 C 226.433594 197.753906 227.367188 197.753906 228.292969 197.753906 C 228.292969 196.820312 228.292969 195.890625 228.292969 194.96875 C 229.226562 194.96875 230.152344 194.96875 231.085938 194.96875 Z M 194.71875 220.0625 L 194.71875 226.121094 C 193.785156 226.121094 192.851562 226.121094 191.925781 226.121094 C 191.925781 227.050781 191.925781 227.980469 191.925781 228.902344 L 183.535156 228.902344 C 183.535156 227.972656 183.535156 227.042969 183.535156 226.121094 C 182.601562 226.121094 181.667969 226.121094 180.742188 226.121094 L 180.742188 220.0625 L 194.757812 220.0625 Z M 194.71875 220.0625 " fill-opacity="1" fill-rule="evenodd"/><path fill="#93a0b3" d="M 183.527344 155.929688 C 184.460938 155.929688 185.394531 155.929688 186.320312 155.929688 C 186.320312 156.863281 186.320312 157.792969 186.320312 158.714844 C 186.320312 159.644531 186.320312 160.574219 186.320312 161.5 C 186.320312 162.429688 186.320312 163.359375 186.320312 164.28125 C 186.320312 165.214844 186.320312 166.144531 186.320312 167.066406 C 186.320312 167.996094 186.320312 168.925781 186.320312 169.851562 C 186.320312 170.78125 186.320312 171.710938 186.320312 172.632812 C 186.320312 173.566406 186.320312 174.496094 186.320312 175.417969 C 186.320312 176.347656 186.320312 177.28125 186.320312 178.203125 C 187.253906 178.203125 188.1875 178.203125 189.113281 178.203125 C 190.050781 178.203125 190.984375 178.203125 191.910156 178.203125 C 191.910156 177.269531 191.910156 176.339844 191.910156 175.417969 C 191.910156 174.488281 191.910156 173.558594 191.910156 172.632812 L 191.910156 169.851562 C 191.910156 168.917969 191.910156 167.988281 191.910156 167.066406 C 191.910156 166.136719 191.910156 165.207031 191.910156 164.28125 L 191.910156 161.5 C 191.910156 160.566406 191.910156 159.636719 191.910156 158.714844 C 191.910156 157.785156 191.910156 156.855469 191.910156 155.929688 L 191.910156 153.148438 C 190.976562 153.148438 190.042969 153.148438 189.113281 153.148438 C 188.179688 153.148438 187.246094 153.148438 186.320312 153.148438 L 183.527344 153.148438 C 183.527344 154.078125 183.527344 155.007812 183.527344 155.929688 Z M 183.527344 155.929688 " fill-opacity="1" fill-rule="evenodd"/><path fill="#ffffff" d="M 186.328125 155.929688 C 185.394531 155.929688 184.460938 155.929688 183.535156 155.929688 C 183.535156 156.863281 183.535156 157.792969 183.535156 158.714844 C 183.535156 159.644531 183.535156 160.574219 183.535156 161.5 C 183.535156 162.429688 183.535156 163.359375 183.535156 164.28125 C 183.535156 165.214844 183.535156 166.144531 183.535156 167.066406 C 183.535156 167.996094 183.535156 168.925781 183.535156 169.851562 C 183.535156 170.78125 183.535156 171.710938 183.535156 172.632812 C 183.535156 173.566406 183.535156 174.496094 183.535156 175.417969 C 183.535156 176.347656 183.535156 177.28125 183.535156 178.203125 C 184.46875 178.203125 185.402344 178.203125 186.328125 178.203125 C 186.328125 177.269531 186.328125 176.339844 186.328125 175.417969 C 186.328125 174.488281 186.328125 173.558594 186.328125 172.632812 C 186.328125 171.703125 186.328125 170.773438 186.328125 169.851562 C 186.328125 168.917969 186.328125 167.988281 186.328125 167.066406 C 186.328125 166.136719 186.328125 165.207031 186.328125 164.28125 C 186.328125 163.351562 186.328125 162.421875 186.328125 161.5 C 186.328125 160.566406 186.328125 159.636719 186.328125 158.714844 C 186.328125 157.792969 186.328125 156.863281 186.328125 155.929688 Z M 186.328125 155.929688 " fill-opacity="1" fill-rule="evenodd"/><path fill="#860957" d="M 175.140625 144.78125 C 176.074219 144.78125 177.007812 144.78125 177.933594 144.78125 C 177.933594 145.710938 177.933594 146.640625 177.933594 147.5625 L 180.726562 147.5625 C 180.726562 148.492188 180.726562 149.425781 180.726562 150.347656 C 180.796875 150.347656 180.871094 150.347656 180.941406 150.347656 C 181.011719 150.347656 181.082031 150.347656 181.15625 150.347656 C 181.226562 150.347656 181.296875 150.347656 181.367188 150.347656 C 181.441406 150.347656 181.511719 150.347656 181.582031 150.347656 C 181.652344 150.347656 181.722656 150.347656 181.804688 150.347656 C 181.875 150.347656 181.945312 150.347656 182.015625 150.347656 C 182.089844 150.347656 182.160156 150.347656 182.230469 150.347656 C 182.300781 150.347656 182.375 150.347656 182.445312 150.347656 C 182.515625 150.347656 182.585938 150.347656 182.65625 150.347656 C 182.730469 150.347656 182.800781 150.347656 182.871094 150.347656 C 182.941406 150.347656 183.015625 150.347656 183.085938 150.347656 C 183.15625 150.347656 183.226562 150.347656 183.300781 150.347656 C 183.371094 150.347656 183.441406 150.347656 183.511719 150.347656 C 183.582031 150.347656 183.65625 150.347656 183.726562 150.347656 C 183.796875 150.347656 183.867188 150.347656 183.941406 150.347656 C 184.011719 150.347656 184.082031 150.347656 184.152344 150.347656 C 184.226562 150.347656 184.296875 150.347656 184.367188 150.347656 C 184.4375 150.347656 184.511719 150.347656 184.582031 150.347656 C 184.652344 150.347656 184.722656 150.347656 184.792969 150.347656 C 184.867188 150.347656 184.9375 150.347656 185.007812 150.347656 C 185.078125 150.347656 185.152344 150.347656 185.222656 150.347656 C 185.292969 150.347656 185.363281 150.347656 185.4375 150.347656 C 185.507812 150.347656 185.578125 150.347656 185.648438 150.347656 C 185.71875 150.347656 185.792969 150.347656 185.863281 150.347656 C 185.933594 150.347656 186.003906 150.347656 186.078125 150.347656 C 186.148438 150.347656 186.21875 150.347656 186.289062 150.347656 C 186.363281 150.347656 186.433594 150.347656 186.503906 150.347656 C 186.574219 150.347656 186.644531 150.347656 186.71875 150.347656 C 186.789062 150.347656 186.859375 150.347656 186.9375 150.347656 C 187.011719 150.347656 187.082031 150.347656 187.152344 150.347656 C 187.222656 150.347656 187.296875 150.347656 187.367188 150.347656 C 187.4375 150.347656 187.507812 150.347656 187.582031 150.347656 C 187.652344 150.347656 187.722656 150.347656 187.792969 150.347656 C 187.863281 150.347656 187.9375 150.347656 188.007812 150.347656 C 188.078125 150.347656 188.148438 150.347656 188.222656 150.347656 C 188.292969 150.347656 188.363281 150.347656 188.433594 150.347656 C 188.507812 150.347656 188.578125 150.347656 188.648438 150.347656 C 188.71875 150.347656 188.789062 150.347656 188.863281 150.347656 C 188.933594 150.347656 189.003906 150.347656 189.074219 150.347656 C 189.148438 150.347656 189.21875 150.347656 189.289062 150.347656 C 189.359375 150.347656 189.433594 150.347656 189.503906 150.347656 C 189.574219 150.347656 189.644531 150.347656 189.714844 150.347656 C 189.789062 150.347656 189.859375 150.347656 189.929688 150.347656 C 190 150.347656 190.074219 150.347656 190.144531 150.347656 C 190.214844 150.347656 190.285156 150.347656 190.367188 150.347656 C 190.4375 150.347656 190.507812 150.347656 190.578125 150.347656 C 190.652344 150.347656 190.722656 150.347656 190.792969 150.347656 C 190.863281 150.347656 190.933594 150.347656 191.007812 150.347656 C 191.078125 150.347656 191.148438 150.347656 191.21875 150.347656 C 191.292969 150.347656 191.363281 150.347656 191.433594 150.347656 C 191.503906 150.347656 191.578125 150.347656 191.648438 150.347656 C 191.71875 150.347656 191.789062 150.347656 191.859375 150.347656 C 191.933594 150.347656 192.003906 150.347656 192.082031 150.347656 C 192.152344 150.347656 192.226562 150.347656 192.296875 150.347656 C 192.367188 150.347656 192.4375 150.347656 192.511719 150.347656 C 192.582031 150.347656 192.652344 150.347656 192.722656 150.347656 C 192.792969 150.347656 192.867188 150.347656 192.9375 150.347656 C 193.007812 150.347656 193.078125 150.347656 193.152344 150.347656 C 193.222656 150.347656 193.292969 150.347656 193.363281 150.347656 C 193.4375 150.347656 193.507812 150.347656 193.578125 150.347656 C 193.648438 150.347656 193.71875 150.347656 193.800781 150.347656 C 193.871094 150.347656 193.941406 150.347656 194.011719 150.347656 C 194.085938 150.347656 194.15625 150.347656 194.226562 150.347656 C 194.296875 150.347656 194.371094 150.347656 194.441406 150.347656 C 194.441406 149.417969 194.441406 148.484375 194.441406 147.5625 C 195.375 147.5625 196.308594 147.5625 197.234375 147.5625 L 197.234375 144.78125 C 198.167969 144.78125 199.101562 144.78125 200.027344 144.78125 C 200.027344 140.132812 200.027344 135.488281 200.027344 130.84375 C 199.09375 130.84375 198.160156 130.84375 197.234375 130.84375 L 197.234375 139.203125 C 196.300781 139.203125 195.367188 139.203125 194.441406 139.203125 L 194.441406 141.996094 C 193.507812 141.996094 192.574219 141.996094 191.648438 141.996094 C 191.648438 142.925781 191.648438 143.855469 191.648438 144.78125 L 177.933594 144.78125 C 177.933594 143.847656 177.933594 142.917969 177.933594 141.996094 C 177 141.996094 176.066406 141.996094 175.140625 141.996094 C 175.140625 142.917969 175.140625 143.847656 175.140625 144.78125 Z M 175.140625 144.78125 " fill-opacity="1" fill-rule="evenodd"/><path fill="#f72c5b" d="M 177.933594 141.988281 C 177.933594 142.917969 177.933594 143.847656 177.933594 144.773438 L 191.917969 144.773438 C 191.917969 143.839844 191.917969 142.910156 191.917969 141.988281 C 192.851562 141.988281 193.785156 141.988281 194.710938 141.988281 L 194.710938 139.203125 C 195.644531 139.203125 196.578125 139.203125 197.503906 139.203125 L 197.503906 130.835938 C 197.503906 129.90625 197.503906 128.976562 197.503906 128.050781 C 196.570312 128.050781 195.636719 128.050781 194.710938 128.050781 C 194.710938 127.121094 194.710938 126.191406 194.710938 125.269531 C 193.777344 125.269531 192.84375 125.269531 191.917969 125.269531 C 190.984375 125.269531 190.050781 125.269531 189.125 125.269531 L 186.320312 125.269531 C 185.386719 125.269531 184.453125 125.269531 183.527344 125.269531 C 182.59375 125.269531 181.660156 125.269531 180.734375 125.269531 C 180.734375 126.199219 180.734375 127.128906 180.734375 128.050781 C 179.800781 128.050781 178.867188 128.050781 177.941406 128.050781 C 177.941406 128.984375 177.941406 129.914062 177.941406 130.835938 C 177.007812 130.835938 176.074219 130.835938 175.148438 130.835938 C 175.148438 131.765625 175.148438 132.699219 175.148438 133.621094 C 175.148438 134.550781 175.148438 135.480469 175.148438 136.402344 C 175.148438 137.335938 175.148438 138.265625 175.148438 139.1875 C 175.148438 140.117188 175.148438 141.050781 175.148438 141.972656 C 176.074219 141.988281 177.007812 141.988281 177.933594 141.988281 Z M 177.933594 141.988281 " fill-opacity="1" fill-rule="evenodd"/><path fill="#ffffff" d="M 186.328125 130.835938 C 187.261719 130.835938 188.199219 130.835938 189.125 130.835938 C 189.125 129.90625 189.125 128.976562 189.125 128.050781 C 188.1875 128.050781 187.253906 128.050781 186.328125 128.050781 C 185.394531 128.050781 184.460938 128.050781 183.535156 128.050781 C 183.535156 128.984375 183.535156 129.914062 183.535156 130.835938 C 183.535156 131.765625 183.535156 132.699219 183.535156 133.621094 C 182.601562 133.621094 181.667969 133.621094 180.742188 133.621094 C 179.808594 133.621094 178.875 133.621094 177.949219 133.621094 C 177.949219 134.550781 177.949219 135.480469 177.949219 136.402344 C 177.949219 137.335938 177.949219 138.265625 177.949219 139.1875 C 178.882812 139.1875 179.816406 139.1875 180.742188 139.1875 C 180.742188 138.257812 180.742188 137.328125 180.742188 136.402344 C 181.675781 136.402344 182.609375 136.402344 183.535156 136.402344 C 183.535156 135.472656 183.535156 134.542969 183.535156 133.621094 C 184.46875 133.621094 185.402344 133.621094 186.328125 133.621094 C 186.328125 132.699219 186.328125 131.765625 186.328125 130.835938 Z M 186.328125 130.835938 " fill-opacity="1" fill-rule="evenodd"/><path fill="#88a0c2" d="M 178.835938 201.679688 L 177.65625 201.679688 L 177.65625 209.449219 L 192.46875 209.449219 L 192.46875 211.449219 L 180.007812 211.449219 L 180.007812 201.679688 L 181.457031 201.679688 L 181.457031 198.542969 L 178.828125 198.542969 L 178.828125 201.679688 Z M 193.902344 198.582031 L 196.710938 198.582031 L 196.710938 208.359375 L 193.902344 208.359375 Z M 193.902344 198.582031 " fill-opacity="1" fill-rule="evenodd"/><path fill="#38b8e9" d="M 181.542969 198.582031 L 191.875 198.582031 L 191.875 203.644531 L 181.542969 203.644531 Z M 181.542969 198.582031 " fill-opacity="1" fill-rule="evenodd"/><path fill="#ffffff" d="M 183.417969 199.273438 L 185.269531 199.273438 L 185.269531 200.574219 L 183.417969 200.574219 Z M 183.394531 201.386719 L 185.269531 201.386719 L 185.269531 202.824219 L 183.394531 202.824219 Z M 183.394531 201.386719 " fill-opacity="1" fill-rule="evenodd"/><path fill="#90075f" d="M 180.355469 209.449219 L 192.890625 209.449219 L 195.089844 207.003906 L 195.089844 199.652344 L 193.902344 198.582031 L 193.902344 203.644531 L 191.84375 203.644531 L 191.84375 205.621094 L 181.542969 205.621094 L 181.542969 203.644531 L 180.007812 203.644531 L 179.035156 204.992188 L 179.035156 207.003906 Z M 180.355469 209.449219 " fill-opacity="1" fill-rule="evenodd"/><path fill="#d370b0" d="M 182.808594 208.265625 L 190.175781 208.265625 L 192.628906 207.003906 L 192.628906 203.644531 L 180.007812 203.644531 L 179.035156 204.992188 Z M 182.808594 208.265625 " fill-opacity="1" fill-rule="evenodd"/><path fill="#000000" d="M 192.445312 208.359375 L 193.957031 208.359375 L 193.957031 210.085938 L 192.445312 210.085938 Z M 192.445312 208.359375 " fill-opacity="1" fill-rule="evenodd"/><path fill="#000000" d="M 179.691406 208.226562 L 181.582031 208.226562 L 181.582031 209.8125 L 179.691406 209.8125 Z M 179.691406 208.226562 " fill-opacity="1" fill-rule="evenodd"/><path fill="#000000" d="M 181.542969 203.644531 L 191.84375 203.644531 L 191.84375 205.621094 L 181.542969 205.621094 L 181.542969 203.644531 L 180.007812 203.644531 L 180.007812 198.542969 L 181.464844 198.542969 L 181.464844 196.449219 L 191.886719 196.449219 L 191.886719 198.582031 L 193.902344 198.582031 L 193.902344 203.644531 L 191.886719 203.644531 L 191.886719 198.582031 L 181.542969 198.582031 Z M 181.542969 203.644531 " fill-opacity="1" fill-rule="evenodd"/><path fill="#88a0c2" d="M 195.167969 190.8125 L 193.988281 190.8125 L 193.988281 198.582031 L 208.804688 198.582031 L 208.804688 200.582031 L 196.347656 200.582031 L 196.347656 190.8125 L 197.796875 190.8125 L 197.796875 187.671875 L 195.167969 187.671875 Z M 210.226562 187.722656 L 213.035156 187.722656 L 213.035156 197.492188 L 210.226562 197.492188 Z M 210.226562 187.722656 " fill-opacity="1" fill-rule="evenodd"/><path fill="#f1b014" d="M 197.875 187.722656 L 208.210938 187.722656 L 208.210938 192.785156 L 197.875 192.785156 Z M 197.875 187.722656 " fill-opacity="1" fill-rule="evenodd"/><path fill="#ffffff" d="M 199.75 188.414062 L 201.601562 188.414062 L 201.601562 189.714844 L 199.75 189.714844 Z M 199.726562 190.535156 L 201.601562 190.535156 L 201.601562 191.972656 L 199.726562 191.972656 Z M 199.726562 190.535156 " fill-opacity="1" fill-rule="evenodd"/><path fill="#da0861" d="M 196.6875 198.589844 L 209.214844 198.589844 L 211.414062 196.136719 L 211.414062 188.800781 L 210.226562 187.722656 L 210.226562 192.785156 L 208.179688 192.785156 L 208.179688 194.761719 L 197.875 194.761719 L 197.875 192.785156 L 196.339844 192.785156 L 195.359375 194.132812 L 195.359375 196.136719 Z M 196.6875 198.589844 " fill-opacity="1" fill-rule="evenodd"/><path fill="#ee9c1f" d="M 199.140625 197.398438 L 206.507812 197.398438 L 208.960938 196.136719 L 208.960938 192.785156 L 196.339844 192.785156 L 195.359375 194.132812 Z M 199.140625 197.398438 " fill-opacity="1" fill-rule="evenodd"/><path fill="#000000" d="M 208.773438 197.507812 L 210.28125 197.507812 L 210.28125 199.234375 L 208.773438 199.234375 Z M 208.773438 197.507812 " fill-opacity="1" fill-rule="evenodd"/><path fill="#000000" d="M 196.023438 197.367188 L 197.914062 197.367188 L 197.914062 198.949219 L 196.023438 198.949219 Z M 196.023438 197.367188 " fill-opacity="1" fill-rule="evenodd"/><path fill="#000000" d="M 197.875 192.785156 L 208.179688 192.785156 L 208.179688 194.761719 L 197.875 194.761719 L 197.875 192.785156 L 196.339844 192.785156 L 196.339844 187.679688 L 197.789062 187.679688 L 197.789062 185.597656 L 208.210938 185.597656 L 208.210938 187.722656 L 210.226562 187.722656 L 210.226562 192.785156 L 208.210938 192.785156 L 208.210938 187.722656 L 197.875 187.722656 Z M 197.875 192.785156 " fill-opacity="1" fill-rule="evenodd"/><path fill="#88a0c2" d="M 210.417969 179.976562 L 209.238281 179.976562 L 209.238281 187.746094 L 224.050781 187.746094 L 224.050781 189.746094 L 211.597656 189.746094 L 211.597656 179.976562 L 213.042969 179.976562 L 213.042969 176.835938 L 210.417969 176.835938 Z M 225.492188 176.886719 L 228.300781 176.886719 L 228.300781 186.664062 L 225.492188 186.664062 Z M 225.492188 176.886719 " fill-opacity="1" fill-rule="evenodd"/><path fill="#2bafff" d="M 213.132812 176.886719 L 223.464844 176.886719 L 223.464844 181.949219 L 213.132812 181.949219 Z M 213.132812 176.886719 " fill-opacity="1" fill-rule="evenodd"/><path fill="#ffffff" d="M 215.007812 177.578125 L 216.859375 177.578125 L 216.859375 178.878906 L 215.007812 178.878906 Z M 214.976562 179.691406 L 216.851562 179.691406 L 216.851562 181.128906 L 214.976562 181.128906 Z M 214.976562 179.691406 " fill-opacity="1" fill-rule="evenodd"/><path fill="#004c46" d="M 211.9375 187.746094 L 224.480469 187.746094 L 226.671875 185.300781 L 226.671875 177.957031 L 225.492188 176.886719 L 225.492188 181.949219 L 223.433594 181.949219 L 223.433594 183.925781 L 213.132812 183.925781 L 213.132812 181.949219 L 211.597656 181.949219 L 210.617188 183.296875 L 210.617188 185.300781 Z M 211.9375 187.746094 " fill-opacity="1" fill-rule="evenodd"/><path fill="#29bd5f" d="M 214.398438 186.570312 L 221.757812 186.570312 L 224.21875 185.300781 L 224.21875 181.949219 L 211.597656 181.949219 L 210.617188 183.296875 Z M 214.398438 186.570312 " fill-opacity="1" fill-rule="evenodd"/><path fill="#000000" d="M 224.035156 186.664062 L 225.546875 186.664062 L 225.546875 188.390625 L 224.035156 188.390625 Z M 224.035156 186.664062 " fill-opacity="1" fill-rule="evenodd"/><path fill="#000000" d="M 211.28125 186.523438 L 213.171875 186.523438 L 213.171875 188.105469 L 211.28125 188.105469 Z M 211.28125 186.523438 " fill-opacity="1" fill-rule="evenodd"/><path fill="#000000" d="M 213.132812 181.949219 L 223.433594 181.949219 L 223.433594 183.925781 L 213.132812 183.925781 L 213.132812 181.949219 L 211.597656 181.949219 L 211.597656 176.84375 L 213.042969 176.84375 L 213.042969 174.753906 L 223.464844 174.753906 L 223.464844 176.886719 L 225.492188 176.886719 L 225.492188 181.949219 L 223.464844 181.949219 L 223.464844 176.886719 L 213.132812 176.886719 Z M 213.132812 181.949219 " fill-opacity="1" fill-rule="evenodd"/><path fill="#02012b" d="M 159.621094 180.0625 L 156.671875 179.171875 L 154.992188 180.125 L 155.066406 182.625 L 158.59375 186.121094 L 155.253906 188.398438 L 153.457031 189.359375 L 153.617188 192.011719 L 159.480469 196.878906 L 166.300781 192.601562 L 172.171875 197.664062 L 178.203125 193.746094 L 178.457031 191.695312 L 175.828125 189.148438 L 174.933594 188.304688 L 179.183594 185.726562 L 178.652344 181.980469 L 177.332031 180.851562 L 169.417969 182.816406 L 164.988281 182.664062 Z M 159.621094 180.0625 " fill-opacity="1" fill-rule="evenodd"/><path fill="#464f94" d="M 161.0625 176.191406 L 156.671875 179.171875 L 161.5625 184.101562 L 155.253906 188.398438 L 159.054688 191.640625 L 165.691406 187.617188 L 170.773438 192.277344 L 175.828125 189.148438 L 171.105469 184.613281 L 177.332031 180.851562 L 173.289062 177.230469 L 166.6875 181.515625 Z M 161.0625 176.191406 " fill-opacity="1" fill-rule="evenodd"/><path fill="#ffffff" d="M 169.078125 180.617188 L 168.128906 181.246094 L 168.46875 181.765625 L 168.816406 182.28125 L 169.777344 181.648438 L 169.664062 181.484375 Z M 169.078125 180.617188 " fill-opacity="1" fill-rule="evenodd"/><path fill="#ffffff" d="M 160.011719 187.800781 L 159.304688 186.886719 L 159.023438 186.523438 L 157.550781 187.648438 L 157.898438 188.089844 L 158.539062 188.917969 L 159.023438 189.550781 L 159.078125 189.519531 L 159.75 189 L 159.265625 188.367188 Z M 160.011719 187.800781 " fill-opacity="1" fill-rule="evenodd"/><path fill="#ffffff" d="M 158.871094 180.835938 L 160.066406 179.730469 L 160.113281 179.683594 L 159.003906 178.492188 L 158.808594 178.683594 L 157.761719 179.644531 Z M 158.871094 180.835938 " fill-opacity="1" fill-rule="evenodd"/></svg>