<svg xmlns="http://www.w3.org/2000/svg" xmlns:xlink="http://www.w3.org/1999/xlink" width="1920" zoomAndPan="magnify" viewBox="0 0 1440 809.999993" height="1080" preserveAspectRatio="xMidYMid meet" version="1.0"><defs><clipPath id="d9985a3342"><path d="M 627.542969 326.46875 L 746 326.46875 L 746 456.21875 L 627.542969 456.21875 Z M 627.542969 326.46875 " clip-rule="nonzero"/></clipPath><clipPath id="232a75370e"><path d="M 627.542969 432 L 687 432 L 687 456.21875 L 627.542969 456.21875 Z M 627.542969 432 " clip-rule="nonzero"/></clipPath><clipPath id="1f3ebd10bc"><path d="M 627.542969 326.46875 L 687 326.46875 L 687 350 L 627.542969 350 Z M 627.542969 326.46875 " clip-rule="nonzero"/></clipPath></defs><g clip-path="url(#d9985a3342)"><path fill="#f297a3" d="M 674.816406 397.101562 L 674.816406 408.921875 L 663 408.921875 L 663 420.738281 L 651.179688 420.738281 L 651.179688 432.558594 L 639.363281 432.558594 L 639.363281 444.378906 L 627.542969 444.378906 L 627.542969 456.195312 L 686.636719 456.195312 L 686.636719 444.378906 L 698.453125 444.378906 L 698.453125 432.558594 L 710.273438 432.558594 L 710.273438 420.738281 L 722.089844 420.738281 L 722.089844 408.921875 L 733.910156 408.921875 L 733.910156 397.101562 L 745.726562 397.101562 L 745.726562 385.285156 L 733.910156 385.285156 L 733.910156 373.464844 L 722.089844 373.464844 L 722.089844 361.648438 L 710.273438 361.648438 L 710.273438 349.828125 L 698.453125 349.828125 L 698.453125 338.011719 L 686.636719 338.011719 L 686.636719 326.191406 L 627.542969 326.191406 L 627.542969 338.011719 L 639.363281 338.011719 L 639.363281 349.828125 L 651.179688 349.828125 L 651.179688 361.648438 L 663 361.648438 L 663 373.464844 L 674.816406 373.464844 L 674.816406 385.285156 L 686.636719 385.285156 L 686.636719 397.101562 Z M 674.816406 397.101562 " fill-opacity="1" fill-rule="nonzero"/></g><path fill="#f297a3" d="M 722.089844 397.101562 L 722.089844 385.285156 L 733.910156 385.285156 L 733.910156 397.101562 Z M 722.089844 397.101562 " fill-opacity="1" fill-rule="nonzero"/><path fill="#f297a3" d="M 710.273438 385.285156 L 710.273438 373.464844 L 722.089844 373.464844 L 722.089844 385.285156 Z M 710.273438 385.285156 " fill-opacity="1" fill-rule="nonzero"/><path fill="#f297a3" d="M 651.179688 444.378906 L 651.179688 432.558594 L 663 432.558594 L 663 444.378906 Z M 651.179688 444.378906 " fill-opacity="1" fill-rule="nonzero"/><path fill="#0e0c3e" d="M 733.910156 397.101562 L 733.910156 385.285156 L 745.726562 385.285156 L 745.726562 397.101562 Z M 733.910156 397.101562 " fill-opacity="1" fill-rule="nonzero"/><path fill="#0e0c3e" d="M 722.089844 385.285156 L 722.089844 373.464844 L 733.910156 373.464844 L 733.910156 385.285156 Z M 722.089844 385.285156 " fill-opacity="1" fill-rule="nonzero"/><path fill="#0e0c3e" d="M 722.089844 408.921875 L 722.089844 397.101562 L 733.910156 397.101562 L 733.910156 408.921875 Z M 722.089844 408.921875 " fill-opacity="1" fill-rule="nonzero"/><path fill="#0e0c3e" d="M 710.273438 373.464844 L 710.273438 361.648438 L 722.089844 361.648438 L 722.089844 373.464844 Z M 710.273438 373.464844 " fill-opacity="1" fill-rule="nonzero"/><path fill="#0e0c3e" d="M 710.273438 420.738281 L 710.273438 408.921875 L 722.089844 408.921875 L 722.089844 420.738281 Z M 710.273438 420.738281 " fill-opacity="1" fill-rule="nonzero"/><path fill="#0e0c3e" d="M 698.453125 361.648438 L 698.453125 349.828125 L 710.273438 349.828125 L 710.273438 361.648438 Z M 698.453125 361.648438 " fill-opacity="1" fill-rule="nonzero"/><path fill="#0e0c3e" d="M 698.453125 432.558594 L 698.453125 420.738281 L 710.273438 420.738281 L 710.273438 432.558594 Z M 698.453125 432.558594 " fill-opacity="1" fill-rule="nonzero"/><path fill="#0e0c3e" d="M 686.636719 349.828125 L 686.636719 338.011719 L 698.453125 338.011719 L 698.453125 349.828125 Z M 686.636719 349.828125 " fill-opacity="1" fill-rule="nonzero"/><path fill="#0e0c3e" d="M 686.636719 397.101562 L 686.636719 385.285156 L 698.453125 385.285156 L 698.453125 397.101562 Z M 686.636719 397.101562 " fill-opacity="1" fill-rule="nonzero"/><path fill="#0e0c3e" d="M 686.636719 444.378906 L 686.636719 432.558594 L 698.453125 432.558594 L 698.453125 444.378906 Z M 686.636719 444.378906 " fill-opacity="1" fill-rule="nonzero"/><path fill="#0e0c3e" d="M 674.816406 385.285156 L 674.816406 373.464844 L 686.636719 373.464844 L 686.636719 385.285156 Z M 674.816406 385.285156 " fill-opacity="1" fill-rule="nonzero"/><path fill="#0e0c3e" d="M 674.816406 408.921875 L 674.816406 397.101562 L 686.636719 397.101562 L 686.636719 408.921875 Z M 674.816406 408.921875 " fill-opacity="1" fill-rule="nonzero"/><path fill="#0e0c3e" d="M 663 373.464844 L 663 361.648438 L 674.816406 361.648438 L 674.816406 373.464844 Z M 663 373.464844 " fill-opacity="1" fill-rule="nonzero"/><path fill="#0e0c3e" d="M 663 420.738281 L 663 408.921875 L 674.816406 408.921875 L 674.816406 420.738281 Z M 663 420.738281 " fill-opacity="1" fill-rule="nonzero"/><g clip-path="url(#232a75370e)"><path fill="#0e0c3e" d="M 663 444.378906 L 651.179688 444.378906 L 651.179688 432.558594 L 639.363281 432.558594 L 639.363281 444.378906 L 627.542969 444.378906 L 627.542969 456.195312 L 686.636719 456.195312 L 686.636719 444.378906 Z M 663 444.378906 " fill-opacity="1" fill-rule="nonzero"/></g><path fill="#0e0c3e" d="M 651.179688 361.648438 L 651.179688 349.828125 L 663 349.828125 L 663 361.648438 Z M 651.179688 361.648438 " fill-opacity="1" fill-rule="nonzero"/><path fill="#0e0c3e" d="M 651.179688 432.558594 L 651.179688 420.738281 L 663 420.738281 L 663 432.558594 Z M 651.179688 432.558594 " fill-opacity="1" fill-rule="nonzero"/><g clip-path="url(#1f3ebd10bc)"><path fill="#0e0c3e" d="M 627.542969 338.011719 L 639.363281 338.011719 L 639.363281 349.828125 L 651.179688 349.828125 L 651.179688 338.011719 L 686.636719 338.011719 L 686.636719 326.191406 L 627.542969 326.191406 Z M 627.542969 338.011719 " fill-opacity="1" fill-rule="nonzero"/></g></svg>