<svg xmlns="http://www.w3.org/2000/svg" xmlns:xlink="http://www.w3.org/1999/xlink" width="500" zoomAndPan="magnify" viewBox="0 0 375 374.999991" height="500" preserveAspectRatio="xMidYMid meet" version="1.0"><defs><clipPath id="8713b4afbf"><path d="M 101 69.792969 L 252 69.792969 L 252 275.292969 L 101 275.292969 Z M 101 69.792969 " clip-rule="nonzero"/></clipPath></defs><path fill="#b4b4b4" d="M 194.710938 148.585938 L 158.535156 148.585938 C 149.9375 148.585938 142.945312 141.59375 142.945312 132.996094 C 142.945312 124.398438 149.9375 117.40625 158.535156 117.40625 L 194.710938 117.40625 C 203.304688 117.40625 210.300781 124.398438 210.300781 132.996094 C 210.300781 141.59375 203.304688 148.585938 194.710938 148.585938 Z M 194.710938 112.25 L 158.535156 112.25 C 147.097656 112.25 137.792969 121.558594 137.792969 132.996094 C 137.792969 144.433594 147.097656 153.738281 158.535156 153.738281 L 194.710938 153.738281 C 206.148438 153.738281 215.453125 144.433594 215.453125 132.996094 C 215.453125 121.558594 206.148438 112.25 194.710938 112.25 " fill-opacity="1" fill-rule="nonzero"/><path fill="#b4b4b4" d="M 160.488281 135.976562 C 158.84375 135.976562 157.503906 134.640625 157.503906 132.996094 C 157.503906 131.351562 158.84375 130.011719 160.488281 130.011719 C 162.132812 130.011719 163.46875 131.351562 163.46875 132.996094 C 163.46875 134.640625 162.132812 135.976562 160.488281 135.976562 Z M 160.488281 124.859375 C 156.003906 124.859375 152.351562 128.511719 152.351562 132.996094 C 152.351562 137.480469 156.003906 141.128906 160.488281 141.128906 C 164.976562 141.128906 168.625 137.480469 168.625 132.996094 C 168.625 128.511719 164.976562 124.859375 160.488281 124.859375 " fill-opacity="1" fill-rule="nonzero"/><path fill="#b4b4b4" d="M 192.757812 135.976562 C 191.113281 135.976562 189.773438 134.640625 189.773438 132.996094 C 189.773438 131.351562 191.113281 130.011719 192.757812 130.011719 C 194.402344 130.011719 195.738281 131.351562 195.738281 132.996094 C 195.738281 134.640625 194.402344 135.976562 192.757812 135.976562 Z M 192.757812 124.859375 C 188.269531 124.859375 184.621094 128.511719 184.621094 132.996094 C 184.621094 137.480469 188.269531 141.128906 192.757812 141.128906 C 197.242188 141.128906 200.890625 137.480469 200.890625 132.996094 C 200.890625 128.511719 197.242188 124.859375 192.757812 124.859375 " fill-opacity="1" fill-rule="nonzero"/><g clip-path="url(#8713b4afbf)"><path fill="#b4b4b4" d="M 240.113281 234.414062 C 238.765625 235.453125 237.804688 235.511719 237.574219 235.378906 L 237.1875 235.195312 C 235.414062 234.53125 234.054688 230.660156 232.335938 225.761719 C 230.421875 220.320312 227.824219 212.914062 222.871094 204.675781 C 222.742188 194.183594 219.757812 184.117188 214.351562 175.667969 C 225.769531 179.398438 240.335938 190.828125 244.351562 206.203125 C 248.8125 222.441406 243.785156 231.578125 240.113281 234.414062 Z M 217.726562 205.464844 C 217.726562 210.949219 216.894531 216.277344 215.257812 221.300781 L 215.253906 221.3125 C 211.636719 232.566406 204.082031 242.007812 194.535156 247.21875 L 194.464844 247.257812 C 188.890625 250.3125 182.890625 251.867188 176.621094 251.867188 C 170.351562 251.867188 164.351562 250.3125 158.78125 247.257812 L 158.710938 247.21875 C 149.164062 242.007812 141.609375 232.566406 137.992188 221.3125 L 137.988281 221.300781 C 136.351562 216.277344 135.519531 210.949219 135.519531 205.464844 L 135.519531 205.40625 C 135.519531 193.46875 139.558594 182.132812 146.894531 173.488281 L 146.921875 173.457031 C 148.890625 171.109375 151.144531 169 153.582031 167.125 L 199.664062 167.125 C 202.097656 169 204.355469 171.109375 206.324219 173.457031 L 206.351562 173.488281 C 213.683594 182.132812 217.726562 193.46875 217.726562 205.40625 Z M 215.128906 261.605469 C 215.128906 266.234375 211.367188 270 206.738281 270 C 202.113281 270 198.347656 266.234375 198.347656 261.605469 L 198.347656 250.976562 C 205.105469 246.96875 210.890625 241.066406 215.128906 233.992188 Z M 154.898438 261.605469 C 154.898438 266.234375 151.132812 270 146.507812 270 C 141.878906 270 138.113281 266.234375 138.113281 261.605469 L 138.113281 233.992188 C 142.351562 241.066406 148.140625 246.96875 154.898438 250.976562 Z M 130.371094 204.675781 C 125.421875 212.914062 122.824219 220.320312 120.910156 225.761719 C 119.191406 230.660156 117.832031 234.53125 116.054688 235.195312 L 115.667969 235.378906 C 115.441406 235.511719 114.476562 235.453125 113.132812 234.414062 C 109.460938 231.578125 104.433594 222.441406 108.902344 206.167969 C 112.910156 190.820312 127.476562 179.394531 138.894531 175.667969 C 133.484375 184.117188 130.503906 194.179688 130.371094 204.675781 Z M 131.421875 161.972656 C 125.515625 161.972656 120.714844 157.335938 120.714844 151.492188 C 120.714844 139.8125 124.285156 128.636719 131.042969 119.167969 C 134.414062 114.386719 138.472656 110.207031 143.121094 106.742188 C 152.832031 99.441406 164.417969 95.585938 176.621094 95.585938 C 188.828125 95.585938 200.410156 99.441406 210.132812 106.75 C 214.769531 110.207031 218.832031 114.386719 222.207031 119.179688 C 228.960938 128.636719 232.53125 139.8125 232.53125 151.492188 L 232.53125 151.632812 C 232.53125 157.335938 227.726562 161.972656 221.824219 161.972656 Z M 131.515625 78.683594 C 131.515625 76.625 133.191406 74.945312 135.253906 74.945312 C 137.320312 74.945312 138.996094 76.625 138.996094 78.683594 L 138.996094 103.457031 C 136.304688 105.558594 133.808594 107.890625 131.515625 110.421875 Z M 214.25 78.683594 C 214.25 76.625 215.925781 74.945312 217.988281 74.945312 C 220.050781 74.945312 221.730469 76.625 221.730469 78.683594 L 221.730469 110.421875 C 219.433594 107.886719 216.9375 105.554688 214.25 103.457031 Z M 249.328125 204.871094 C 244.027344 184.5625 223.007812 170.835938 209.542969 169.378906 C 208.863281 168.601562 208.148438 167.855469 207.417969 167.125 L 221.824219 167.125 C 230.566406 167.125 237.683594 160.175781 237.683594 151.632812 L 237.683594 151.492188 C 237.683594 139.023438 233.933594 127.089844 226.882812 116.914062 L 226.882812 78.683594 C 226.882812 73.78125 222.894531 69.792969 217.988281 69.792969 C 213.085938 69.792969 209.097656 73.78125 209.097656 78.683594 L 209.097656 99.78125 C 199.394531 93.648438 188.265625 90.433594 176.621094 90.433594 C 164.976562 90.433594 153.847656 93.652344 144.148438 99.777344 L 144.148438 78.683594 C 144.148438 73.78125 140.160156 69.792969 135.253906 69.792969 C 130.351562 69.792969 126.363281 73.78125 126.363281 78.683594 L 126.363281 116.917969 C 119.308594 127.101562 115.5625 139.03125 115.5625 151.632812 C 115.5625 160.175781 122.675781 167.125 131.421875 167.125 L 145.828125 167.125 C 145.09375 167.855469 144.382812 168.601562 143.699219 169.378906 C 130.238281 170.835938 109.21875 184.5625 103.925781 204.835938 C 99.078125 222.480469 104.15625 233.992188 109.980469 238.492188 C 111.769531 239.875 113.65625 240.585938 115.394531 240.585938 C 116.335938 240.585938 117.230469 240.375 118.046875 239.949219 C 121.949219 238.367188 123.558594 233.78125 125.773438 227.46875 C 127.105469 223.667969 128.679688 219.230469 131.042969 214.304688 C 131.472656 217.085938 132.125 219.800781 132.960938 222.453125 L 132.960938 261.605469 C 132.960938 269.074219 139.039062 275.152344 146.507812 275.152344 C 153.976562 275.152344 160.050781 269.074219 160.050781 261.605469 L 160.050781 253.585938 C 165.308594 255.855469 170.863281 257.019531 176.621094 257.019531 C 182.382812 257.019531 187.933594 255.855469 193.195312 253.585938 L 193.195312 261.605469 C 193.195312 269.074219 199.269531 275.152344 206.738281 275.152344 C 214.207031 275.152344 220.285156 269.074219 220.285156 261.605469 L 220.285156 222.453125 C 221.121094 219.800781 221.769531 217.085938 222.203125 214.304688 C 224.566406 219.230469 226.136719 223.667969 227.472656 227.46875 C 229.6875 233.78125 231.296875 238.367188 235.199219 239.949219 C 236.011719 240.375 236.90625 240.585938 237.851562 240.585938 C 239.585938 240.585938 241.472656 239.875 243.261719 238.492188 C 249.085938 233.992188 254.167969 222.480469 249.328125 204.871094 " fill-opacity="1" fill-rule="nonzero"/></g><path fill="#b4b4b4" d="M 189.136719 213.144531 L 164.109375 213.144531 C 157.519531 213.144531 152.15625 207.78125 152.15625 201.191406 C 152.15625 194.601562 157.519531 189.238281 164.109375 189.238281 L 189.136719 189.238281 C 195.726562 189.238281 201.085938 194.601562 201.085938 201.191406 C 201.085938 207.78125 195.726562 213.144531 189.136719 213.144531 Z M 189.136719 184.085938 L 164.109375 184.085938 C 154.675781 184.085938 147.003906 191.757812 147.003906 201.191406 C 147.003906 210.625 154.675781 218.296875 164.109375 218.296875 L 189.136719 218.296875 C 198.566406 218.296875 206.242188 210.625 206.242188 201.191406 C 206.242188 191.757812 198.566406 184.085938 189.136719 184.085938 " fill-opacity="1" fill-rule="nonzero"/><path fill="#b4b4b4" d="M 160.488281 203.769531 L 182.648438 203.769531 L 182.648438 198.613281 L 160.488281 198.613281 L 160.488281 203.769531 " fill-opacity="1" fill-rule="nonzero"/><path fill="#b4b4b4" d="M 187.199219 203.769531 L 194.324219 203.769531 L 194.324219 198.613281 L 187.199219 198.613281 L 187.199219 203.769531 " fill-opacity="1" fill-rule="nonzero"/></svg>