<svg xmlns="http://www.w3.org/2000/svg" xmlns:xlink="http://www.w3.org/1999/xlink" width="1920" zoomAndPan="magnify" viewBox="0 0 1440 809.999993" height="1080" preserveAspectRatio="xMidYMid meet" version="1.0"><defs><clipPath id="e4d31c3874"><path d="M 589 337.125 L 770 337.125 L 770 517.125 L 589 517.125 Z M 589 337.125 " clip-rule="nonzero"/></clipPath><clipPath id="f20a926c2d"><path d="M 613 337.125 L 747 337.125 L 747 517.125 L 613 517.125 Z M 613 337.125 " clip-rule="nonzero"/></clipPath><clipPath id="fffb2335a0"><path d="M 652 337.125 L 708 337.125 L 708 517.125 L 652 517.125 Z M 652 337.125 " clip-rule="nonzero"/></clipPath></defs><g clip-path="url(#e4d31c3874)"><path fill="#f297a3" d="M 679.828125 517.132812 C 630.1875 517.132812 589.800781 476.753906 589.800781 427.125 C 589.800781 377.5 630.1875 337.121094 679.828125 337.121094 C 729.472656 337.121094 769.859375 377.496094 769.859375 427.125 C 769.859375 476.753906 729.472656 517.132812 679.828125 517.132812 Z M 679.828125 343.800781 C 633.871094 343.800781 596.480469 381.179688 596.480469 427.125 C 596.480469 473.074219 633.871094 510.453125 679.828125 510.453125 C 725.789062 510.453125 763.179688 473.074219 763.179688 427.125 C 763.179688 381.179688 725.789062 343.800781 679.828125 343.800781 Z M 679.828125 343.800781 " fill-opacity="1" fill-rule="nonzero"/></g><path fill="#f297a3" d="M 679.828125 399.511719 C 654.804688 399.511719 630.703125 388.96875 613.707031 370.589844 L 618.613281 366.054688 C 634.351562 383.070312 656.660156 392.828125 679.828125 392.828125 C 703 392.828125 725.3125 383.070312 741.046875 366.050781 L 745.957031 370.585938 C 728.957031 388.96875 704.855469 399.511719 679.828125 399.511719 Z M 679.828125 399.511719 " fill-opacity="1" fill-rule="nonzero"/><path fill="#f297a3" d="M 618.613281 488.539062 L 613.707031 484.007812 C 630.703125 465.625 654.804688 455.082031 679.832031 455.082031 C 704.859375 455.082031 728.960938 465.621094 745.957031 484.003906 L 741.050781 488.539062 C 725.3125 471.519531 703 461.761719 679.832031 461.761719 C 656.664062 461.761719 634.351562 471.523438 618.613281 488.539062 Z M 618.613281 488.539062 " fill-opacity="1" fill-rule="nonzero"/><g clip-path="url(#f20a926c2d)"><path fill="#f297a3" d="M 679.828125 517.132812 C 661.875 517.132812 645.0625 507.628906 632.496094 490.375 C 620.160156 473.4375 613.367188 450.976562 613.367188 427.125 C 613.367188 403.277344 620.160156 380.8125 632.496094 363.878906 C 645.0625 346.625 661.875 337.121094 679.828125 337.121094 C 697.785156 337.121094 714.597656 346.625 727.164062 363.878906 C 739.5 380.8125 746.292969 403.277344 746.292969 427.125 C 746.292969 450.976562 739.5 473.4375 727.164062 490.375 C 714.597656 507.628906 697.785156 517.132812 679.828125 517.132812 Z M 679.828125 343.800781 C 646.867188 343.800781 620.050781 381.179688 620.050781 427.125 C 620.050781 473.074219 646.867188 510.453125 679.828125 510.453125 C 712.792969 510.453125 739.609375 473.074219 739.609375 427.125 C 739.609375 381.179688 712.792969 343.800781 679.828125 343.800781 Z M 679.828125 343.800781 " fill-opacity="1" fill-rule="nonzero"/></g><g clip-path="url(#fffb2335a0)"><path fill="#f297a3" d="M 679.828125 517.132812 C 671.570312 517.132812 664.5 507.511719 659.382812 489.3125 C 654.699219 472.65625 652.121094 450.574219 652.121094 427.125 C 652.121094 403.679688 654.699219 381.59375 659.382812 364.941406 C 664.5 346.738281 671.570312 337.121094 679.828125 337.121094 C 688.089844 337.121094 695.160156 346.738281 700.277344 364.941406 C 704.960938 381.59375 707.539062 403.679688 707.539062 427.125 C 707.539062 450.574219 704.960938 472.65625 700.277344 489.3125 C 695.160156 507.511719 688.089844 517.132812 679.828125 517.132812 Z M 679.828125 343.800781 C 671.050781 343.800781 658.804688 375.5 658.804688 427.125 C 658.804688 478.753906 671.050781 510.453125 679.828125 510.453125 C 688.609375 510.453125 700.855469 478.753906 700.855469 427.125 C 700.855469 375.5 688.609375 343.800781 679.828125 343.800781 Z M 679.828125 343.800781 " fill-opacity="1" fill-rule="nonzero"/></g><path fill="#f4f4f4" d="M 772.351562 445.058594 C 768.914062 448.867188 584.046875 449.414062 580.609375 445.058594 C 577.171875 440.703125 577.171875 409.132812 580.609375 404.78125 C 584.046875 400.425781 767.929688 401.511719 772.351562 404.78125 C 776.769531 408.046875 775.789062 441.246094 772.351562 445.058594 Z M 772.351562 445.058594 " fill-opacity="1" fill-rule="nonzero"/><path fill="#aa95c7" d="M 671.792969 450.128906 C 647.878906 450.128906 625.835938 449.863281 609.714844 449.382812 C 580.792969 448.523438 579.859375 447.339844 579.035156 446.300781 C 576.242188 442.765625 576.027344 429.042969 576.027344 424.917969 C 576.027344 420.796875 576.242188 407.078125 579.035156 403.539062 C 579.875 402.476562 580.742188 401.378906 607.667969 400.582031 C 622.714844 400.140625 642.960938 399.90625 666.214844 399.90625 C 691.460938 399.90625 717.332031 400.191406 737.195312 400.6875 C 771.335938 401.539062 772.71875 402.558594 773.539062 403.171875 C 774.707031 404.03125 776.140625 405.96875 776.882812 413.375 C 777.9375 423.871094 777.105469 442.777344 773.839844 446.402344 C 773.019531 447.308594 772 448.441406 739.679688 449.332031 C 721.375 449.835938 696.628906 450.128906 671.792969 450.128906 Z M 582.011719 443.539062 C 586.070312 444.800781 615.417969 446.117188 671.792969 446.117188 C 722.832031 446.117188 765.824219 444.964844 771.023438 443.472656 C 771.925781 441.816406 773.140625 434.894531 773.289062 424.886719 C 773.453125 413.988281 772.222656 407.703125 771.242188 406.484375 C 766.316406 405.085938 718.714844 403.910156 666.214844 403.910156 C 613.082031 403.910156 585.917969 405.09375 582.011719 406.300781 C 581.140625 408 580.035156 414.460938 580.035156 424.917969 C 580.035156 435.375 581.140625 441.835938 582.011719 443.539062 Z M 582.011719 443.539062 " fill-opacity="1" fill-rule="nonzero"/><path fill="#aa95c7" d="M 772.351562 404.78125 C 771.0625 403.828125 754.492188 403.058594 731.59375 402.558594 L 731.59375 447.527344 C 754.691406 447.015625 771.339844 446.175781 772.351562 445.058594 C 775.789062 441.246094 776.769531 408.046875 772.351562 404.78125 Z M 772.351562 404.78125 " fill-opacity="1" fill-rule="nonzero"/><path fill="#aa95c7" d="M 729.589844 449.578125 L 729.589844 400.511719 L 731.636719 400.554688 C 771.175781 401.421875 772.714844 402.558594 773.542969 403.167969 C 774.707031 404.03125 776.140625 405.96875 776.882812 413.375 C 777.9375 423.871094 777.105469 442.777344 773.839844 446.398438 C 772.988281 447.34375 771.820312 448.636719 731.636719 449.53125 Z M 733.597656 404.609375 L 733.597656 445.476562 C 763.40625 444.777344 769.714844 443.804688 771.027344 443.464844 C 771.929688 441.792969 773.140625 434.878906 773.289062 424.886719 C 773.453125 414.003906 772.222656 407.71875 771.246094 406.492188 C 770.171875 406.214844 764.355469 405.3125 733.597656 404.609375 Z M 733.597656 404.609375 " fill-opacity="1" fill-rule="nonzero"/><path fill="#aa95c7" d="M 612.875 437.894531 C 612.058594 437.894531 611.320312 437.398438 611.015625 436.640625 L 606.113281 424.449219 L 600.695312 436.699219 C 600.375 437.425781 599.652344 437.894531 598.863281 437.894531 C 598.851562 437.894531 598.847656 437.894531 598.839844 437.894531 C 598.039062 437.886719 597.320312 437.402344 597.011719 436.664062 L 589.429688 418.503906 C 589.003906 417.484375 589.488281 416.3125 590.507812 415.882812 C 591.527344 415.460938 592.703125 415.941406 593.128906 416.960938 L 598.914062 430.816406 L 604.371094 418.480469 C 604.691406 417.753906 605.410156 417.289062 606.203125 417.289062 C 606.214844 417.289062 606.226562 417.289062 606.238281 417.289062 C 607.042969 417.300781 607.761719 417.796875 608.0625 418.546875 L 612.730469 430.152344 L 617.226562 417.082031 C 617.585938 416.035156 618.722656 415.476562 619.773438 415.839844 C 620.820312 416.199219 621.375 417.339844 621.015625 418.386719 L 614.773438 436.542969 C 614.5 437.332031 613.765625 437.875 612.925781 437.894531 C 612.90625 437.894531 612.890625 437.894531 612.875 437.894531 Z M 612.875 437.894531 " fill-opacity="1" fill-rule="nonzero"/><path fill="#aa95c7" d="M 649.21875 437.894531 C 648.402344 437.894531 647.664062 437.398438 647.359375 436.640625 L 642.457031 424.449219 L 637.039062 436.699219 C 636.714844 437.433594 635.964844 437.875 635.183594 437.894531 C 634.382812 437.886719 633.664062 437.402344 633.355469 436.664062 L 625.773438 418.503906 C 625.347656 417.484375 625.828125 416.3125 626.851562 415.882812 C 627.871094 415.460938 629.046875 415.941406 629.472656 416.960938 L 635.257812 430.816406 L 640.710938 418.480469 C 641.035156 417.753906 641.753906 417.289062 642.546875 417.289062 C 642.558594 417.289062 642.566406 417.289062 642.578125 417.289062 C 643.386719 417.300781 644.105469 417.796875 644.40625 418.546875 L 649.070312 430.152344 L 653.566406 417.082031 C 653.925781 416.035156 655.066406 415.476562 656.113281 415.839844 C 657.160156 416.199219 657.71875 417.339844 657.359375 418.386719 L 651.113281 436.542969 C 650.839844 437.332031 650.105469 437.875 649.269531 437.894531 C 649.25 437.894531 649.234375 437.894531 649.21875 437.894531 Z M 649.21875 437.894531 " fill-opacity="1" fill-rule="nonzero"/><path fill="#aa95c7" d="M 685.558594 437.894531 C 684.742188 437.894531 684.003906 437.398438 683.699219 436.640625 L 678.800781 424.449219 L 673.378906 436.699219 C 673.054688 437.433594 672.328125 437.875 671.527344 437.894531 C 670.726562 437.886719 670.003906 437.402344 669.699219 436.664062 L 662.117188 418.503906 C 661.691406 417.484375 662.171875 416.3125 663.195312 415.882812 C 664.210938 415.460938 665.390625 415.941406 665.816406 416.960938 L 671.601562 430.816406 L 677.054688 418.480469 C 677.375 417.753906 678.09375 417.289062 678.886719 417.289062 C 678.898438 417.289062 678.910156 417.289062 678.921875 417.289062 C 679.726562 417.300781 680.449219 417.796875 680.746094 418.546875 L 685.414062 430.152344 L 689.910156 417.082031 C 690.269531 416.035156 691.410156 415.476562 692.457031 415.839844 C 693.503906 416.199219 694.058594 417.339844 693.699219 418.386719 L 687.453125 436.542969 C 687.183594 437.332031 686.449219 437.875 685.609375 437.894531 C 685.59375 437.894531 685.578125 437.894531 685.558594 437.894531 Z M 685.558594 437.894531 " fill-opacity="1" fill-rule="nonzero"/><path fill="#ffffff" d="M 754.808594 427.878906 C 749.578125 432.25 741.769531 431.550781 737.398438 426.324219 C 733.027344 421.09375 733.726562 413.285156 738.957031 408.917969 C 744.1875 404.546875 751.996094 405.246094 756.367188 410.472656 C 760.738281 415.703125 760.039062 423.511719 754.808594 427.878906 Z M 741.527344 411.992188 C 737.992188 414.945312 737.519531 420.21875 740.472656 423.75 C 743.425781 427.285156 748.707031 427.757812 752.238281 424.804688 C 755.773438 421.851562 756.242188 416.574219 753.292969 413.042969 C 750.339844 409.511719 745.058594 409.039062 741.527344 411.992188 Z M 741.527344 411.992188 " fill-opacity="1" fill-rule="nonzero"/><path fill="#ffffff" d="M 751.476562 428.058594 L 755.578125 424.628906 L 758.214844 427.785156 L 754.113281 431.210938 Z M 751.476562 428.058594 " fill-opacity="1" fill-rule="nonzero"/><path fill="#ffffff" d="M 765.800781 441.027344 C 764.949219 441.738281 763.6875 441.625 762.976562 440.773438 L 756.550781 433.085938 C 755.839844 432.238281 755.953125 430.972656 756.800781 430.265625 C 757.652344 429.554688 758.914062 429.667969 759.625 430.515625 L 766.050781 438.203125 C 766.761719 439.054688 766.652344 440.316406 765.800781 441.027344 Z M 765.800781 441.027344 " fill-opacity="1" fill-rule="nonzero"/><path fill="#ffffff" d="M 755.140625 430.347656 L 757.191406 428.632812 L 759.828125 431.785156 L 757.773438 433.5 Z M 755.140625 430.347656 " fill-opacity="1" fill-rule="nonzero"/></svg>