<svg xmlns="http://www.w3.org/2000/svg" xmlns:xlink="http://www.w3.org/1999/xlink" width="500" zoomAndPan="magnify" viewBox="0 0 375 374.999991" height="500" preserveAspectRatio="xMidYMid meet" version="1.0"><defs><g/><clipPath id="c84e5601e7"><path d="M 69 78 L 115.679688 78 L 115.679688 123 L 69 123 Z M 69 78 " clip-rule="nonzero"/></clipPath><clipPath id="ba0390eaa5"><rect x="0" width="116" y="0" height="166"/></clipPath><clipPath id="1770668ff5"><rect x="0" width="50" y="0" height="103"/></clipPath><clipPath id="f95a535bfa"><rect x="0" width="94" y="0" height="100"/></clipPath></defs><g transform="matrix(1, 0, 0, 1, 66, 80)"><g clip-path="url(#ba0390eaa5)"><g fill="#453336" fill-opacity="1"><g transform="translate(0.871355, 121.837004)"><g><path d="M 74.5 -28.53125 C 74.6875 -28.59375 75 -28.625 75.4375 -28.625 C 76.375 -28.625 77.09375 -28.304688 77.59375 -27.671875 C 78.09375 -27.046875 78.34375 -26.203125 78.34375 -25.140625 C 78.34375 -23.203125 77.96875 -21.6875 77.21875 -20.59375 C 76.46875 -19.5 75.34375 -18.703125 73.84375 -18.203125 C 70.96875 -17.265625 67.898438 -16.796875 64.640625 -16.796875 C 61.890625 -16.796875 59.296875 -17.171875 56.859375 -17.921875 C 55.046875 -14.984375 53.046875 -11.945312 50.859375 -8.8125 C 48.359375 -5.25 46.210938 -2.8125 44.421875 -1.5 C 42.640625 -0.1875 40.625 0.46875 38.375 0.46875 C 35.875 0.46875 33.984375 -0.5 32.703125 -2.4375 C 31.421875 -4.375 30.625 -7.566406 30.3125 -12.015625 L 29.84375 -18.859375 C 27.894531 -13.609375 26.15625 -9.601562 24.625 -6.84375 C 23.09375 -4.09375 21.5625 -2.1875 20.03125 -1.125 C 18.5 -0.0625 16.703125 0.46875 14.640625 0.46875 C 12.078125 0.46875 10.054688 -0.53125 8.578125 -2.53125 C 7.109375 -4.53125 6.1875 -7.691406 5.8125 -12.015625 C 5.0625 -20.765625 4.6875 -28.425781 4.6875 -35 L 4.6875 -38.28125 C 4.75 -40.34375 5.3125 -41.78125 6.375 -42.59375 C 7.4375 -43.40625 9.035156 -43.8125 11.171875 -43.8125 C 12.796875 -43.8125 14 -43.453125 14.78125 -42.734375 C 15.5625 -42.015625 15.953125 -40.8125 15.953125 -39.125 C 15.953125 -31.9375 16.390625 -22.585938 17.265625 -11.078125 C 21.515625 -20.015625 25.425781 -29.332031 29 -39.03125 C 29.6875 -40.90625 30.515625 -42.171875 31.484375 -42.828125 C 32.453125 -43.484375 33.625 -43.8125 35 -43.8125 C 36.6875 -43.8125 37.859375 -43.46875 38.515625 -42.78125 C 39.171875 -42.09375 39.5 -40.875 39.5 -39.125 C 39.5 -31.9375 39.9375 -22.585938 40.8125 -11.078125 C 44.5625 -16.640625 47.378906 -21.078125 49.265625 -24.390625 C 48.328125 -26.203125 47.859375 -28.363281 47.859375 -30.875 C 47.859375 -33 48.328125 -35.0625 49.265625 -37.0625 C 50.203125 -39.0625 51.484375 -40.6875 53.109375 -41.9375 C 54.734375 -43.1875 56.578125 -43.8125 58.640625 -43.8125 C 60.453125 -43.8125 61.921875 -43.171875 63.046875 -41.890625 C 64.171875 -40.609375 64.734375 -38.75 64.734375 -36.3125 C 64.734375 -33.5 63.984375 -30.273438 62.484375 -26.640625 C 64.867188 -26.765625 68.03125 -27.234375 71.96875 -28.046875 Z M 74.5 -28.53125 "/></g></g></g><g clip-path="url(#c84e5601e7)"><g fill="#453336" fill-opacity="1"><g transform="translate(66.546439, 121.837004)"><g><path d="M 46.34375 -20.921875 C 47.164062 -20.921875 47.8125 -20.546875 48.28125 -19.796875 C 48.75 -19.046875 48.984375 -18.015625 48.984375 -16.703125 C 48.984375 -14.203125 48.390625 -12.265625 47.203125 -10.890625 C 44.878906 -8.066406 41.609375 -5.46875 37.390625 -3.09375 C 33.171875 -0.71875 28.648438 0.46875 23.828125 0.46875 C 17.265625 0.46875 12.164062 -1.3125 8.53125 -4.875 C 4.90625 -8.445312 3.09375 -13.328125 3.09375 -19.515625 C 3.09375 -23.828125 4 -27.84375 5.8125 -31.5625 C 7.625 -35.289062 10.140625 -38.25 13.359375 -40.4375 C 16.585938 -42.625 20.234375 -43.71875 24.296875 -43.71875 C 27.929688 -43.71875 30.84375 -42.640625 33.03125 -40.484375 C 35.21875 -38.328125 36.3125 -35.40625 36.3125 -31.71875 C 36.3125 -27.394531 34.757812 -23.6875 31.65625 -20.59375 C 28.5625 -17.5 23.328125 -15.046875 15.953125 -13.234375 C 17.515625 -10.347656 20.484375 -8.90625 24.859375 -8.90625 C 27.679688 -8.90625 30.890625 -9.890625 34.484375 -11.859375 C 38.078125 -13.835938 41.1875 -16.421875 43.8125 -19.609375 C 44.5625 -20.484375 45.40625 -20.921875 46.34375 -20.921875 Z M 22.703125 -34.53125 C 20.390625 -34.53125 18.4375 -33.179688 16.84375 -30.484375 C 15.25 -27.796875 14.453125 -24.546875 14.453125 -20.734375 L 14.453125 -20.546875 C 18.140625 -21.421875 21.046875 -22.734375 23.171875 -24.484375 C 25.296875 -26.234375 26.359375 -28.269531 26.359375 -30.59375 C 26.359375 -31.78125 26.03125 -32.734375 25.375 -33.453125 C 24.71875 -34.171875 23.828125 -34.53125 22.703125 -34.53125 Z M 22.703125 -34.53125 "/></g></g></g></g></g></g><g transform="matrix(1, 0, 0, 1, 174, 144)"><g clip-path="url(#1770668ff5)"><g fill="#453336" fill-opacity="1"><g transform="translate(1.424231, 76.830985)"><g><path d="M 35.28125 -26.078125 C 38.226562 -25.453125 40.59375 -23.992188 42.375 -21.703125 C 44.164062 -19.410156 45.0625 -16.789062 45.0625 -13.84375 C 45.0625 -9.59375 43.578125 -6.222656 40.609375 -3.734375 C 37.640625 -1.242188 33.5 0 28.1875 0 L 4.484375 0 L 4.484375 -50.859375 L 27.390625 -50.859375 C 32.554688 -50.859375 36.597656 -49.675781 39.515625 -47.3125 C 42.441406 -44.945312 43.90625 -41.734375 43.90625 -37.671875 C 43.90625 -34.679688 43.117188 -32.195312 41.546875 -30.21875 C 39.984375 -28.238281 37.894531 -26.859375 35.28125 -26.078125 Z M 16.875 -30.28125 L 25 -30.28125 C 27.03125 -30.28125 28.585938 -30.726562 29.671875 -31.625 C 30.753906 -32.519531 31.296875 -33.835938 31.296875 -35.578125 C 31.296875 -37.316406 30.753906 -38.644531 29.671875 -39.5625 C 28.585938 -40.476562 27.03125 -40.9375 25 -40.9375 L 16.875 -40.9375 Z M 26.015625 -10 C 28.085938 -10 29.691406 -10.46875 30.828125 -11.40625 C 31.960938 -12.351562 32.53125 -13.71875 32.53125 -15.5 C 32.53125 -17.289062 31.9375 -18.691406 30.75 -19.703125 C 29.570312 -20.722656 27.941406 -21.234375 25.859375 -21.234375 L 16.875 -21.234375 L 16.875 -10 Z M 26.015625 -10 "/></g></g></g></g></g><g transform="matrix(1, 0, 0, 1, 217, 124)"><g clip-path="url(#f95a535bfa)"><g fill="#b4b4b4" fill-opacity="1"><g transform="translate(1.129097, 74.142614)"><g><path d="M 28.421875 0 L 16.4375 -16.5 L 16.4375 0 L 4.375 0 L 4.375 -52.1875 L 16.4375 -52.1875 L 16.4375 -23.34375 L 28.359375 -39.359375 L 43.234375 -39.359375 L 26.875 -19.609375 L 43.375 0 Z M 28.421875 0 "/></g></g></g><g fill="#b4b4b4" fill-opacity="1"><g transform="translate(44.713685, 74.142614)"><g><path d="M 1.96875 -19.75 C 1.96875 -23.789062 2.734375 -27.335938 4.265625 -30.390625 C 5.796875 -33.453125 7.875 -35.804688 10.5 -37.453125 C 13.132812 -39.097656 16.078125 -39.921875 19.328125 -39.921875 C 22.097656 -39.921875 24.53125 -39.351562 26.625 -38.21875 C 28.71875 -37.09375 30.328125 -35.613281 31.453125 -33.78125 L 31.453125 -39.359375 L 43.515625 -39.359375 L 43.515625 0 L 31.453125 0 L 31.453125 -5.578125 C 30.273438 -3.742188 28.640625 -2.257812 26.546875 -1.125 C 24.460938 0 22.03125 0.5625 19.25 0.5625 C 16.050781 0.5625 13.132812 -0.269531 10.5 -1.9375 C 7.875 -3.601562 5.796875 -5.976562 4.265625 -9.0625 C 2.734375 -12.144531 1.96875 -15.707031 1.96875 -19.75 Z M 31.453125 -19.671875 C 31.453125 -22.679688 30.617188 -25.054688 28.953125 -26.796875 C 27.285156 -28.535156 25.253906 -29.40625 22.859375 -29.40625 C 20.453125 -29.40625 18.414062 -28.546875 16.75 -26.828125 C 15.082031 -25.117188 14.25 -22.757812 14.25 -19.75 C 14.25 -16.738281 15.082031 -14.347656 16.75 -12.578125 C 18.414062 -10.816406 20.453125 -9.9375 22.859375 -9.9375 C 25.253906 -9.9375 27.285156 -10.804688 28.953125 -12.546875 C 30.617188 -14.296875 31.453125 -16.671875 31.453125 -19.671875 Z M 31.453125 -19.671875 "/></g></g></g></g></g></svg>